<?xml version="1.0" encoding="UTF-8"?>
<svg id="Layer_1" xmlns="http://www.w3.org/2000/svg" xmlns:xlink="http://www.w3.org/1999/xlink" version="1.1" viewBox="0 0 1158.6 423.7">
  <!-- Generator: Adobe Illustrator 30.5.1, SVG Export Plug-In . SVG Version: 2.1.4 Build 3)  -->
  <defs>
    <style>
      .st0 {
        fill: #7f8c8d;
      }

      .st1, .st2, .st3, .st4, .st5, .st6, .st7, .st8, .st9, .st10, .st11, .st12, .st13, .st14, .st15, .st16, .st17, .st18, .st19, .st20, .st21, .st22, .st23, .st24, .st25, .st26 {
        fill: none;
      }

      .st27 {
        font-family: Arial-ItalicMT, Arial;
        font-style: italic;
      }

      .st27, .st28, .st29, .st30, .st31, .st32, .st33, .st34, .st35 {
        isolation: isolate;
      }

      .st27, .st29 {
        fill: #c2c0b6;
      }

      .st27, .st35 {
        font-size: 11px;
      }

      .st2, .st36, .st37, .st5, .st7, .st38, .st39, .st40, .st20, .st25 {
        stroke-width: 1.5px;
      }

      .st2, .st38 {
        stroke: #8ee3ad;
      }

      .st41 {
        fill: #fac775;
      }

      .st3, .st15, .st42 {
        stroke: #aaa;
        stroke-miterlimit: 10;
      }

      .st43 {
        fill: #ba7517;
      }

      .st44 {
        fill: #5dcaa5;
      }

      .st45, .st36 {
        fill: #fffdf3;
      }

      .st4 {
        stroke-dasharray: 1.6 1.1;
      }

      .st4, .st6 {
        stroke-width: .7px;
      }

      .st4, .st6, .st8, .st18, .st23, .st24 {
        stroke-miterlimit: 7.2;
      }

      .st4, .st18 {
        stroke: #c0392b;
      }

      .st36, .st25 {
        stroke: #ffc83d;
      }

      .st46 {
        fill: #474747;
      }

      .st37, .st47 {
        stroke: #534ab7;
      }

      .st37, .st47, .st48, .st49 {
        fill: #7f77dd;
      }

      .st50 {
        fill: #f1b154;
      }

      .st50, .st9, .st17, .st51, .st22, .st52 {
        stroke-width: .5px;
      }

      .st50, .st51, .st52 {
        stroke: #f8f5ff;
      }

      .st47, .st12 {
        stroke-width: 1.2px;
      }

      .st48 {
        stroke: #7f77dd;
      }

      .st48, .st13, .st19, .st21 {
        stroke-width: .8px;
      }

      .st53 {
        fill: #e67e22;
      }

      .st5, .st39 {
        stroke: #9edbf8;
      }

      .st54 {
        fill: #ffc83d;
      }

      .st55, .st39 {
        fill: #f2fbff;
      }

      .st6, .st8 {
        stroke: #111;
        stroke-linecap: square;
      }

      .st56 {
        fill: #9b59b6;
      }

      .st7, .st40 {
        stroke: #ccb8ff;
      }

      .st57, .st38 {
        fill: #f1fff6;
      }

      .st58 {
        fill: #b4b2a9;
      }

      .st8, .st18 {
        stroke-width: .3px;
      }

      .st9, .st10, .st11, .st12, .st13 {
        stroke: #c2c0b6;
      }

      .st10, .st14 {
        stroke-width: .8px;
      }

      .st59 {
        fill: #1d1d1b;
      }

      .st11 {
        stroke-width: .4px;
      }

      .st14 {
        stroke-dasharray: 4 3;
      }

      .st14, .st21 {
        stroke: #e24b4a;
      }

      .st60 {
        fill: #2ecc71;
      }

      .st15 {
        stroke-dasharray: 3 3;
      }

      .st61 {
        clip-path: url(#clippath-1);
      }

      .st62 {
        clip-path: url(#clippath-3);
      }

      .st63 {
        clip-path: url(#clippath-4);
      }

      .st64 {
        clip-path: url(#clippath-2);
      }

      .st29 {
        font-size: 12px;
      }

      .st29, .st30 {
        font-family: Helvetica, Helvetica;
      }

      .st65 {
        fill: #1d9e75;
      }

      .st16, .st66 {
        stroke: #d5c4ff;
      }

      .st16, .st66, .st26 {
        stroke-width: 2px;
      }

      .st67 {
        fill: #ef9f27;
      }

      .st68 {
        fill: #9fe1cb;
      }

      .st42 {
        fill: #aaa;
      }

      .st17 {
        stroke: #378add;
      }

      .st69 {
        fill: #63c4e8;
      }

      .st18 {
        stroke-dasharray: .9 .6;
      }

      .st30 {
        fill: #faf9f5;
      }

      .st30, .st34, .st70 {
        font-size: 13px;
      }

      .st71 {
        fill: #d85a30;
      }

      .st40, .st72 {
        fill: #faf7ff;
      }

      .st73 {
        fill: #e30613;
      }

      .st74 {
        fill: #afa9ec;
      }

      .st75 {
        opacity: .9;
      }

      .st31, .st76 {
        display: none;
      }

      .st66, .st77 {
        fill: #f8f5ff;
      }

      .st78 {
        fill: #1d71b8;
      }

      .st32 {
        fill: #6f42c1;
        font-size: 18px;
      }

      .st32, .st33, .st34, .st70 {
        font-family: Arial-BoldMT, Arial;
        font-weight: 700;
      }

      .st19, .st20, .st22, .st26 {
        stroke: #85b7eb;
      }

      .st51 {
        fill: #334472;
      }

      .st79, .st33 {
        fill: #243b8f;
      }

      .st21 {
        stroke-dasharray: .9 .6;
      }

      .st33 {
        font-size: 10px;
        letter-spacing: 0em;
      }

      .st34, .st70, .st35 {
        fill: #001a66;
      }

      .st23 {
        stroke-width: .2px;
      }

      .st23, .st24 {
        stroke: #f1f2f6;
      }

      .st80 {
        clip-path: url(#clippath);
      }

      .st24 {
        stroke-width: .4px;
      }

      .st81 {
        fill: #34495e;
      }

      .st35 {
        font-family: ArialMT, Arial;
      }

      .st52 {
        fill: #848484;
      }
    </style>
    <clipPath id="clippath">
      <circle class="st1" cx="132.5" cy="266.8" r="60"/>
    </clipPath>
    <clipPath id="clippath-1">
      <circle class="st1" cx="334.5" cy="266.8" r="60"/>
    </clipPath>
    <clipPath id="clippath-2">
      <circle class="st1" cx="574.5" cy="223.8" r="104"/>
    </clipPath>
    <clipPath id="clippath-3">
      <circle class="st1" cx="818.5" cy="266.8" r="60"/>
    </clipPath>
    <clipPath id="clippath-4">
      <circle class="st36" cx="1015.5" cy="266.8" r="60"/>
    </clipPath>
  </defs>
  <g id="Layer_11" data-name="Layer_1" class="st76">
    <g class="st31">
      <text class="st32" transform="translate(470.7 15.4)"><tspan x="0" y="0">From GWAS Summary Statistics to Biological Insight</tspan></text>
    </g>
    <g class="st28">
      <g class="st28">
        <text class="st34" transform="translate(180.9 65.4)"><tspan x="0" y="0">GWAS SUMMARY</tspan></text>
      </g>
      <g class="st28">
        <text class="st34" transform="translate(200.8 80.4)"><tspan x="0" y="0">STATISTICS</tspan></text>
      </g>
    </g>
    <g class="st28">
      <g class="st28">
        <text class="st35" transform="translate(189.7 109.4)"><tspan x="0" y="0">Curated AD GWAS</tspan></text>
      </g>
      <g class="st28">
        <text class="st35" transform="translate(181.2 124.4)"><tspan x="0" y="0">from published studies</tspan></text>
      </g>
      <g class="st28">
        <text class="st35" transform="translate(204.7 139.4)"><tspan x="0" y="0">and consortia</tspan></text>
      </g>
    </g>
    <circle class="st40" cx="237.8" cy="210.4" r="60"/>
    <path class="st40" d="M0,0"/>
    <path class="st79" d="M365.8,200.4" marker-end="url(#arrowhead)"/>
    <g class="st28">
      <g class="st28">
        <text class="st34" transform="translate(361.4 65.4)"><tspan x="0" y="0">GENETIC SIGNALS</tspan></text>
      </g>
      <g class="st28">
        <text class="st34" transform="translate(400.7 80.4)"><tspan x="0" y="0">&amp; LOCI</tspan></text>
      </g>
    </g>
    <g class="st28">
      <g class="st28">
        <text class="st35" transform="translate(369 109.4)"><tspan x="0" y="0">Identify genome-wide</tspan></text>
      </g>
      <g class="st28">
        <text class="st35" transform="translate(365 124.4)"><tspan x="0" y="0">significant associations</tspan></text>
      </g>
      <g class="st28">
        <text class="st35" transform="translate(403.8 139.4)"><tspan x="0" y="0">and loci</tspan></text>
      </g>
    </g>
    <circle class="st39" cx="422.8" cy="210.4" r="60"/>
    <path class="st39" d="M0,0"/>
    <path class="st79" d="M540.3,194.4l12,6-12,6v-12Z"/>
    <path class="st79" d="M550.8,200.4" marker-end="url(#arrowhead)"/>
    <circle class="st66" cx="662.8" cy="167.4" r="104"/>
    <g class="st31">
      <text class="st33" transform="translate(558.1 243.8) rotate(45)"><tspan x="0" y="0">INTEGRATE</tspan></text>
    </g>
    <circle class="st79" cx="638.8" cy="290.4" r="2"/>
    <g class="st31">
      <text class="st33" transform="translate(641.7 292.4)"><tspan x="0" y="0">QUERY</tspan></text>
    </g>
    <circle class="st79" cx="687.8" cy="290.4" r="2"/>
    <g class="st31">
      <text class="st33" transform="translate(719.3 289.9) rotate(-45)"><tspan x="0" y="0">DISCOVER</tspan></text>
    </g>
    <path class="st79" d="M0,0"/>
    <path class="st79" d="M810.3,194.4l12,6-12,6v-12Z"/>
    <path class="st79" d="M820.8,200.4" marker-end="url(#arrowhead)"/>
    <g class="st28">
      <g class="st28">
        <text class="st34" transform="translate(825.2 65.4)"><tspan x="0" y="0">KNOWN AD GENES</tspan></text>
      </g>
      <g class="st28">
        <text class="st34" transform="translate(834.8 80.4)"><tspan x="0" y="0">&amp; ANNOTATIONS</tspan></text>
      </g>
    </g>
    <g class="st28">
      <g class="st28">
        <text class="st35" transform="translate(834.9 109.4)"><tspan x="0" y="0">Link signals to genes</tspan></text>
      </g>
      <g class="st28">
        <text class="st35" transform="translate(852 124.4)"><tspan x="0" y="0">and functional</tspan></text>
      </g>
      <g class="st28">
        <text class="st35" transform="translate(859.3 139.4)"><tspan x="0" y="0">annotations</tspan></text>
      </g>
    </g>
    <circle class="st38" cx="887.8" cy="210.4" r="60"/>
    <path class="st38" d="M0,0"/>
    <path class="st79" d="M1005.3,194.4l12,6-12,6v-12Z"/>
    <path class="st79" d="M1015.8,200.4" marker-end="url(#arrowhead)"/>
    <g class="st28">
      <g class="st28">
        <text class="st34" transform="translate(1055.1512 65.4849)"><tspan x="0" y="0">BIOLOGICAL</tspan></text>
      </g>
      <g class="st28">
        <text class="st34" transform="translate(1071.3979 80.4849)"><tspan x="0" y="0">INSIGHT</tspan></text>
      </g>
    </g>
    <g class="st28">
      <g class="st28">
        <text class="st35" transform="translate(1047.6207 109.4849)"><tspan x="0" y="0">Prioritize genes and</tspan></text>
      </g>
      <g class="st28">
        <text class="st35" transform="translate(1057.4148 124.4849)"><tspan x="0" y="0">mechanisms for</tspan></text>
      </g>
      <g class="st28">
        <text class="st35" transform="translate(1048.7458 139.4849)"><tspan x="0" y="0">Alzheimer’s disease</tspan></text>
      </g>
    </g>
    <circle class="st36" cx="1097.8" cy="210.4" r="60"/>
  </g>
  <g class="st28">
    <text class="st32" transform="translate(382.4 71.8)"><tspan x="0" y="0">From GWAS Summary Statistics to Biological Insight</tspan></text>
  </g>
  <g class="st28">
    <g class="st28">
      <text class="st34" transform="translate(75.6 121.8)"><tspan x="0" y="0">GWAS SUMMARY</tspan></text>
    </g>
    <g class="st28">
      <text class="st34" transform="translate(95.5 136.8)"><tspan x="0" y="0">STATISTICS</tspan></text>
    </g>
  </g>
  <g class="st28">
    <g class="st28">
      <text class="st35" transform="translate(84.4 165.8)"><tspan x="0" y="0">Curated AD GWAS</tspan></text>
    </g>
    <g class="st28">
      <text class="st35" transform="translate(75.9 180.8)"><tspan x="0" y="0">from published studies</tspan></text>
    </g>
    <g class="st28">
      <text class="st35" transform="translate(99.4 195.8)"><tspan x="0" y="0">and consortia</tspan></text>
    </g>
  </g>
  <g>
    <circle class="st72" cx="132.5" cy="266.8" r="60"/>
    <g class="st80">
      <g>
        <line class="st23" x1="85.4" y1="296.7" x2="185.7" y2="296.7"/>
        <line class="st23" x1="85.4" y1="288.6" x2="185.7" y2="288.6"/>
        <line class="st23" x1="85.4" y1="280.4" x2="185.7" y2="280.4"/>
        <line class="st23" x1="85.4" y1="264.2" x2="185.7" y2="264.2"/>
        <line class="st23" x1="85.4" y1="256" x2="185.7" y2="256"/>
        <line class="st23" x1="85.4" y1="247.9" x2="185.7" y2="247.9"/>
        <line class="st18" x1="85.4" y1="274.3" x2="185.7" y2="274.3"/>
        <g class="st75">
          <circle class="st81" cx="86" cy="301.9" r=".7"/>
          <circle class="st81" cx="86.5" cy="293.2" r=".7"/>
          <circle class="st81" cx="87.1" cy="297.6" r=".7"/>
          <circle class="st81" cx="87.8" cy="288.8" r=".7"/>
          <circle class="st81" cx="88.3" cy="303.4" r=".6"/>
          <circle class="st81" cx="88.9" cy="296.2" r=".7"/>
          <circle class="st81" cx="89.5" cy="300.5" r=".7"/>
          <circle class="st81" cx="88" cy="291.8" r=".7"/>
          <circle class="st81" cx="87.4" cy="285.2" r=".7"/>
          <circle class="st81" cx="87.4" cy="281.6" r=".7"/>
          <circle class="st81" cx="87.4" cy="278" r=".8"/>
          <circle class="st60" cx="87.4" cy="273.6" r=".9"/>
          <circle class="st60" cx="87.4" cy="269.3" r=".9"/>
          <circle class="st60" cx="87.4" cy="264.9" r="1.1"/>
        </g>
        <g class="st75">
          <circle class="st0" cx="90.3" cy="300.5" r=".7"/>
          <circle class="st0" cx="91.1" cy="291.8" r=".7"/>
          <circle class="st0" cx="91.8" cy="304.1" r=".7"/>
          <circle class="st0" cx="92.5" cy="294.7" r=".7"/>
          <circle class="st0" cx="93.2" cy="299.7" r=".6"/>
          <circle class="st0" cx="94" cy="293.9" r=".7"/>
        </g>
        <g class="st75">
          <circle class="st81" cx="94.9" cy="297.6" r=".7"/>
          <circle class="st81" cx="95.5" cy="302.7" r=".6"/>
          <circle class="st81" cx="96.3" cy="293.2" r=".7"/>
          <circle class="st81" cx="97" cy="299.1" r=".7"/>
          <circle class="st81" cx="97.8" cy="290.3" r=".7"/>
          <circle class="st81" cx="98.5" cy="301.2" r=".7"/>
        </g>
        <g class="st75">
          <circle class="st0" cx="99.3" cy="304.1" r=".7"/>
          <circle class="st0" cx="100.1" cy="298.3" r=".7"/>
          <circle class="st0" cx="100.8" cy="293.2" r=".7"/>
          <circle class="st0" cx="101.5" cy="300.5" r=".6"/>
          <circle class="st0" cx="102.3" cy="291.8" r=".7"/>
          <circle class="st0" cx="103" cy="297.6" r=".7"/>
        </g>
        <g class="st75">
          <circle class="st81" cx="103.9" cy="299.1" r=".7"/>
          <circle class="st81" cx="104.6" cy="302.7" r=".6"/>
          <circle class="st81" cx="105.3" cy="296.2" r=".7"/>
          <circle class="st81" cx="106.1" cy="292.5" r=".7"/>
          <circle class="st81" cx="106.8" cy="300.5" r=".7"/>
          <circle class="st81" cx="107.5" cy="294.7" r=".7"/>
        </g>
        <g class="st75">
          <circle class="st0" cx="108.4" cy="301.9" r=".7"/>
          <circle class="st0" cx="109.1" cy="293.9" r=".7"/>
          <circle class="st0" cx="109.8" cy="299.7" r=".6"/>
          <circle class="st0" cx="111.3" cy="303.4" r=".7"/>
          <circle class="st0" cx="112" cy="295.4" r=".7"/>
          <circle class="st0" cx="110.5" cy="290.3" r=".7"/>
          <circle class="st0" cx="110.5" cy="285.9" r=".7"/>
          <circle class="st0" cx="110.5" cy="281.6" r=".8"/>
          <circle class="st0" cx="110.5" cy="277.3" r=".8"/>
          <circle class="st56" cx="110.5" cy="272.8" r=".9"/>
          <circle class="st56" cx="110.5" cy="268.5" r=".9"/>
          <circle class="st56" cx="110.5" cy="264.2" r="1"/>
          <circle class="st56" cx="110.5" cy="259.8" r="1.2"/>
        </g>
        <g class="st75">
          <circle class="st81" cx="112.9" cy="300.5" r=".7"/>
          <circle class="st81" cx="113.6" cy="296.2" r=".7"/>
          <circle class="st81" cx="114.3" cy="304.1" r=".7"/>
          <circle class="st81" cx="115.1" cy="293.2" r=".7"/>
          <circle class="st81" cx="115.7" cy="299.1" r=".6"/>
          <circle class="st81" cx="116.5" cy="294.7" r=".7"/>
        </g>
        <g class="st75">
          <circle class="st0" cx="117.4" cy="298.3" r=".7"/>
          <circle class="st0" cx="118.1" cy="301.9" r=".7"/>
          <circle class="st0" cx="118.9" cy="295.4" r=".6"/>
          <circle class="st0" cx="119.5" cy="299.7" r=".7"/>
          <circle class="st0" cx="120.3" cy="291.8" r=".7"/>
          <circle class="st0" cx="121" cy="303.4" r=".7"/>
        </g>
        <g class="st75">
          <circle class="st81" cx="122" cy="301.2" r=".7"/>
          <circle class="st81" cx="123.2" cy="296.8" r=".7"/>
        </g>
        <g class="st75">
          <circle class="st0" cx="125" cy="303.4" r=".7"/>
          <circle class="st0" cx="126.4" cy="293.2" r=".7"/>
        </g>
        <g class="st75">
          <circle class="st81" cx="128.4" cy="299.7" r=".7"/>
          <circle class="st81" cx="129.9" cy="295.4" r=".7"/>
          <circle class="st81" cx="129.9" cy="291.1" r=".7"/>
          <circle class="st81" cx="129.9" cy="287.4" r=".8"/>
        </g>
        <g class="st75">
          <circle class="st0" cx="131.9" cy="302.7" r=".7"/>
          <circle class="st0" cx="133.6" cy="291.8" r=".7"/>
        </g>
        <g class="st75">
          <circle class="st81" cx="136" cy="300.5" r=".7"/>
          <circle class="st81" cx="137.4" cy="296.2" r=".7"/>
        </g>
        <g class="st75">
          <circle class="st0" cx="139.7" cy="303.4" r=".7"/>
          <circle class="st0" cx="141.2" cy="293.9" r=".7"/>
        </g>
        <g class="st75">
          <circle class="st81" cx="143.5" cy="299.1" r=".7"/>
          <circle class="st81" cx="145" cy="294.7" r=".7"/>
        </g>
        <g class="st75">
          <circle class="st0" cx="147.3" cy="301.9" r=".7"/>
          <circle class="st0" cx="148.7" cy="292.5" r=".7"/>
        </g>
        <g class="st75">
          <circle class="st81" cx="151.1" cy="301.2" r=".7"/>
          <circle class="st81" cx="152.5" cy="296.8" r=".7"/>
        </g>
        <g class="st75">
          <circle class="st0" cx="154.8" cy="304.1" r=".7"/>
          <circle class="st0" cx="156.3" cy="293.2" r=".7"/>
        </g>
        <g class="st75">
          <circle class="st81" cx="158.4" cy="300.5" r=".7"/>
          <circle class="st81" cx="159.2" cy="296.2" r=".7"/>
          <circle class="st81" cx="160.1" cy="302.7" r=".7"/>
          <circle class="st81" cx="160.9" cy="292.5" r=".7"/>
          <circle class="st81" cx="162.7" cy="299.1" r=".7"/>
          <circle class="st81" cx="163.6" cy="294.7" r=".7"/>
          <circle class="st81" cx="161.8" cy="288.2" r=".7"/>
          <circle class="st81" cx="161.8" cy="283.8" r=".7"/>
          <circle class="st81" cx="161.8" cy="279.4" r=".7"/>
          <circle class="st81" cx="161.8" cy="275.1" r=".8"/>
          <circle class="st53" cx="161.8" cy="270.7" r=".9"/>
          <circle class="st53" cx="161.8" cy="266.3" r=".9"/>
          <circle class="st53" cx="161.8" cy="262" r=".9"/>
          <circle class="st53" cx="161.8" cy="257.6" r="1"/>
          <circle class="st53" cx="161.8" cy="253.3" r="1.1"/>
          <circle class="st53" cx="161.8" cy="248.9" r="1.2"/>
        </g>
        <g class="st75">
          <circle class="st0" cx="164.7" cy="301.9" r=".7"/>
          <circle class="st0" cx="165.7" cy="297.6" r=".7"/>
          <circle class="st0" cx="166.8" cy="293.9" r=".7"/>
          <circle class="st0" cx="167.8" cy="300.5" r=".7"/>
        </g>
        <g class="st75">
          <circle class="st81" cx="169.3" cy="303.4" r=".7"/>
          <circle class="st81" cx="170.3" cy="299.1" r=".7"/>
          <circle class="st81" cx="171.3" cy="292.5" r=".7"/>
          <circle class="st81" cx="172.3" cy="301.2" r=".7"/>
        </g>
        <g class="st75">
          <circle class="st0" cx="173.7" cy="302.7" r=".7"/>
          <circle class="st0" cx="174.7" cy="296.8" r=".7"/>
          <circle class="st0" cx="175.8" cy="299.7" r=".7"/>
          <circle class="st0" cx="176.8" cy="293.2" r=".7"/>
          <circle class="st0" cx="177.7" cy="304.1" r=".7"/>
        </g>
        <line class="st8" x1="85.4" y1="246.7" x2="85.4" y2="304.8"/>
        <line class="st8" x1="85.4" y1="304.8" x2="179.8" y2="304.8"/>
      </g>
    </g>
    <circle class="st7" cx="132.5" cy="266.8" r="60"/>
  </g>
  <path class="st7" d="M0,0"/>
  <path class="st79" d="M277.5,256.8" marker-end="url(#arrowhead)"/>
  <g class="st28">
    <g class="st28">
      <text class="st34" transform="translate(273.1 121.8)"><tspan x="0" y="0">GENETIC SIGNALS</tspan></text>
    </g>
    <g class="st28">
      <text class="st34" transform="translate(312.4 136.8)"><tspan x="0" y="0">&amp; LOCI</tspan></text>
    </g>
  </g>
  <g class="st28">
    <g class="st28">
      <text class="st35" transform="translate(280.7 165.8)"><tspan x="0" y="0">Identify genome-wide</tspan></text>
    </g>
    <g class="st28">
      <text class="st35" transform="translate(276.7 180.8)"><tspan x="0" y="0">significant associations</tspan></text>
    </g>
    <g class="st28">
      <text class="st35" transform="translate(315.5 195.8)"><tspan x="0" y="0">and loci</tspan></text>
    </g>
  </g>
  <g>
    <circle class="st55" cx="334.5" cy="266.8" r="60"/>
    <g class="st61">
      <g>
        <line class="st13" x1="275.5" y1="254.1" x2="275.5" y2="296.1"/>
        <line class="st13" x1="275.5" y1="296.1" x2="393.4" y2="296.1"/>
        <line class="st19" x1="393.4" y1="254.1" x2="393.4" y2="296.1"/>
        <line class="st13" x1="274.7" y1="255.1" x2="275.5" y2="255.1"/>
        <line class="st13" x1="274.7" y1="263.4" x2="275.5" y2="263.4"/>
        <line class="st13" x1="274.7" y1="271.8" x2="275.5" y2="271.8"/>
        <line class="st13" x1="274.7" y1="280.2" x2="275.5" y2="280.2"/>
        <line class="st13" x1="274.7" y1="288.6" x2="275.5" y2="288.6"/>
        <line class="st19" x1="393.4" y1="255.1" x2="394.3" y2="255.1"/>
        <line class="st19" x1="393.4" y1="274.9" x2="394.3" y2="274.9"/>
        <line class="st21" x1="275.5" y1="265.4" x2="393.4" y2="265.4"/>
        <polyline class="st19" points="276.4 295.4 285.3 294.3 294.1 292.1 300.7 287.7 305.1 280.6 308.5 271.8 310.6 263.4 312.2 257.2 313.5 254.6 314.8 257.2 316.2 263.4 318.4 271.8 321 280.2 324.5 286 329 289.5 333.4 287.3 336 282.9 337.8 277.5 339.1 273.1 340 269.2 340.6 265.7 341.3 269.2 342.2 274 343.5 280.2 346.2 286 351.4 289.5 358.1 291.6 366.9 293.5 377.9 294.7 389 295.4 393.4 295.7"/>
        <circle class="st58" cx="278.2" cy="293" r="1.1"/>
        <circle class="st58" cx="281.7" cy="291.6" r="1.1"/>
        <circle class="st58" cx="285.3" cy="290.4" r="1.1"/>
        <circle class="st58" cx="288.8" cy="288.6" r="1.1"/>
        <circle class="st58" cx="292.3" cy="289.9" r="1.1"/>
        <circle class="st44" cx="295.8" cy="286.4" r="1.1"/>
        <circle class="st44" cx="298.9" cy="283.3" r="1.1"/>
        <circle class="st69" cx="301.6" cy="279.3" r="1.2"/>
        <circle class="st69" cx="304" cy="274.4" r="1.2"/>
        <circle class="st67" cx="306.4" cy="269.6" r="1.3"/>
        <circle class="st67" cx="308.7" cy="264.3" r="1.3"/>
        <circle class="st71" cx="310.6" cy="259.5" r="1.4"/>
        <circle class="st48" cx="312.6" cy="253.7" r="1.9"/>
        <circle class="st71" cx="314.8" cy="259" r="1.4"/>
        <circle class="st67" cx="317" cy="263.8" r="1.3"/>
        <circle class="st67" cx="319.5" cy="269.6" r="1.3"/>
        <circle class="st69" cx="322.1" cy="274.9" r="1.2"/>
        <circle class="st69" cx="325" cy="279.8" r="1.2"/>
        <circle class="st44" cx="328.1" cy="283.7" r="1.1"/>
        <circle class="st44" cx="331.4" cy="286" r="1.1"/>
        <circle class="st44" cx="334.2" cy="284.6" r="1.1"/>
        <circle class="st69" cx="336.7" cy="280.6" r="1.2"/>
        <circle class="st67" cx="338.9" cy="275.4" r="1.3"/>
        <circle class="st71" cx="340.6" cy="269.6" r="1.4"/>
        <circle class="st67" cx="342.5" cy="275.4" r="1.3"/>
        <circle class="st69" cx="344.4" cy="281.1" r="1.2"/>
        <circle class="st44" cx="346.8" cy="285.5" r="1.1"/>
        <circle class="st58" cx="350.1" cy="287.7" r="1.1"/>
        <circle class="st58" cx="354.5" cy="289.5" r="1.1"/>
        <circle class="st58" cx="359.9" cy="290.8" r="1.1"/>
        <circle class="st58" cx="366.1" cy="291.6" r="1.1"/>
        <circle class="st58" cx="373.1" cy="292.6" r="1.1"/>
        <circle class="st58" cx="381" cy="293" r="1.1"/>
        <circle class="st58" cx="389.4" cy="293.5" r="1.1"/>
      </g>
    </g>
    <circle class="st5" cx="334.5" cy="266.8" r="60"/>
  </g>
  <path class="st5" d="M0,0"/>
  <path class="st79" d="M462.5,256.8" marker-end="url(#arrowhead)"/>
  <g>
    <circle class="st77" cx="574.5" cy="223.8" r="104"/>
    <g class="st64">
      <g>
        <g>
          <path class="st51" d="M537.4,201.1c3.8-6.5,3-13.7.3-19.1,3-3.2,3-8.4.3-12.3-7-9.5-20.8-3.5-23.2,6.5-4.3,1.5-8.4,4.6-9.1,11.5-7.9,3.2-10.2,13-7.3,20.2-5.4,4.2-7.3,12.7-2.7,18.9-2.4,7.3-.5,14.6,5,19.5-1.2,10.1,4.8,14.9,11.3,15.7,10.2,19.1,36,3.4,25-12.6,3.6-3.8,4.3-10.5,1.5-14.9,2.4-6.8,2.1-13.8-.3-19,3.1-4.2,3-10.4-1.1-14.4h.1ZM531.8,250.2c-3.6,1.9-6.2,1.9-6.8,2.1-.5.2-.8.6-.8,1.1-.4,3.4,8.8-.3,11-2.3,8.6,13.5-13.2,25-20.8,9.4-.8-1.8-2-.8-3.6-1.4-7.1-1.9-7.6-8-7.5-11.2.5-6.7,4.2-6.7,4.1-8-.7-4.4-5.8,2.2-5.9,3.5-3.9-4.1-4.7-9.5-3.7-14.2,5.9,5.5,5.9.6,4.7.2-3.9-2.2-7.2-6.3-6.8-11.1.5-5.9,4.6-9.4,8.9-10.5,1.3-.6.8-2.4-.3-2.5-.8,0-1.4.2-3.6,1.3-3.3-10,3.9-19.3,12.5-16.3.6,0,1.1-.4,1.2-1.1.4-2.4-5.2-2.2-6-2.1.9-6.7,7.1-9,11.7-9.1,1.5,0,1.8-2.1.5-2.6-.8-.2-1,0-2.9.1,5.8-13.6,23.2-7.4,18.6,3.5-1.8,3.3-4.5,2.8-5.3,3.4-1.9,3.1,2.5,2.4,4.2,1.2,2.4,5.3,2.4,10.9-.3,15.7-3.8-3-4.4.5-3.1,1.2,4.2,2.3,6.6,5.7,5.5,10.4-1.4,6-7.1,6.1-8,6.4-.6.3-.8.9-.6,1.5.5,2,5.4.1,7.4-1.4.9,2.5,2.3,7.6.3,14.5-7-6-6.9-.4-5.2-.2,8.4,3.3,8.3,14.4.2,18.4h.2Z"/>
          <path class="st51" d="M528.1,239.3c-3.6-.5-6.4,0-8.4,1-1.3-6.3-6.6-10.8-10.4-12.4-2.4-.2-1.6,2.5-.7,2.6,4.8,2.4,8.1,6.7,8.7,11.2-2.8,2.2-4.3,5.5-4.9,7.4-.1.5,0,.3-.2.6.4,2.9,2.9.9,2.7.1.6-2.5,2.9-5.5,4.4-6.4,2.8-2,5.3-2,9-1.6,1.5-.4,1.2-2.4-.1-2.6h.1Z"/>
          <path class="st51" d="M516.8,215.6c-1.1,9.4,8.3,14.3,7.5,9.8-.2-.4-.5-.6-.9-.8-4.1-2.3-4.4-7-3.7-10.4,1.8-1,11-7.4,7.4-8.8-.4-.1-.8,0-1.2.2-3.6,3.9-6.4,6.1-10.9,8-3.9,1.6-7.8,1.9-8.6,1.8-.5,0-1.3.4-1.4,1.1-.6,3.5,9.8.2,11.8-.8h0Z"/>
          <path class="st51" d="M512.6,203.7c2.3,1.3,3.1-6,11.8-8.6,2.6-.7,5.4-.8,8.2-.2.5,0,.9-.2,1.2-.6,1.8-3.2-6.9-2.5-7.9-2.3-.2-4.3-3.1-7.7-5.9-8.8-1.1-.2-2,1.1-1.3,2.1.7.7.9.4,2.1,1.4,2.1,2,2.3,3.6,2.5,5.8-5.8,1.5-13.7,9.7-10.8,11h.1Z"/>
          <path class="st51" d="M575.4,228c-4.8,2.3-9.1,6.9-10.2,12.3-3.2-1.8-12.5-1.9-8.9,1.5,1.1.3,2.8-.3,4,0,1.8.1,3.4.6,4.7,1.4,2.7,1.5,4.5,5,4.9,6.7.3,2.2,3.1,1.5,2.7-.3-.4-2.3-2.8-6.3-5-7.8.8-6,5.4-9.7,9-11.4,1.3-1,.1-2.9-1.2-2.3h0Z"/>
          <path class="st51" d="M578.5,215.3c-13.6-.4-19.4-10.8-20.3-10.1-5,.8,5.8,8.2,6.9,8.9.8,3.8.2,7.7-2.9,9.9-.5.5-1.3.6-1.6,1.3-.6,5,8.9-1.2,7.5-9.8,3.4,1.5,11.6,3.7,11.8,1.3.2-.8-.5-1.6-1.3-1.5h-.1Z"/>
          <path class="st51" d="M559.5,194.9c4.5,1,8.3,4.4,10.5,7.7,1.1,2.3,3.4.6,2.6-.8-2.3-3.9-7-7.9-11.3-9.2.1-2.6,1-5,3.5-6.6,2.2-.9,1.1-3.1-.4-2.7-3.3,1.3-5.6,5.2-5.8,8.8-11.7-1.1-7.7,3.5-6.6,2.9,2.6-.5,5-.5,7.4,0h.1Z"/>
          <path class="st51" d="M591.4,217.2c-.7-4.5-3.1-7.4-5.2-9.1,3-7.7.3-17.1-7.3-20.2-.6-7.2-5.3-10.2-9.1-11.5-2.6-9.2-12.1-13.9-20-9.6-5.6,3.6-6.7,11-2.8,15.3-3.2,6.4-3,13.5.3,19.1-4.4,4.3-3.9,10.6-1.1,14.4-2.8,6.1-2.3,13.4-.3,19-2.9,4.5-2.1,11.2,1.5,14.9-11,16.8,15.5,31.2,25,12.6,7-.8,12.6-6,11.3-15.7,6.2-5.6,7-13.3,5-19.5,2.2-2.9,3-6.3,2.5-9.8h0ZM587.3,233.3c0,3.9-1.4,7.3-4.1,10.1-3.4-7.6-7.3-4.7-5.5-2.7.8.5,1.8,1.2,2.3,2.1.9,1.4,1.2,3.1,1.4,4.2.4,3.4-.1,9.7-6.6,11.8-3,1-3.7,0-4.4,1.8-8.2,16.2-29.4,3.4-20.8-9.4,3.4,2.5,10.4,4.7,10.9,2.9.4-.7,0-1.6-.8-1.9-4.5-.6-10.9-2.9-12.4-8.7-1.5-6.1,1.9-10.2,6.2-11.8,1.4-.7.7-2.6-.6-2.6s-2.9,1-4.8,2.8c-2-6.9-.6-12.1.3-14.5,2.8,2.2,9.1,3.7,7.1,0-.4-.4-.8-.3-.9-.4-4-.5-7-3-7.5-6.8-1-5,2.4-8.1,5.7-10,1.1-.8.4-2.4-.8-2.4-.8.1-.9.3-2.5,1.2-3-5.3-2.4-11.1-.3-15.7,5.4,2.8,4.9-.8,4.1-1.3-2.8-.9-4-1.2-5.2-3.4-4.3-11.8,13.6-16.3,18.7-3.5-5.4-1.1-3.9,2.6-2.4,2.4,6,.3,10.9,3.2,11.7,9.1-8-.5-6.2,3.4-4.5,3.2,9.7-3.2,15.5,8,12.4,16.3-5.8-3.3-5.3,1.1-3.7,1.3,4.6,1.3,8,5.2,8.6,10.3.6,5.7-3.6,9.6-6.8,11.3-1.1.8-.3,2.5.9,2.4.8-.2,1.6-.7,3.9-2.7.2,1,.4,2.5.4,4.1v.4Z"/>
        </g>
        <g>
          <g>
            <path class="st50" d="M601.6,299.5c.3-.6.5-1.2.7-1.8.8-2.1,1.1-4.2,1.2-6.2v-2.3c0-2.7-.7-5.4-1.4-8-.2-.8-.5-1.6-.7-2.4h-5.8c.7,2.1,1.4,4.1,1.8,6.1.2.9.4,1.8.5,2.6.3,2.3.2,4.6-.3,6.8-.2.6-.4,1.3-.6,1.9-.3.7-.6,1.3-1,2-.5.9-.2,2,.6,2.6l1.4.9c1,.7,2.3.4,2.8-.6.3-.6.6-1.1.9-1.6h0Z"/>
            <path class="st50" d="M599.9,248.8c1.3-1.7,2.7-2.9,4.3-3.9.6-.4,1.2-.7,1.9-1,2.3-1,4.8-1.6,7.6-1.9,1-.1,2-.2,3-.2s2.1,0,3.3-.1h6.6c1,0,2-.1,3.1-.2,2.7-.2,5.4-.7,8-1.5.7-.2,1.4-.5,2.2-.8,1.9-.8,3.7-1.9,5.4-3.4.5-.4,1-.9,1.4-1.3.4-.4.8-.9,1.2-1.4.7-.9.5-2.2-.4-2.9l-1.4-.9c-.8-.6-2-.4-2.6.4-.5.6-1,1.1-1.5,1.6s-1,.9-1.5,1.2c-1.9,1.4-4,2.2-6.3,2.7-.9.2-1.7.4-2.6.5-2.4.3-4.9.4-7.6.5h-5.9c-2.7,0-5.5.3-8.3.8-.8.2-1.7.4-2.5.6-2.2.6-4.3,1.5-6.2,2.8-.6.4-1.1.7-1.6,1.2-1.4,1.1-2.7,2.4-3.9,4,0,0,0,.2-.2.2-.2.2-.4.5-.6.8-.2.3-.4.5-.5.8-1.1,1.8-2,3.6-2.5,5.3-.2.7-.4,1.3-.5,2-.5,2.3-.6,4.6-.4,6.8,0,.8.2,1.7.3,2.5.4,2.3,1,4.6,1.7,6.8h5.9c-.2-.6-.4-1.2-.6-1.9-.3-1-.6-1.9-.9-2.9-.7-2.6-1.1-5.2-.9-7.7,0-.7,0-1.4.3-2.1.4-1.9,1.1-3.7,2.2-5.5.2-.3.3-.5.5-.8s.4-.5.6-.8c0,0,0-.1,0-.2h-.2Z"/>
          </g>
          <g>
            <path class="st51" d="M617.3,214.2c-.3.6-.5,1.2-.7,1.8-.8,2.1-1.1,4.2-1.2,6.2v2.3c0,2.7.7,5.4,1.4,8,.2.8.5,1.6.7,2.4h6c-.7-2.1-1.4-4.1-1.8-6.1-.2-.9-.4-1.8-.5-2.6-.3-2.3-.2-4.6.3-6.8.2-.6.4-1.3.6-1.9.3-.7.6-1.3,1-2,.5-.9.2-2-.6-2.6l-1.4-.9c-1-.7-2.3-.4-2.8.6-.3.6-.6,1.1-.9,1.6h0Z"/>
            <path class="st51" d="M626.2,264.1c.5-1,.9-2.1,1.2-3.1.2-.7.4-1.3.5-2,.5-2.3.6-4.6.4-6.8,0-.8-.2-1.7-.3-2.5-.4-2.3-1-4.6-1.8-6.8h-5.9c.2.6.4,1.2.6,1.9.3,1,.6,1.9.9,2.9.7,2.6,1.1,5.2.9,7.7,0,.7,0,1.4-.3,2.1-.2,1.2-.6,2.4-1.1,3.5-.3.7-.7,1.3-1.1,2-.2.3-.3.5-.5.8s-.4.5-.6.8c-1.3,1.7-2.8,3-4.4,4-.6.4-1.2.7-1.9,1-2.3,1-4.8,1.6-7.6,1.9-1,.1-2,.2-3,.2s-2.1,0-3.3.1h-6.6c-1,0-2,.1-3.1.2-2.7.2-5.4.7-8,1.5-.7.2-1.4.5-2.2.8-1.9.8-3.7,1.9-5.4,3.4-.5.4-1,.9-1.4,1.3-.4.4-.8.9-1.2,1.4-.7.9-.5,2.2.4,2.9l1.4.9c.8.6,2,.4,2.6-.4.5-.6,1-1.1,1.5-1.6s1-.9,1.5-1.2c1.9-1.4,4-2.2,6.3-2.7.9-.2,1.7-.4,2.6-.5,2.4-.3,4.9-.4,7.6-.5h5.8c2.7,0,5.5-.3,8.3-.8.8-.2,1.7-.4,2.5-.6,2.2-.6,4.3-1.5,6.2-2.8.6-.4,1.1-.7,1.6-1.2,1.5-1.1,2.8-2.5,4.1-4.2.2-.2,2.4-2.9,2.8-3.6Z"/>
          </g>
          <g>
            <path class="st52" d="M618.6,264.2c.2-.2.4-.5.5-.7.2-.3.3-.5.5-.8h0l-19.3-13.3h0c-.2.2-.4.5-.5.7-.2.3-.3.5-.5.8h0l19.3,13.3h0Z"/>
            <path class="st52" d="M622,255.4v-.4l-15.3-10.5c0,0-.3.1-.4.2-.5.2-1,.5-1.5.8l17,11.7c0-.6.2-1.1.2-1.7h0Z"/>
            <path class="st52" d="M620.2,245.1c0-.3-.2-.6-.3-.9l-2.3-1.6h-1c-.8,0-1.5,0-2.1.1l6.3,4.4c-.2-.6-.4-1.3-.6-2h0Z"/>
            <path class="st52" d="M602.3,271.1c.8,0,1.5,0,2.1-.1l-6.3-4.4c.2.6.4,1.3.6,2,0,.3.2.6.3.9l2.3,1.6h1Z"/>
            <path class="st52" d="M612.6,269.1c.5-.2,1-.5,1.5-.8l-17-11.7c0,.6-.2,1.1-.2,1.7v.4l15.3,10.5c0,0,.3-.1.4-.2h0Z"/>
            <path class="st52" d="M622.1,219.8l17.6,12.1s0,0,.2-.1c.5-.3.9-.7,1.3-1.1l-18.6-12.8c-.2.5-.4,1.1-.5,1.6v.3Z"/>
            <path class="st52" d="M622.3,228.6c0,.3,0,.5.2.8l8,5.5c.3,0,.5,0,.8-.1.7,0,1.3-.2,1.9-.3l-11.3-7.8c0,.6.2,1.3.4,1.9h0Z"/>
            <path class="st52" d="M596.7,285c0-.3,0-.5-.2-.8l-8-5.5c-.3,0-.5,0-.8.1-.7,0-1.3.2-1.9.3l11.3,7.8c0-.6-.2-1.3-.4-1.9h0Z"/>
            <path class="st52" d="M596.8,294.2v-.3l-17.6-12.1s-.2,0-.2.1c-.5.3-.9.7-1.3,1.1l18.6,12.8c.2-.5.4-1.1.5-1.6Z"/>
          </g>
        </g>
      </g>
    </g>
    <circle class="st16" cx="574.5" cy="223.8" r="104"/>
  </g>
  <path class="st79" d="M0,0"/>
  <path class="st79" d="M732.5,256.8" marker-end="url(#arrowhead)"/>
  <g class="st28">
    <g class="st28">
      <text class="st34" transform="translate(755.9 121.8)"><tspan x="0" y="0">KNOWN AD GENES</tspan></text>
    </g>
    <g class="st28">
      <text class="st34" transform="translate(765.5 136.8)"><tspan x="0" y="0">&amp; ANNOTATIONS</tspan></text>
    </g>
  </g>
  <g class="st28">
    <g class="st28">
      <text class="st35" transform="translate(765.6 165.8)"><tspan x="0" y="0">Link signals to genes</tspan></text>
    </g>
    <g class="st28">
      <text class="st35" transform="translate(782.7 180.8)"><tspan x="0" y="0">and functional</tspan></text>
    </g>
    <g class="st28">
      <text class="st35" transform="translate(790 195.8)"><tspan x="0" y="0">annotations</tspan></text>
    </g>
  </g>
  <g>
    <circle class="st57" cx="818.5" cy="266.8" r="60"/>
    <g class="st62">
      <g>
        <line class="st11" x1="751.3" y1="256.9" x2="804" y2="256.9"/>
        <path class="st1" d="M767.7,256.3l1.4.7-1.4.7"/>
        <path class="st1" d="M769.1,256.9" marker-end="url(#arr)"/>
        <path class="st1" d="M788.5,256.3l1.4.7-1.4.7"/>
        <path class="st1" d="M789.9,256.9" marker-end="url(#arr)"/>
        <rect class="st74" x="751.3" y="255.1" width="5.5" height="3.6" rx=".6" ry=".6"/>
        <rect class="st49" x="756.8" y="253.6" width="7.4" height="6.7" rx=".9" ry=".9"/>
        <rect class="st49" x="770.3" y="253.6" width="11.6" height="6.7" rx=".9" ry=".9"/>
        <rect class="st49" x="791.2" y="253.6" width="8.6" height="6.7" rx=".9" ry=".9"/>
        <rect class="st74" x="799.7" y="255.1" width="4.3" height="3.6" rx=".6" ry=".6"/>
        <line class="st11" x1="777.4" y1="275.3" x2="866.1" y2="275.3"/>
        <path class="st1" d="M792.8,276l-1.4-.7,1.4-.7"/>
        <path class="st1" d="M791.4,275.3" marker-end="url(#arr)"/>
        <path class="st1" d="M813.6,276l-1.4-.7,1.4-.7"/>
        <path class="st1" d="M812.2,275.3" marker-end="url(#arr)"/>
        <path class="st1" d="M835,276l-1.4-.7,1.4-.7"/>
        <path class="st1" d="M833.6,275.3" marker-end="url(#arr)"/>
        <path class="st1" d="M856.5,276l-1.4-.7,1.4-.7"/>
        <path class="st1" d="M855.1,275.3" marker-end="url(#arr)"/>
        <rect class="st68" x="777.4" y="273.5" width="4.3" height="3.6" rx=".6" ry=".6"/>
        <rect class="st65" x="781.6" y="271.9" width="6.7" height="6.7" rx=".9" ry=".9"/>
        <rect class="st65" x="798.7" y="271.9" width="10.4" height="6.7" rx=".9" ry=".9"/>
        <rect class="st65" x="819.6" y="271.9" width="12.8" height="6.7" rx=".9" ry=".9"/>
        <rect class="st65" x="841" y="271.9" width="9.2" height="6.7" rx=".9" ry=".9"/>
        <rect class="st65" x="856.3" y="271.9" width="6.1" height="6.7" rx=".9" ry=".9"/>
        <rect class="st68" x="862.4" y="273.5" width="3.6" height="3.6" rx=".6" ry=".6"/>
        <line class="st11" x1="814.1" y1="293.7" x2="896.7" y2="293.7"/>
        <path class="st1" d="M829.9,293l1.4.7-1.4.7"/>
        <path class="st1" d="M831.2,293.7" marker-end="url(#arr)"/>
        <path class="st1" d="M848.8,293l1.4.7-1.4.7"/>
        <path class="st1" d="M850.2,293.7" marker-end="url(#arr)"/>
        <path class="st1" d="M870.9,293l1.4.7-1.4.7"/>
        <path class="st1" d="M872.2,293.7" marker-end="url(#arr)"/>
        <rect class="st41" x="814.1" y="291.8" width="4.9" height="3.6" rx=".6" ry=".6"/>
        <rect class="st43" x="819" y="290.3" width="8" height="6.7" rx=".9" ry=".9"/>
        <rect class="st43" x="833.6" y="290.3" width="11" height="6.7" rx=".9" ry=".9"/>
        <rect class="st43" x="852.6" y="290.3" width="14.1" height="6.7" rx=".9" ry=".9"/>
        <rect class="st43" x="874.6" y="290.3" width="9.2" height="6.7" rx=".9" ry=".9"/>
        <rect class="st41" x="883.8" y="291.8" width="4.9" height="3.6" rx=".6" ry=".6"/>
      </g>
    </g>
    <circle class="st2" cx="818.5" cy="266.8" r="60"/>
  </g>
  <path class="st2" d="M0,0"/>
  <path class="st79" d="M927.5,256.8" marker-end="url(#arrowhead)"/>
  <g class="st28">
    <g class="st28">
      <text class="st34" transform="translate(972.8 121.9)"><tspan x="0" y="0">BIOLOGICAL</tspan></text>
    </g>
    <g class="st28">
      <text class="st34" transform="translate(989.1 136.9)"><tspan x="0" y="0">INSIGHT</tspan></text>
    </g>
  </g>
  <g class="st28">
    <g class="st28">
      <text class="st35" transform="translate(965.3 165.9)"><tspan x="0" y="0">Prioritize genes and</tspan></text>
    </g>
    <g class="st28">
      <text class="st35" transform="translate(975.1 180.9)"><tspan x="0" y="0">mechanisms for</tspan></text>
    </g>
    <g class="st28">
      <text class="st35" transform="translate(966.4 195.9)"><tspan x="0" y="0">Alzheimer’s disease</tspan></text>
    </g>
  </g>
  <g>
    <circle class="st45" cx="1015.5" cy="266.8" r="60"/>
    <g class="st63">
      <g id="Light_bulb_icon">
        <path class="st54" d="M1028.4,273.9c1.8-2.6,3.6-5.3,3.6-10.9,0-8.8-7.2-16.1-16-16.2-4.4,0-8.5,1.7-11.6,4.9-3.1,3.2-4.8,7.7-4.7,12.2.2,4.9,1.9,7.5,3.6,10,1.8,2.7,3.7,5.5,4,11.7,0,1.4,1.2,2.4,2.5,2.4h12.1c1.4,0,2.5-1.1,2.5-2.4.3-6.2,2.1-9,4-11.7ZM1022.5,285.5c0,.3-.3.6-.6.6h-12.1c-.3,0-.6-.2-.6-.6-.3-6.8-2.4-9.9-4.3-12.7-1.7-2.5-3.1-4.6-3.3-8.9-.1-4,1.4-7.9,4.1-10.7,2.7-2.8,6.3-4.3,10.1-4.3s0,0,.1,0c7.8,0,14.1,6.4,14.1,14.2s-1.5,7.2-3.3,9.8c-1.9,2.8-4,5.9-4.3,12.7Z"/>
        <path class="st54" d="M1018,252.5c-.5-.1-1,.2-1.2.8-.1.5.2,1,.8,1.2,3.5.7,6.2,3.4,6.9,6.9,0,.5.5.8,1,.8s.1,0,.2,0c.5-.1.9-.6.8-1.2-.9-4.2-4.2-7.5-8.4-8.4Z"/>
        <path class="st54" d="M1018.9,299.2c0-.5-.4-1-1-1h-4.3c-.5,0-1,.4-1,1s.4,1,1,1h4.3c.5,0,1-.4,1-1Z"/>
        <path class="st54" d="M1024,290.4c0-.5-.5-.9-1.1-.9l-14.4,1.3c-.5,0-.9.5-.9,1.1,0,.5.5.9,1,.9s0,0,0,0l14.4-1.3c.5,0,.9-.5.9-1.1Z"/>
        <path class="st54" d="M1023.5,294.4c0-.5-.5-.9-1.1-.9l-13.4,1.2c-.5,0-.9.5-.9,1.1,0,.5.5.9,1,.9s0,0,0,0l13.4-1.2c.5,0,.9-.5.9-1.1Z"/>
        <path class="st54" d="M1014.8,234.6v7.8c0,.5.4,1,1,1s1-.4,1-1v-7.8c0-.5-.4-1-1-1s-1,.4-1,1Z"/>
        <path class="st54" d="M1033.3,240.7l-5,6c-.3.4-.3,1,.1,1.4.2.2.4.2.6.2s.6-.1.8-.3l5-6c.3-.4.3-1-.1-1.4-.4-.3-1-.3-1.4.1Z"/>
        <path class="st54" d="M1043.6,257.2l-7.7,1.4c-.5,0-.9.6-.8,1.1,0,.5.5.8,1,.8s.1,0,.2,0l7.7-1.4c.5,0,.9-.6.8-1.1,0-.5-.6-.9-1.1-.8Z"/>
        <path class="st54" d="M1040.4,278.2c.3,0,.7-.2.8-.5.3-.5.1-1.1-.4-1.3l-6.8-3.9c-.5-.3-1.1-.1-1.3.4-.3.5-.1,1.1.4,1.3l6.8,3.9c.2,0,.3.1.5.1Z"/>
        <path class="st54" d="M996.9,240.5c-.4.3-.5,1-.1,1.4l5,6c.2.2.5.3.8.3s.4,0,.6-.2c.4-.3.5-1,.1-1.4l-5-6c-.3-.4-1-.5-1.4-.1Z"/>
        <path class="st54" d="M986.9,257.9c0,.5.3,1,.8,1.1l7.7,1.4c0,0,.1,0,.2,0,.5,0,.9-.3,1-.8,0-.5-.3-1-.8-1.1l-7.7-1.4c-.5,0-1,.3-1.1.8Z"/>
        <path class="st54" d="M991.2,278.2c.2,0,.3,0,.5-.1l6.8-3.9c.5-.3.6-.9.4-1.3-.3-.5-.9-.6-1.3-.4l-6.8,3.9c-.5.3-.6.9-.4,1.3.2.3.5.5.8.5Z"/>
      </g>
    </g>
    <circle class="st25" cx="1015.5" cy="266.8" r="60"/>
  </g>
  <g id="Layer_9" class="st76">
    <g>
      <g>
        <path class="st73" d="M606.2,312.4c.9-2,1.8-4,2.5-6.1,2.5-7,3.8-14,4.2-20.9,0-2.6,0-5.2,0-7.8-.4-9.2-2.2-18.3-4.7-27.1-.8-2.8-1.6-5.5-2.5-8.2h-3.8c-3.7.1-7.4.2-10.6.2h-5.4c2.4,7,4.6,13.8,6.1,20.4.7,3,1.2,5.9,1.6,8.9,1,7.8.8,15.4-1.1,23-.5,2.1-1.2,4.2-2.1,6.3-.9,2.2-2,4.5-3.2,6.7-1.7,3-.8,6.8,2,8.7l4.6,3.2c3.2,2.2,7.6,1.2,9.6-2.2,1.1-1.9,2-3.7,2.9-5.6v.5Z"/>
        <path class="st73" d="M600.5,141.7c4.3-5.6,9.1-9.8,14.4-13,2-1.3,4.2-2.4,6.3-3.4,7.8-3.5,16.3-5.3,25.4-6.3,3.3-.3,6.7-.6,10.2-.8,3.6-.2,7.2-.3,11-.4,2.2,0,4.5,0,6.7,0,4.3,0,8.7,0,13.1-.3h2.5c3.4,0,6.9-.3,10.3-.7,9.1-.8,18.3-2.3,27-5.2,2.4-.8,4.9-1.7,7.2-2.8,6.4-2.8,12.4-6.5,18.1-11.3,1.6-1.4,3.2-2.9,4.8-4.5,1.4-1.5,2.8-3,4.2-4.7,2.5-3,1.8-7.5-1.4-9.7l-4.6-3.2c-2.8-2-6.7-1.4-8.9,1.2-1.7,2-3.4,3.8-5.2,5.4-1.7,1.5-3.4,2.9-5.2,4.2-6.4,4.6-13.5,7.4-21.1,9.2-2.9.7-5.8,1.2-8.9,1.7-8.1,1.1-16.6,1.5-25.6,1.6-2.1,0-4.2,0-6.4,0h-.4c-3.5,0-7,0-10.6.2h-2.5c-9.2.3-18.6,1-27.8,2.8-2.8.6-5.6,1.2-8.4,2-7.3,2.1-14.4,5-21,9.3-1.9,1.2-3.7,2.5-5.6,3.9-4.7,3.7-9.1,8.1-13.2,13.5-.2.3-.4.6-.6.8-.6.8-1.3,1.7-1.9,2.6-.6.9-1.2,1.8-1.8,2.7-3.8,6-6.6,12-8.5,18-.7,2.2-1.3,4.4-1.7,6.6-1.6,7.7-1.9,15.4-1.2,23,.2,2.9.6,5.7,1.1,8.5,1.3,7.8,3.5,15.5,5.9,23h1.2c4.3-.2,8.5-.2,12.6-.3h5.9c-.7-2.1-1.5-4.2-2.1-6.3-1.1-3.3-2.1-6.6-2.9-9.8-2.3-8.9-3.7-17.5-3.2-26,.2-2.4.5-4.8.9-7.1,1.2-6.2,3.6-12.4,7.5-18.7.5-.9,1.1-1.8,1.8-2.7.6-.9,1.2-1.8,1.9-2.6,0-.2.3-.4.4-.6l.3.2Z"/>
      </g>
      <g>
        <path class="st78" d="M659.2,25.1c-.9,2-1.8,4-2.5,6.1-2.5,7-3.8,14-4.2,21,0,2.6,0,5.2,0,7.8.4,9.2,2.2,18.3,4.7,27.1.8,2.8,1.6,5.5,2.5,8.2h3.8c3.6,0,7.3-.2,10.6-.2h5.4c-2.4-7-4.6-13.8-6.1-20.4-.7-3-1.2-5.9-1.6-8.9-1-7.8-.8-15.4,1.1-23,.5-2.1,1.2-4.2,2.1-6.3.9-2.3,2-4.5,3.2-6.8,1.7-3,.8-6.8-2-8.7l-4.6-3.2c-3.2-2.2-7.6-1.2-9.6,2.2-1.1,1.9-2,3.7-2.9,5.6v-.5Z"/>
        <path class="st78" d="M684.5,200.6c1.6-2.5,3-5.1,4.3-7.6,1.7-3.5,3.1-7,4.2-10.4.7-2.2,1.3-4.4,1.7-6.6,1.6-7.7,1.9-15.4,1.2-23-.2-2.9-.6-5.7-1.1-8.5-1.3-7.8-3.5-15.5-5.9-23h-1.2c-4.3.2-8.5.3-12.6.3,0,0-3.8,0-6,0,.7,2.1,1.5,4.2,2.1,6.3,1.1,3.3,2.1,6.6,2.9,9.8,2.3,8.9,3.7,17.5,3.2,26-.2,2.4-.5,4.8-.9,7.1-.8,4-2,8-3.8,11.9-1,2.2-2.2,4.5-3.6,6.8-.5.9-1.1,1.8-1.8,2.7-.6.9-1.2,1.8-1.9,2.6-4.5,5.8-9.4,10.3-14.8,13.6-2,1.3-4.2,2.4-6.3,3.4-7.8,3.5-16.3,5.3-25.4,6.3-3.3.3-6.7.6-10.2.8-3.6.2-7.2.3-11,.4-2.2,0-4.5,0-6.7.1-4.3,0-8.7.1-13.1.3h-2.5c-3.4.1-6.9.3-10.3.7-9.1.8-18.3,2.3-27,5.2-2.4.8-4.9,1.7-7.2,2.8-6.3,2.8-12.4,6.5-18.1,11.3-1.6,1.4-3.2,2.9-4.8,4.5-1.4,1.5-2.8,3-4.2,4.7-2.5,3-1.8,7.5,1.4,9.7l4.6,3.2c2.8,2,6.7,1.4,8.9-1.2,1.7-2,3.4-3.8,5.2-5.4,1.7-1.5,3.4-2.9,5.2-4.2,6.4-4.6,13.5-7.4,21.1-9.2,2.9-.7,5.8-1.2,8.9-1.7,8.1-1.1,16.6-1.5,25.6-1.6,2.1,0,4.2,0,6.4-.1h.4c3.5,0,7-.1,10.6-.2h2.5c9.2-.3,18.6-1,27.8-2.8,2.8-.6,5.6-1.2,8.4-2,7.3-2.1,14.4-5,21-9.3,1.9-1.2,3.7-2.5,5.6-3.9,4.9-3.9,9.6-8.6,13.8-14.3.6-.8,1.3-1.7,1.9-2.6.6-.9,1.2-1.8,1.8-2.7l-.3-.3Z"/>
      </g>
      <g>
        <path class="st59" d="M663.4,193.7c.6-.8,1.2-1.6,1.8-2.5s1.2-1.7,1.7-2.6h0c0-.1-64.9-44.9-64.9-44.9h0c-.6.8-1.2,1.6-1.8,2.5s-1.2,1.7-1.7,2.6h0c0,.1,64.9,44.9,64.9,44.9h0Z"/>
        <path class="st59" d="M674.9,163.9v-1.5l-51.4-35.5c-.5.2-.9.4-1.4.6-1.8.8-3.5,1.7-5.1,2.7l57.2,39.4c.3-1.9.6-3.8.7-5.8h0Z"/>
        <path class="st59" d="M669,129c-.3-1-.7-2-1-3.1l-7.8-5.4c-1.1,0-2.2,0-3.2,0-2.6,0-4.9.3-7.1.5l21.3,14.7c-.6-2.1-1.3-4.4-2.1-6.8h-.1Z"/>
        <path class="st59" d="M608.5,216.7c2.6-.1,4.9-.3,7.1-.5l-21.3-14.7c.6,2.1,1.3,4.4,2.1,6.8.3,1,.7,2,1,3.1l7.8,5.4c1.1,0,2.2,0,3.2-.1h.1Z"/>
        <path class="st59" d="M643.2,209.9c1.8-.8,3.5-1.7,5.1-2.7l-57.2-39.4c-.3,1.9-.6,3.8-.7,5.8v1.5l51.4,35.5c.5-.2.9-.4,1.4-.6h0Z"/>
        <path class="st59" d="M675.1,43.9l59.2,40.9c.2-.2.5-.3.8-.5,1.6-1.1,3.1-2.3,4.5-3.6l-62.5-43.1c-.7,1.8-1.3,3.7-1.8,5.5,0,.3,0,.6-.2.9h0Z"/>
        <path class="st59" d="M675.8,73.7c.2.9.4,1.8.6,2.6l27.1,18.7c.9,0,1.8-.2,2.7-.3,2.2-.3,4.4-.7,6.4-1.1l-38.1-26.3c.3,2.1.7,4.2,1.2,6.4h0Z"/>
        <path class="st59" d="M589.6,263.7c-.2-.9-.4-1.8-.6-2.6l-27.1-18.7c-.9.1-1.8.2-2.7.3-2.2.3-4.4.7-6.4,1.1l38.1,26.3c-.3-2.1-.7-4.2-1.2-6.4h0Z"/>
        <path class="st59" d="M590,294.5c0-.3,0-.6.2-.9l-59.2-40.9c-.2.2-.5.3-.8.5-1.6,1.1-3.1,2.3-4.5,3.6l62.5,43.1c.7-1.8,1.3-3.7,1.8-5.5h0Z"/>
      </g>
    </g>
  </g>
  <g id="Layer_8" class="st76">
    <g>
      <path d="M1041.6,308.6c5.4-9.2,4.2-19.4.5-27,4.2-4.5,4.3-12,.5-17.3-9.9-13.4-29.4-5-32.8,9.2-6.2,2.2-11.9,6.5-12.8,16.3-11.2,4.6-14.4,18.3-10.4,28.6-7.5,6-10.3,18-3.8,26.7-3.3,10.3-.7,20.6,7.1,27.6-1.7,14.3,6.8,21.1,16.1,22.1,14.5,27,50.9,4.8,35.4-17.8,5.2-5.4,6.2-14.9,2.2-21.2,3.4-9.6,2.9-19.6-.4-26.8,4.3-5.9,4.3-14.8-1.5-20.4h0ZM1033.8,378.2c-5.1,2.6-8.8,2.6-9.6,2.9-.7.3-1.1.8-1.2,1.6-.6,4.8,12.3-.4,15.7-3.1,12.2,19.1-18.6,35.4-29.5,13.3-1.1-2.5-2.7-1.2-5.1-2.1-10.1-2.6-10.9-11.3-10.6-15.9.8-9.5,6-9.4,5.9-11.3-1.1-6.3-8.2,3-8.4,5-5.6-5.8-6.7-13.4-5.2-20.1,8.3,7.8,8.3.8,6.7.3-5.5-3.1-10.3-8.9-9.6-15.8.7-8.4,6.6-13.2,12.5-14.9,1.8-.8,1.2-3.3-.5-3.6-1.2,0-2.1.3-5.1,1.8-4.7-14.1,5.5-27.3,17.7-23,.9,0,1.6-.6,1.8-1.6.6-3.3-7.3-3.1-8.4-2.9,1.3-9.5,10-12.6,16.7-12.9,2.2,0,2.5-2.9.7-3.6-1.1-.3-1.5-.1-4.1.2,8.2-19.3,32.8-10.5,26.4,5-2.5,4.6-6.4,3.9-7.4,4.8-2.6,4.4,3.6,3.3,5.9,1.7,3.4,7.4,3.4,15.5-.4,22.2-5.4-4.3-6.2.7-4.4,1.7,6,3.2,9.4,8.1,7.7,14.7-2,8.4-10.1,8.5-11.4,9.1-.8.5-1.1,1.3-.9,2.3.7,2.8,7.5.2,10.5-2.1,1.3,3.5,3.2,10.9.5,20.6-9.9-8.4-9.8-.6-7.3-.3,12,4.7,11.8,20.4.3,26.1h0Z"/>
      <path d="M1028.5,362.6c-5-.7-9,0-12,1.4-1.8-9-9.3-15.2-14.7-17.4-3.3-.2-2.3,3.5-1,3.6,6.8,3.3,11.5,9.5,12.3,15.9-3.9,3-6.2,7.7-7,10.5-.2.7,0,.4-.2.9.5,4,4.1,1.3,3.8.1.9-3.5,4-7.8,6.2-9.1,4-2.7,7.5-2.7,12.7-2.3,2.1-.5,1.7-3.4-.2-3.7h0Z"/>
      <path d="M1012.5,329.1c-1.6,13.3,11.8,20.3,10.6,13.8-.3-.6-.7-.9-1.3-1.2-5.9-3.3-6.3-10-5.2-14.7,2.5-1.4,15.6-10.5,10.4-12.4-.6-.2-1.2,0-1.8.3-5.1,5.6-9.1,8.6-15.5,11.3-5.6,2.4-11.1,2.6-12.1,2.5-.7-.1-1.9.6-2,1.6-.9,4.9,13.9.3,16.8-1.2h.1Z"/>
      <path d="M1006.6,312.3c3.3,1.9,4.3-8.4,16.8-12.1,3.6-1.1,7.5-1.1,11.6-.2.7,0,1.4-.2,1.8-.8,2.5-4.6-9.7-3.5-11.2-3.2-.4-6.1-4.3-11-8.3-12.4-1.6-.3-2.8,1.6-1.8,2.9,1,1.1,1.3.6,2.9,2.1,2.9,2.8,3.3,5.2,3.5,8.2-8.2,2.1-19.4,13.7-15.3,15.5h0Z"/>
      <path d="M1095.4,346.7c-6.9,3.2-12.8,9.7-14.4,17.3-4.5-2.5-17.7-2.6-12.5,2.2,1.7.4,3.9-.4,5.6,0,2.5.2,4.7.9,6.7,2,3.9,2.2,6.3,7.1,6.9,9.5.5,3.1,4.3,2.1,3.7-.5-.6-3.2-3.9-8.9-7.1-11.1,1.2-8.4,7.6-13.7,12.7-16.1,2-1.4.2-4.1-1.8-3.3h.2Z"/>
      <path d="M1099.8,328.7c-19.3-.6-27.4-15.3-28.7-14.3-7.2,1.2,8.2,11.7,9.8,12.5,1.2,5.4.2,10.9-4.2,14-.8.7-2,.9-2.4,1.9-.9,7.1,12.5-1.7,10.6-13.8,4.8,2.2,16.5,5.2,16.8,1.9.3-1.2-.7-2.3-1.9-2.3h0Z"/>
      <path d="M1073,299.9c6.4,1.5,11.9,6.3,14.9,11,1.6,3.2,4.8.9,3.6-1.2-3.2-5.6-10-11.2-16-12.9.2-3.7,1.5-7.1,5-9.3,3.1-1.2,1.6-4.3-.6-3.9-4.7,1.8-7.8,7.3-8.1,12.3-16.6-1.7-11,4.9-9.3,4,3.6-.8,7.2-.8,10.4,0h0Z"/>
      <path d="M1118,331.3c-1-6.4-4.3-10.5-7.3-12.8,4.3-10.9.4-24.2-10.4-28.6-.8-10.3-7.5-14.4-12.8-16.3-3.6-13-17-19.7-28.3-13.5-7.8,5.1-9.5,15.5-4,21.7-4.5,9.1-4.2,19.1.5,27-6.2,6.1-5.5,15-1.5,20.4-3.9,8.6-3.3,18.9-.4,26.8-4.1,6.5-2.9,15.9,2.2,21.2-15.6,23.7,21.9,44.2,35.4,17.8,9.9-1.1,17.7-8.4,16.1-22.1,8.8-7.9,9.9-18.7,7.1-27.6,3-4.1,4.2-8.9,3.4-13.8v-.2ZM1112.2,354.2c0,5.5-2,10.3-5.8,14.3-4.8-10.8-10.3-6.7-7.7-3.8,1.1.7,2.5,1.8,3.1,3,1.3,2,1.8,4.3,2,6,.6,4.9-.2,13.7-9.4,16.7-4.2,1.4-5.2,0-6.2,2.4-11.6,22.8-41.6,4.8-29.5-13.3,4.8,3.6,14.8,6.7,15.5,4.2.6-1,0-2.3-1.1-2.6-6.4-.9-15.4-4.1-17.5-12.3-2.2-8.6,2.6-14.5,8.7-16.8,2-1,1-3.6-.8-3.6s-4.1,1.4-6.8,4c-2.8-9.7-.9-17.1.5-20.6,4,3.1,12.8,5.3,10.1,0-.5-.5-1.2-.5-1.3-.5-5.7-.7-9.8-4.3-10.7-9.6-1.4-7.2,3.3-11.6,8-14.1,1.6-1.2.5-3.4-1.1-3.4-1.2.2-1.3.4-3.4,1.8-4.2-7.4-3.3-15.7-.4-22.2,7.6,3.9,7.1-1.1,5.8-1.8-3.9-1.2-5.7-1.8-7.3-4.8-6.1-16.7,19.2-23.1,26.5-4.9-7.5-1.7-5.6,3.6-3.4,3.4,8.5.4,15.4,4.5,16.6,12.9-11.4-.7-8.7,4.8-6.5,4.5,13.8-4.5,21.9,11.4,17.5,23-8.2-4.7-7.4,1.6-5.3,1.8,6.6,2,11.4,7.3,12.1,14.6.9,8.1-5.1,13.6-9.7,16.1-1.6,1.2-.4,3.6,1.3,3.3,1.2-.3,2.4-1.1,5.5-3.7.3,1.5.6,3.5.6,5.8v.2Z"/>
    </g>
  </g>
  <g id="Layer_7" class="st76">
    <path class="st46" d="M923.3,285c-2.7-9.5-7.5-16.6-9.6-19.4-5.6-17.5-15.2-31.6-28.6-42-10.3-8-22.6-13.8-37.6-17.7-7.8-13.2-22.6-18-33.5-18s-5.8.3-8.3,1c-5.9-5.2-14.6-9.1-25.5-11.6-8-1.8-17.2-2.8-26.4-2.8s-22,1.4-31.3,4c-9.6,2.7-17.2,6.5-22.6,11.3-13,2.6-26.3,8.2-37.6,15.8-12.7,8.6-22.3,19.3-27.6,31.1-14,10.6-22.5,25.4-23.7,41.8-.8,10.1,1.1,20.4,5.4,30.5,3.3,7.8,8.8,12.9,12.8,15.8-.7,6.5.6,15.5,7.8,24.5,10.6,13.1,29.6,17.7,35.3,18.8,5.7,1.1,6.5,1.7,6.6,3,0,3.7-4.3,17.9-6.5,24.8-2.8,8.8-3.6,11.7-3.6,14,0,6.4,5.6,13.6,13.7,13.6s5.8-.6,9.6-3.6c2.4-1.9,5-4.8,8.2-8.4,7.2-8,17-19,28.4-23.3,11.1-4.2,19.8-10,25.9-17.1,1.8-2.1,3.1-4,4.2-5.8,7.3,3.1,19.7,7.9,34.2,7.9s18.2-2,26.4-5.9c8.3-4,16-10.1,22.8-18.1,4.9,1.2,12.9,2.8,22.2,2.8,19.7,0,36.2-7.1,47.8-20.4,15-17.4,14.2-34.8,11-46.3v-.3ZM793.1,360.3c-11.1,0-20.9-3.4-27.5-6.2-12-7.1-17.5-9.8-17.7-10-2.7-1.3-5.9-.3-7.3,2.4-1.3,2.7-.3,5.9,2.4,7.3,0,0,1.9,1,5.8,3.2-2,4.1-8,12.8-24.6,19.2-14.3,5.4-25.7,18.2-33.3,26.7-2.8,3.1-5.1,5.7-6.7,7-.8.6-1.4.9-1.7.9s-.9-.6-1.1-1c.3-1.6,1.8-6.3,3-10.2,5.1-16.4,7.5-25.1,6.9-30h.5c11.3,0,17.1-5.1,19.8-8.8,4.5-6.1,5-14.5,1.2-20.4-11.1-17.2-41.8-16.9-43.1-16.9-3,0-5.4,2.5-5.3,5.5,0,3,2.5,5.4,5.5,5.3,7.2-.1,27.3,1.8,33.8,11.9,1.2,1.8,1.2,5.4-.9,8.1-4.4,6-15.1,4.6-22.3,2.6h-.2c-4.5-1-24.3-3.9-33.7-15.6-7.5-9.3-4.7-17.1-4.5-17.8.3-.6.4-1.2.5-1.8.7-2.7,5.1-11.6,13.7-15.2,9.3-3.9,20.9-.7,34.3,9.5,11.2,8.4,27,14.4,42.3,15.9,2.8.3,5.6.4,8.3.4,8,0,15.8-1.2,23.1-3.7,10.5,15,27.6,19.9,34.7,19.9s5.4-2.4,5.4-5.4-2.4-5.4-5.4-5.4-16.2-3.3-24.4-13.4c4.4-2.3,8.5-5,12.5-8.2,2.3-1.9,2.7-5.3.8-7.6-1.9-2.3-5.3-2.7-7.6-.8-24.6,20.1-59.7,16.7-84-1.2-.3-.7-.8-1.3-1.5-1.8-.4-.3-9.7-8.1-9.5-27.4.2-21.2,6.3-27.3,10.1-35.8,7.9-17.7,3.5-29.9-3.3-35.5-.4-.3-.8-.6-1.2-.9,24.5-8.5,37.4-4,39.1,23.4.3,5-.6,19.4,7.7,30.9-17.5,6.9-23.6,23.8-24.3,32.9-.2,3,2,5.6,5,5.8h.4c2.8,0,5.2-2.2,5.4-5,0,0,.5-5.5,3.6-11.4,4-7.4,10.3-12,18.9-13.7,7.4,4.7,17,7.1,28.9,7.1h3.5c.3.9.6,1.8,1,2.8,7.5,19.7,21.3,33.4,40,39.9-2.8,10.2,2.1,18.6,10.9,24.5-10.8,12-23.7,18-38.2,18h.3ZM634.7,313.1c-2.4-2-5-5-6.8-9.2-3.6-8.2-5-16.5-4.4-24.5.8-9.7,4.6-18.5,11.2-25.8,0,7.4,1.3,14.3,2.7,19.7,2.2,8.1,4.9,13.4,5,13.6,1,1.9,2.8,2.9,4.8,2.9s1.7-.2,2.5-.6c2.7-1.4,3.7-4.6,2.4-7.3,0,0-2.3-4.6-4.2-11.5-2.3-8.5-4-21.1.5-32.9,4.6-7.9,11.2-14.6,18.7-20,.4-.2.8-.4,1.2-.7,6.5-4.6,13.2-5.6,17.1-2.4,3.7,3,5.7,10.5.2,22.7-3.4,7.5-10.9,16.2-11,40.1,0,7.7,1.1,14,2.8,19.1-10.9-3.6-19.3-2.3-25.2.2-8.6,3.6-14.4,10.6-17.6,16.6h0ZM830.6,321.6c1.4-6.3,3.9-6.9,17.8-4.3,11.9,2.2,28.1,5.1,40.9-7.7,2.1-2.1,2.1-5.5,0-7.6s-5.5-2.1-7.6,0c-8.8,8.8-20.3,6.7-31.3,4.7-6.3-1.1-12.2-2.2-17.4-1.2-2.5.5-4.7,1.5-6.6,2.9h0c-16.9-5-28.9-16.4-35.7-33.9-5.2-13.5-5.2-25.6-5.2-25.7,0-3-2.4-5.4-5.4-5.4h0c-3,0-5.4,2.4-5.4,5.4s0,6.9,1.8,15.9c-12.2,0-21.2-2.6-27-7.9-9.2-8.6-8.1-22.5-8.5-28.5-1-16.4-6.2-27.6-15.4-33.2-1.7-1-3.4-1.8-5.1-2.4,8.9-3.3,20.7-5.2,33.3-5.2s16.5.9,23.6,2.5c7.4,1.7,13.4,4.1,17.7,7-3,2.7-5.1,5.7-6.5,8.8-15-7.4-33-5.2-33.8-5-3,.4-5,3.1-4.7,6.1.4,3,3.1,5.1,6.1,4.7.2,0,17.8-2.2,30.1,5.4,0,5.5,1.2,10.5,2.7,14,1.2,2.7,4.3,4,7.1,2.8,2.7-1.2,4-4.3,2.9-7.1-.7-1.7-6.6-16.9,7.4-24.2h0c1.8-1,4.6-1.5,7.7-1.5,8,0,18.9,3.6,23.7,13.8,11,28.2,29.7,40.7,30.4,41.2,2.5,1.6,5.9.9,7.5-1.6s.9-5.8-1.6-7.5c0,0-12.1-8.1-21.6-25.9,22.6,7.7,37.9,21.4,46.4,41.4.2,6.9-2.1,11.9-8.5,14.9-8.2,3.9-21.8,2.8-32.1-6.8-11.2-10.4-25.7-32.6-25.8-32.8-1.6-2.5-5-3.2-7.5-1.6-2.5,1.6-3.2,5-1.6,7.5.5.7,8.7,13.4,17.9,24.5-6.4,3.4-12.6,2.9-18.9-1.4-5.7-3.9-9.3-9.4-9.4-9.5-1.6-2.5-4.9-3.3-7.4-1.7-2.5,1.6-3.3,4.9-1.7,7.5.4.6,9.1,14.3,23.2,17.5,7.7,1.7,14.9,0,21.6-4.1,9.4,9.5,20.6,14,31.6,14s10.2-1,14.7-3.2c4.9-2.3,8.6-5.7,11.2-9.8,5.1,8.2,13.1,27-3.4,46.2-9.2,10.7-22,16.1-38.2,16.1s-21.6-3.1-22.9-3.5c-1.3-.6-12.8-5.9-11-14.1v-.5Z"/>
  </g>
  <g id="Layer_6" class="st76">
    <g class="st31">
      <text class="st30" transform="translate(145.4 267.7)"><tspan x="0" y="0">DGKZ</tspan></text>
    </g>
    <g class="st31">
      <text class="st27" transform="translate(145.4 279.7)"><tspan x="0" y="0">+ strand</tspan></text>
    </g>
    <line class="st12" x1="145.4" y1="292.7" x2="317.4" y2="292.7"/>
    <path class="st1" d="M198.9,290.4l4.5,2.3-4.5,2.3"/>
    <path class="st1" d="M203.4,292.7" marker-end="url(#arr)"/>
    <path class="st1" d="M266.9,290.4l4.5,2.3-4.5,2.3"/>
    <path class="st1" d="M271.4,292.7" marker-end="url(#arr)"/>
    <rect class="st74" x="145.4" y="286.7" width="18" height="12" rx="2" ry="2"/>
    <rect class="st49" x="163.4" y="281.7" width="24" height="22" rx="3" ry="3"/>
    <rect class="st49" x="207.4" y="281.7" width="38" height="22" rx="3" ry="3"/>
    <rect class="st49" x="275.4" y="281.7" width="28" height="22" rx="3" ry="3"/>
    <rect class="st74" x="303.4" y="286.7" width="14" height="12" rx="2" ry="2"/>
    <g class="st31">
      <text class="st30" transform="translate(327.4 327.7)"><tspan x="0" y="0">ARNTL2</tspan></text>
    </g>
    <g class="st31">
      <text class="st27" transform="translate(327.4 339.7)"><tspan x="0" y="0">− strand</tspan></text>
    </g>
    <line class="st12" x1="327.4" y1="352.7" x2="617.4" y2="352.7"/>
    <path class="st1" d="M377.9,354.9l-4.5-2.3,4.5-2.3"/>
    <path class="st1" d="M373.4,352.7" marker-end="url(#arr)"/>
    <path class="st1" d="M445.9,354.9l-4.5-2.3,4.5-2.3"/>
    <path class="st1" d="M441.4,352.7" marker-end="url(#arr)"/>
    <path class="st1" d="M515.9,354.9l-4.5-2.3,4.5-2.3"/>
    <path class="st1" d="M511.4,352.7" marker-end="url(#arr)"/>
    <path class="st1" d="M585.9,354.9l-4.5-2.3,4.5-2.3"/>
    <path class="st1" d="M581.4,352.7" marker-end="url(#arr)"/>
    <rect class="st68" x="327.4" y="346.7" width="14" height="12" rx="2" ry="2"/>
    <rect class="st65" x="341.4" y="341.7" width="22" height="22" rx="3" ry="3"/>
    <rect class="st65" x="397.4" y="341.7" width="34" height="22" rx="3" ry="3"/>
    <rect class="st65" x="465.4" y="341.7" width="42" height="22" rx="3" ry="3"/>
    <rect class="st65" x="535.4" y="341.7" width="30" height="22" rx="3" ry="3"/>
    <rect class="st65" x="585.4" y="341.7" width="20" height="22" rx="3" ry="3"/>
    <rect class="st68" x="605.4" y="346.7" width="12" height="12" rx="2" ry="2"/>
    <g class="st31">
      <text class="st30" transform="translate(447.4 387.7)"><tspan x="0" y="0">MAML2</tspan></text>
    </g>
    <g class="st31">
      <text class="st27" transform="translate(447.4 399.7)"><tspan x="0" y="0">+ strand</tspan></text>
    </g>
    <line class="st12" x1="447.4" y1="412.7" x2="717.4" y2="412.7"/>
    <path class="st1" d="M498.9,410.4l4.5,2.3-4.5,2.3"/>
    <path class="st1" d="M503.4,412.7" marker-end="url(#arr)"/>
    <path class="st1" d="M560.9,410.4l4.5,2.3-4.5,2.3"/>
    <path class="st1" d="M565.4,412.7" marker-end="url(#arr)"/>
    <path class="st1" d="M632.9,410.4l4.5,2.3-4.5,2.3"/>
    <path class="st1" d="M637.4,412.7" marker-end="url(#arr)"/>
    <rect class="st41" x="447.4" y="406.7" width="16" height="12" rx="2" ry="2"/>
    <rect class="st43" x="463.4" y="401.7" width="26" height="22" rx="3" ry="3"/>
    <rect class="st43" x="511.4" y="401.7" width="36" height="22" rx="3" ry="3"/>
    <rect class="st43" x="573.4" y="401.7" width="46" height="22" rx="3" ry="3"/>
    <rect class="st43" x="645.4" y="401.7" width="30" height="22" rx="3" ry="3"/>
    <rect class="st41" x="675.4" y="406.7" width="16" height="12" rx="2" ry="2"/>
  </g>
  <g id="Layer_5" class="st76">
    <g>
      <line class="st9" x1="347.6" y1="108.8" x2="347.6" y2="298.8"/>
      <line class="st10" x1="347.6" y1="298.8" x2="881.6" y2="298.8"/>
      <line class="st22" x1="881.6" y1="108.8" x2="881.6" y2="298.8"/>
      <g class="st28">
        <text class="st29" transform="translate(328.2 115.8)"><tspan x="0" y="0">10</tspan></text>
      </g>
      <line class="st9" x1="343.6" y1="112.8" x2="347.6" y2="112.8"/>
      <g class="st28">
        <text class="st29" transform="translate(334.9 153.8)"><tspan x="0" y="0">8</tspan></text>
      </g>
      <line class="st9" x1="343.6" y1="150.8" x2="347.6" y2="150.8"/>
      <g class="st28">
        <text class="st29" transform="translate(334.9 191.8)"><tspan x="0" y="0">6</tspan></text>
      </g>
      <line class="st9" x1="343.6" y1="188.8" x2="347.6" y2="188.8"/>
      <g class="st28">
        <text class="st29" transform="translate(334.9 229.8)"><tspan x="0" y="0">4</tspan></text>
      </g>
      <line class="st9" x1="343.6" y1="226.8" x2="347.6" y2="226.8"/>
      <g class="st28">
        <text class="st29" transform="translate(334.9 267.8)"><tspan x="0" y="0">2</tspan></text>
      </g>
      <line class="st9" x1="343.6" y1="264.8" x2="347.6" y2="264.8"/>
      <line class="st22" x1="881.6" y1="112.8" x2="885.6" y2="112.8"/>
      <line class="st22" x1="881.6" y1="202.8" x2="885.6" y2="202.8"/>
      <g class="st28">
        <text class="st29" transform="translate(939.6 142.1) rotate(90)"><tspan x="0" y="0">Recombination (cM/Mb)</tspan></text>
      </g>
      <line class="st14" x1="347.6" y1="159.8" x2="881.6" y2="159.8"/>
      <polyline class="st26" points="351.6 295.8 391.6 290.8 431.6 280.8 461.6 260.8 481.6 228.8 496.6 188.8 506.6 150.8 513.6 122.8 519.6 110.8 525.6 122.8 531.6 150.8 541.6 188.8 553.6 226.8 569.6 252.8 589.6 268.8 609.6 258.8 621.6 238.8 629.6 214.8 635.6 194.8 639.6 176.8 642.6 160.8 645.6 176.8 649.6 198.8 655.6 226.8 667.6 252.8 691.6 268.8 721.6 278.8 761.6 286.8 811.6 292.8 861.6 295.8 881.6 296.8"/>
      <circle class="st58" cx="359.6" cy="284.8" r="5"/>
      <circle class="st58" cx="375.6" cy="278.8" r="5"/>
      <circle class="st58" cx="391.6" cy="272.8" r="5"/>
      <circle class="st58" cx="407.6" cy="264.8" r="5"/>
      <circle class="st58" cx="423.6" cy="270.8" r="5"/>
      <circle class="st44" cx="439.6" cy="254.8" r="5"/>
      <circle class="st44" cx="453.6" cy="240.8" r="5"/>
      <circle class="st69" cx="465.6" cy="222.8" r="5.5"/>
      <circle class="st69" cx="476.6" cy="200.8" r="5.5"/>
      <circle class="st67" cx="487.6" cy="178.8" r="6"/>
      <circle class="st67" cx="497.6" cy="154.8" r="6"/>
      <circle class="st71" cx="506.6" cy="132.8" r="6.5" transform="translate(294.3 611.6) rotate(-80.8)"/>
      <circle class="st37" cx="515.6" cy="106.8" r="8.5"/>
      <g class="st28">
        <text class="st29" transform="translate(526.6 103.8)"><tspan x="0" y="0">rs4954756</tspan></text>
      </g>
      <circle class="st71" cx="525.6" cy="130.8" r="6.5"/>
      <circle class="st67" cx="535.6" cy="152.8" r="6"/>
      <circle class="st67" cx="546.6" cy="178.8" r="6"/>
      <circle class="st69" cx="558.6" cy="202.8" r="5.5"/>
      <circle class="st69" cx="571.6" cy="224.8" r="5.5"/>
      <circle class="st44" cx="585.6" cy="242.8" r="5"/>
      <circle class="st44" cx="600.6" cy="252.8" r="5"/>
      <circle class="st44" cx="613.6" cy="246.8" r="5"/>
      <circle class="st69" cx="624.6" cy="228.8" r="5.5"/>
      <circle class="st67" cx="634.6" cy="204.8" r="6"/>
      <circle class="st71" cx="642.6" cy="178.8" r="6.5"/>
      <circle class="st67" cx="650.6" cy="204.8" r="6"/>
      <circle class="st69" cx="659.6" cy="230.8" r="5.5"/>
      <circle class="st44" cx="670.6" cy="250.8" r="5"/>
      <circle class="st58" cx="685.6" cy="260.8" r="5"/>
      <circle class="st58" cx="705.6" cy="268.8" r="5"/>
      <circle class="st58" cx="729.6" cy="274.8" r="5"/>
      <circle class="st58" cx="757.6" cy="278.8" r="5"/>
      <circle class="st58" cx="789.6" cy="282.8" r="5"/>
      <circle class="st58" cx="825.6" cy="284.8" r="5"/>
      <circle class="st58" cx="863.6" cy="286.8" r="5"/>
    </g>
  </g>
  <g id="Layer_4" class="st76">
    <line class="st9" x1="4" y1="194.2" x2="4" y2="398.2"/>
    <line class="st17" x1="554" y1="194.2" x2="554" y2="398.2"/>
    <line class="st9" x1="4" y1="398.2" x2="554" y2="398.2"/>
    <line class="st9" y1="198.2" x2="4" y2="198.2"/>
    <line class="st9" y1="238.2" x2="4" y2="238.2"/>
    <line class="st9" y1="278.2" x2="4" y2="278.2"/>
    <line class="st9" y1="318.2" x2="4" y2="318.2"/>
    <line class="st9" y1="358.2" x2="4" y2="358.2"/>
    <line class="st17" x1="554" y1="198.2" x2="558" y2="198.2"/>
    <line class="st17" x1="554" y1="248.2" x2="558" y2="248.2"/>
    <line class="st17" x1="554" y1="298.2" x2="558" y2="298.2"/>
    <line class="st17" x1="554" y1="348.2" x2="558" y2="348.2"/>
    <line class="st17" x1="554" y1="398.2" x2="558" y2="398.2"/>
    <line class="st14" x1="4" y1="252.2" x2="554" y2="252.2"/>
    <polyline class="st20" points="8 394.2 28 392.2 48 386.2 68 374.2 88 354.2 103 322.2 113 284.2 120 242.2 126 208.2 130 202.2 134 212.2 138 234.2 144 264.2 152 292.2 160 322.2 168 342.2 180 356.2 192 364.2 203 368.2 213 362.2 220 346.2 226 322.2 231 292.2 235 262.2 238 236.2 241 218.2 244 212.2 247 218.2 250 236.2 254 264.2 258 292.2 264 322.2 273 344.2 284 358.2 296 366.2 310 370.2 324 366.2 338 360.2 348 352.2 356 340.2 362 322.2 366 302.2 370 282.2 374 262.2 377 246.2 379 234.2 381 246.2 383 264.2 386 286.2 390 310.2 396 332.2 404 348.2 414 358.2 428 364.2 448 370.2 468 374.2 493 382.2 518 388.2 548 392.2"/>
    <circle class="st58" cx="10" cy="384.2" r="2.5"/>
    <circle class="st58" cx="16" cy="378.2" r="2.5"/>
    <circle class="st58" cx="23" cy="390.2" r="2.5"/>
    <circle class="st58" cx="31" cy="382.2" r="2.5"/>
    <circle class="st58" cx="39" cy="374.2" r="2.5"/>
    <circle class="st58" cx="47" cy="380.2" r="2.5"/>
    <circle class="st58" cx="55" cy="370.2" r="2.5"/>
    <circle class="st58" cx="63" cy="374.2" r="2.5"/>
    <circle class="st58" cx="71" cy="364.2" r="2.5"/>
    <circle class="st58" cx="79" cy="370.2" r="2.5"/>
    <circle class="st58" cx="87" cy="360.2" r="2.5"/>
    <circle class="st44" cx="96" cy="352.2" r="2.5"/>
    <circle class="st44" cx="104" cy="342.2" r="2.5"/>
    <circle class="st44" cx="110" cy="334.2" r="2.5"/>
    <circle class="st44" cx="116" cy="322.2" r="2.5"/>
    <circle class="st69" cx="122" cy="312.2" r="3"/>
    <circle class="st69" cx="127" cy="298.2" r="3"/>
    <circle class="st69" cx="132" cy="284.2" r="3"/>
    <circle class="st67" cx="137" cy="274.2" r="3"/>
    <circle class="st67" cx="142" cy="262.2" r="3"/>
    <circle class="st67" cx="147" cy="248.2" r="3"/>
    <circle class="st71" cx="152" cy="234.2" r="3.5"/>
    <circle class="st71" cx="157" cy="220.2" r="3.5"/>
    <circle class="st47" cx="162" cy="200.2" r="5"/>
    <circle class="st71" cx="168" cy="218.2" r="3.5"/>
    <circle class="st71" cx="173" cy="230.2" r="3.5"/>
    <circle class="st67" cx="179" cy="246.2" r="3"/>
    <circle class="st67" cx="185" cy="260.2" r="3"/>
    <circle class="st67" cx="191" cy="274.2" r="3"/>
    <circle class="st69" cx="197" cy="288.2" r="3"/>
    <circle class="st69" cx="203" cy="300.2" r="3"/>
    <circle class="st69" cx="209" cy="312.2" r="3"/>
    <circle class="st44" cx="216" cy="326.2" r="2.5"/>
    <circle class="st44" cx="223" cy="336.2" r="2.5"/>
    <circle class="st44" cx="230" cy="344.2" r="2.5"/>
    <circle class="st44" cx="238" cy="352.2" r="2.5"/>
    <circle class="st69" cx="245" cy="340.2" r="3"/>
    <circle class="st67" cx="252" cy="322.2" r="3"/>
    <circle class="st71" cx="259" cy="308.2" r="3.5"/>
    <circle class="st71" cx="266" cy="294.2" r="3.5"/>
    <circle class="st67" cx="273" cy="310.2" r="3"/>
    <circle class="st69" cx="280" cy="326.2" r="3"/>
    <circle class="st44" cx="287" cy="340.2" r="2.5"/>
    <circle class="st58" cx="296" cy="348.2" r="2.5"/>
    <circle class="st58" cx="305" cy="354.2" r="2.5"/>
    <circle class="st58" cx="314" cy="362.2" r="2.5"/>
    <circle class="st58" cx="324" cy="356.2" r="2.5"/>
    <circle class="st58" cx="334" cy="366.2" r="2.5"/>
    <circle class="st58" cx="344" cy="362.2" r="2.5"/>
    <circle class="st58" cx="354" cy="370.2" r="2.5"/>
    <circle class="st58" cx="364" cy="364.2" r="2.5"/>
    <circle class="st58" cx="374" cy="374.2" r="2.5"/>
    <circle class="st58" cx="384" cy="370.2" r="2.5"/>
    <circle class="st58" cx="395" cy="376.2" r="2.5"/>
    <circle class="st58" cx="407" cy="380.2" r="2.5"/>
    <circle class="st58" cx="420" cy="372.2" r="2.5"/>
    <circle class="st58" cx="433" cy="382.2" r="2.5"/>
    <circle class="st58" cx="448" cy="378.2" r="2.5"/>
    <circle class="st58" cx="463" cy="384.2" r="2.5"/>
    <circle class="st58" cx="480" cy="380.2" r="2.5"/>
    <circle class="st58" cx="498" cy="386.2" r="2.5"/>
    <circle class="st58" cx="516" cy="382.2" r="2.5"/>
    <circle class="st58" cx="533" cy="388.2" r="2.5"/>
    <circle class="st58" cx="548" cy="384.2" r="2.5"/>
  </g>
  <g id="Layer_2" class="st76">
    <g>
      <line class="st24" x1="182.8" y1="249.1" x2="368.2" y2="249.1"/>
      <line class="st24" x1="182.8" y1="234.1" x2="368.2" y2="234.1"/>
      <line class="st24" x1="182.8" y1="219" x2="368.2" y2="219"/>
      <line class="st24" x1="182.8" y1="188.9" x2="368.2" y2="188.9"/>
      <line class="st24" x1="182.8" y1="173.9" x2="368.2" y2="173.9"/>
      <line class="st24" x1="182.8" y1="158.9" x2="368.2" y2="158.9"/>
      <line class="st4" x1="182.8" y1="207.8" x2="368.2" y2="207.8"/>
      <g class="st75">
        <circle class="st81" cx="183.9" cy="258.8" r="1.3"/>
        <circle class="st81" cx="185" cy="242.7" r="1.2"/>
        <circle class="st81" cx="186.1" cy="250.7" r="1.3"/>
        <circle class="st81" cx="187.1" cy="234.6" r="1.3"/>
        <circle class="st81" cx="188.2" cy="261.5" r="1.1"/>
        <circle class="st81" cx="189.3" cy="248.1" r="1.3"/>
        <circle class="st81" cx="190.4" cy="256.1" r="1.2"/>
        <circle class="st81" cx="187.7" cy="240" r="1.3"/>
        <circle class="st81" cx="186.6" cy="227.9" r="1.3"/>
        <circle class="st81" cx="186.6" cy="221.2" r="1.3"/>
        <circle class="st81" cx="186.6" cy="214.5" r="1.5"/>
        <circle class="st60" cx="186.6" cy="206.4" r="1.6"/>
        <circle class="st60" cx="186.6" cy="198.4" r="1.7"/>
        <circle class="st60" cx="186.6" cy="190.3" r="2"/>
      </g>
      <g class="st75">
        <circle class="st0" cx="192" cy="256.1" r="1.3"/>
        <circle class="st0" cx="193.3" cy="240" r="1.2"/>
        <circle class="st0" cx="194.7" cy="262.8" r="1.3"/>
        <circle class="st0" cx="196" cy="245.4" r="1.3"/>
        <circle class="st0" cx="197.4" cy="254.8" r="1.1"/>
        <circle class="st0" cx="198.7" cy="244" r="1.3"/>
      </g>
      <g class="st75">
        <circle class="st81" cx="200.3" cy="250.7" r="1.3"/>
        <circle class="st81" cx="201.7" cy="260.2" r="1.1"/>
        <circle class="st81" cx="203" cy="242.7" r="1.3"/>
        <circle class="st81" cx="204.3" cy="253.4" r="1.3"/>
        <circle class="st81" cx="205.7" cy="237.3" r="1.2"/>
        <circle class="st81" cx="207" cy="257.5" r="1.3"/>
      </g>
      <g class="st75">
        <circle class="st0" cx="208.6" cy="262.8" r="1.2"/>
        <circle class="st0" cx="210" cy="252.1" r="1.3"/>
        <circle class="st0" cx="211.3" cy="242.7" r="1.3"/>
        <circle class="st0" cx="212.7" cy="256.1" r="1.1"/>
        <circle class="st0" cx="214" cy="240" r="1.3"/>
        <circle class="st0" cx="215.4" cy="250.7" r="1.2"/>
      </g>
      <g class="st75">
        <circle class="st81" cx="217" cy="253.4" r="1.3"/>
        <circle class="st81" cx="218.3" cy="260.2" r="1.1"/>
        <circle class="st81" cx="219.7" cy="248.1" r="1.3"/>
        <circle class="st81" cx="221" cy="241.3" r="1.3"/>
        <circle class="st81" cx="222.3" cy="256.1" r="1.2"/>
        <circle class="st81" cx="223.7" cy="245.4" r="1.3"/>
      </g>
      <g class="st75">
        <circle class="st0" cx="225.3" cy="258.8" r="1.2"/>
        <circle class="st0" cx="226.6" cy="244" r="1.3"/>
        <circle class="st0" cx="228" cy="254.8" r="1.1"/>
        <circle class="st0" cx="230.7" cy="261.5" r="1.3"/>
        <circle class="st0" cx="232" cy="246.7" r="1.2"/>
        <circle class="st0" cx="229.3" cy="237.3" r="1.3"/>
        <circle class="st0" cx="229.3" cy="229.3" r="1.3"/>
        <circle class="st0" cx="229.3" cy="221.2" r="1.5"/>
        <circle class="st0" cx="229.3" cy="213.1" r="1.5"/>
        <circle class="st56" cx="229.3" cy="205.1" r="1.6"/>
        <circle class="st56" cx="229.3" cy="197" r="1.7"/>
        <circle class="st56" cx="229.3" cy="188.9" r="1.9"/>
        <circle class="st56" cx="229.3" cy="180.9" r="2.1"/>
      </g>
      <g class="st75">
        <circle class="st81" cx="233.6" cy="256.1" r="1.3"/>
        <circle class="st81" cx="235" cy="248.1" r="1.2"/>
        <circle class="st81" cx="236.3" cy="262.8" r="1.3"/>
        <circle class="st81" cx="237.7" cy="242.7" r="1.3"/>
        <circle class="st81" cx="239" cy="253.4" r="1.1"/>
        <circle class="st81" cx="240.3" cy="245.4" r="1.3"/>
      </g>
      <g class="st75">
        <circle class="st0" cx="242" cy="252.1" r="1.2"/>
        <circle class="st0" cx="243.3" cy="258.8" r="1.3"/>
        <circle class="st0" cx="244.6" cy="246.7" r="1.1"/>
        <circle class="st0" cx="246" cy="254.8" r="1.3"/>
        <circle class="st0" cx="247.3" cy="240" r="1.3"/>
        <circle class="st0" cx="248.7" cy="261.5" r="1.2"/>
      </g>
      <g class="st75">
        <circle class="st81" cx="250.6" cy="257.5" r="1.3"/>
        <circle class="st81" cx="252.7" cy="249.4" r="1.3"/>
      </g>
      <g class="st75">
        <circle class="st0" cx="255.9" cy="261.5" r="1.3"/>
        <circle class="st0" cx="258.6" cy="242.7" r="1.3"/>
      </g>
      <g class="st75">
        <circle class="st81" cx="262.4" cy="254.8" r="1.3"/>
        <circle class="st81" cx="265.1" cy="246.7" r="1.3"/>
        <circle class="st81" cx="265.1" cy="238.7" r="1.3"/>
        <circle class="st81" cx="265.1" cy="231.9" r="1.5"/>
      </g>
      <g class="st75">
        <circle class="st0" cx="268.8" cy="260.2" r="1.3"/>
        <circle class="st0" cx="272" cy="240" r="1.3"/>
      </g>
      <g class="st75">
        <circle class="st81" cx="276.3" cy="256.1" r="1.3"/>
        <circle class="st81" cx="279" cy="248.1" r="1.3"/>
      </g>
      <g class="st75">
        <circle class="st0" cx="283.3" cy="261.5" r="1.3"/>
        <circle class="st0" cx="286" cy="244" r="1.3"/>
      </g>
      <g class="st75">
        <circle class="st81" cx="290.3" cy="253.4" r="1.3"/>
        <circle class="st81" cx="293" cy="245.4" r="1.3"/>
      </g>
      <g class="st75">
        <circle class="st0" cx="297.3" cy="258.8" r="1.3"/>
        <circle class="st0" cx="300" cy="241.3" r="1.3"/>
      </g>
      <g class="st75">
        <circle class="st81" cx="304.3" cy="257.5" r="1.3"/>
        <circle class="st81" cx="307" cy="249.4" r="1.3"/>
      </g>
      <g class="st75">
        <circle class="st0" cx="311.3" cy="262.8" r="1.3"/>
        <circle class="st0" cx="314" cy="242.7" r="1.3"/>
      </g>
      <g class="st75">
        <circle class="st81" cx="317.7" cy="256.1" r="1.3"/>
        <circle class="st81" cx="319.3" cy="248.1" r="1.2"/>
        <circle class="st81" cx="321" cy="260.2" r="1.3"/>
        <circle class="st81" cx="322.6" cy="241.3" r="1.3"/>
        <circle class="st81" cx="325.8" cy="253.4" r="1.2"/>
        <circle class="st81" cx="327.4" cy="245.4" r="1.3"/>
        <circle class="st81" cx="324.2" cy="233.3" r="1.3"/>
        <circle class="st81" cx="324.2" cy="225.2" r="1.3"/>
        <circle class="st81" cx="324.2" cy="217.2" r="1.3"/>
        <circle class="st81" cx="324.2" cy="209.1" r="1.5"/>
        <circle class="st53" cx="324.2" cy="201" r="1.6"/>
        <circle class="st53" cx="324.2" cy="193" r="1.7"/>
        <circle class="st53" cx="324.2" cy="184.9" r="1.7"/>
        <circle class="st53" cx="324.2" cy="176.9" r="1.9"/>
        <circle class="st53" cx="324.2" cy="168.8" r="2"/>
        <circle class="st53" cx="324.2" cy="160.7" r="2.3"/>
      </g>
      <g class="st75">
        <circle class="st0" cx="329.5" cy="258.8" r="1.3"/>
        <circle class="st0" cx="331.4" cy="250.7" r="1.2"/>
        <circle class="st0" cx="333.3" cy="244" r="1.3"/>
        <circle class="st0" cx="335.2" cy="256.1" r="1.3"/>
      </g>
      <g class="st75">
        <circle class="st81" cx="337.9" cy="261.5" r="1.3"/>
        <circle class="st81" cx="339.8" cy="253.4" r="1.2"/>
        <circle class="st81" cx="341.6" cy="241.3" r="1.3"/>
        <circle class="st81" cx="343.5" cy="257.5" r="1.3"/>
      </g>
      <g class="st75">
        <circle class="st0" cx="346.2" cy="260.2" r="1.3"/>
        <circle class="st0" cx="348.1" cy="249.4" r="1.2"/>
        <circle class="st0" cx="350" cy="254.8" r="1.3"/>
        <circle class="st0" cx="351.9" cy="242.7" r="1.3"/>
        <circle class="st0" cx="353.5" cy="262.8" r="1.2"/>
      </g>
      <line class="st6" x1="182.8" y1="156.7" x2="182.8" y2="264.2"/>
      <line class="st6" x1="182.8" y1="264.2" x2="357.5" y2="264.2"/>
    </g>
  </g>
  <g>
    <path class="st42" d="M452,250.8l12,6-12,6v-12Z"/>
    <g>
      <line class="st3" x1="405.1" y1="256.8" x2="406.6" y2="256.8"/>
      <line class="st15" x1="409.5" y1="256.8" x2="449.5" y2="256.8"/>
      <line class="st3" x1="451" y1="256.8" x2="452.5" y2="256.8"/>
    </g>
  </g>
  <g>
    <path class="st42" d="M251.9,250.8l12,6-12,6v-12Z"/>
    <g>
      <line class="st3" x1="205" y1="256.8" x2="206.5" y2="256.8"/>
      <line class="st15" x1="209.4" y1="256.8" x2="249.4" y2="256.8"/>
      <line class="st3" x1="250.9" y1="256.8" x2="252.4" y2="256.8"/>
    </g>
  </g>
  <g>
    <path class="st42" d="M933.5,250.8l12,6-12,6v-12Z"/>
    <g>
      <line class="st3" x1="886.6" y1="256.8" x2="888.1" y2="256.8"/>
      <line class="st15" x1="891" y1="256.8" x2="931" y2="256.8"/>
      <line class="st3" x1="932.5" y1="256.8" x2="934" y2="256.8"/>
    </g>
  </g>
  <g>
    <path class="st42" d="M733.4,250.8l12,6-12,6v-12Z"/>
    <g>
      <line class="st3" x1="686.5" y1="256.8" x2="688" y2="256.8"/>
      <line class="st15" x1="690.9" y1="256.8" x2="730.9" y2="256.8"/>
      <line class="st3" x1="732.4" y1="256.8" x2="733.9" y2="256.8"/>
    </g>
  </g>
  <text class="st70" transform="translate(535.9 109.7)"><tspan x="0" y="0">NIAGADSDB</tspan></text>
</svg>