<?xml version="1.0" encoding="UTF-8"?>
<svg id="Layer_1" xmlns="http://www.w3.org/2000/svg" xmlns:xlink="http://www.w3.org/1999/xlink" version="1.1" viewBox="0 0 787.4 294">
  <!-- Generator: Adobe Illustrator 30.5.1, SVG Export Plug-In . SVG Version: 2.1.4 Build 3)  -->
  <defs>
    <style>
      .st0 {
        fill: #7f8c8d;
      }

      .st1, .st2, .st3, .st4, .st5, .st6, .st7, .st8, .st9, .st10, .st11, .st12, .st13, .st14 {
        fill: none;
      }

      .st15 {
        fill: #fac775;
      }

      .st2 {
        stroke: #8ee3ad;
      }

      .st2, .st4, .st5, .st14 {
        stroke-width: 1.6px;
      }

      .st16 {
        fill: #ba7517;
      }

      .st17 {
        fill: #5dcaa5;
      }

      .st18 {
        stroke: #7f77dd;
      }

      .st18, .st3, .st6, .st13 {
        stroke-width: .8px;
      }

      .st18, .st19 {
        fill: #7f77dd;
      }

      .st3 {
        stroke: #e24b4a;
      }

      .st3, .st11 {
        stroke-dasharray: 1 .7;
      }

      .st20 {
        fill: #e67e22;
      }

      .st4 {
        stroke: #9edbf8;
      }

      .st21 {
        fill: #ffc83d;
      }

      .st22 {
        fill: #aaa;
      }

      .st22, .st7, .st9 {
        stroke: #aaa;
        stroke-miterlimit: 10;
        stroke-width: 1.1px;
      }

      .st23 {
        fill: #9b59b6;
      }

      .st24 {
        fill: #b4b2a9;
      }

      .st5 {
        stroke: #ccb8ff;
      }

      .st6, .st8 {
        stroke: #c2c0b6;
      }

      .st25 {
        fill: #2ecc71;
      }

      .st7 {
        stroke-dasharray: 3.3 3.3;
      }

      .st26, .st27, .st28, .st29 {
        isolation: isolate;
      }

      .st8 {
        stroke-width: .4px;
      }

      .st30 {
        clip-path: url(#clippath-1);
      }

      .st31 {
        clip-path: url(#clippath-3);
      }

      .st32 {
        clip-path: url(#clippath-2);
      }

      .st27 {
        font-size: 14.3px;
      }

      .st27, .st28 {
        font-family: Arial-BoldMT, Arial;
        font-weight: 700;
      }

      .st27, .st29 {
        fill: #ddd;
      }

      .st33 {
        fill: #1d9e75;
      }

      .st34 {
        fill: #ef9f27;
      }

      .st35 {
        fill: #9fe1cb;
      }

      .st36 {
        fill: #63c4e8;
      }

      .st37 {
        fill: #d85a30;
      }

      .st38 {
        fill: #afa9ec;
      }

      .st39 {
        opacity: .9;
      }

      .st28 {
        fill: #f4f4f4;
        font-size: 19.8px;
      }

      .st10 {
        stroke: #d6d6d6;
      }

      .st10, .st11 {
        stroke-width: .2px;
      }

      .st10, .st11, .st12 {
        stroke-miterlimit: 7.2;
      }

      .st11 {
        stroke: #c0392b;
      }

      .st12 {
        stroke: #fff;
        stroke-linecap: square;
        stroke-width: .5px;
      }

      .st40 {
        fill: #243b8f;
      }

      .st29 {
        font-family: ArialMT, Arial;
        font-size: 12.1px;
      }

      .st13 {
        stroke: #85b7eb;
      }

      .st41 {
        clip-path: url(#clippath);
      }

      .st14 {
        stroke: #ffc83d;
      }

      .st42 {
        fill: #34495e;
      }
    </style>
    <clipPath id="clippath">
      <circle class="st1" cx="66.8" cy="227.2" r="66"/>
    </clipPath>
    <clipPath id="clippath-1">
      <circle class="st1" cx="288.9" cy="227.2" r="66"/>
    </clipPath>
    <clipPath id="clippath-2">
      <circle class="st1" cx="504" cy="227.2" r="66"/>
    </clipPath>
    <clipPath id="clippath-3">
      <circle class="st1" cx="720.6" cy="227.2" r="66"/>
    </clipPath>
  </defs>
  <g class="st26">
    <g class="st26">
      <text class="st28" transform="translate(141.4 17)"><tspan x="0" y="0">From GWAS Summary Statistics to Biological Insight</tspan></text>
    </g>
  </g>
  <g>
    <g class="st26">
      <g class="st26">
        <g class="st26">
          <text class="st27" transform="translate(4.2 67.8)"><tspan x="0" y="0">GWAS SUMMARY</tspan></text>
        </g>
      </g>
      <g class="st26">
        <g class="st26">
          <text class="st27" transform="translate(26.1 84.3)"><tspan x="0" y="0">STATISTICS</tspan></text>
        </g>
      </g>
    </g>
    <g class="st26">
      <g class="st26">
        <g class="st26">
          <text class="st29" transform="translate(13.9 116.2)"><tspan x="0" y="0">Curated AD GWAS</tspan></text>
        </g>
      </g>
      <g class="st26">
        <g class="st26">
          <text class="st29" transform="translate(4.6 132.7)"><tspan x="0" y="0">from published studies</tspan></text>
        </g>
      </g>
      <g class="st26">
        <g class="st26">
          <text class="st29" transform="translate(30.4 149.1)"><tspan x="0" y="0">and consortia</tspan></text>
        </g>
      </g>
    </g>
    <g>
      <circle class="st1" cx="66.8" cy="227.2" r="66"/>
      <g class="st41">
        <g>
          <line class="st10" x1="15" y1="260" x2="125.2" y2="260"/>
          <line class="st10" x1="15" y1="251.1" x2="125.2" y2="251.1"/>
          <line class="st10" x1="15" y1="242.2" x2="125.2" y2="242.2"/>
          <line class="st10" x1="15" y1="224.3" x2="125.2" y2="224.3"/>
          <line class="st10" x1="15" y1="215.3" x2="125.2" y2="215.3"/>
          <line class="st10" x1="15" y1="206.4" x2="125.2" y2="206.4"/>
          <line class="st11" x1="15" y1="235.5" x2="125.2" y2="235.5"/>
          <g class="st39">
            <circle class="st42" cx="15.7" cy="265.8" r=".8"/>
            <path class="st42" d="M16.3,255.5c.4,0,.7.3.7.7s-.3.7-.7.7-.7-.3-.7-.7.3-.7.7-.7Z"/>
            <circle class="st42" cx="17" cy="261" r=".8"/>
            <circle class="st42" cx="17.6" cy="251.4" r=".8"/>
            <circle class="st42" cx="18.2" cy="267.4" r=".7"/>
            <circle class="st42" cx="18.9" cy="259.4" r=".8"/>
            <circle class="st42" cx="19.5" cy="264.2" r=".7"/>
            <circle class="st42" cx="17.9" cy="254.6" r=".8"/>
            <circle class="st42" cx="17.2" cy="247.4" r=".8"/>
            <circle class="st42" cx="17.2" cy="243.4" r=".8"/>
            <circle class="st42" cx="17.2" cy="239.5" r=".9"/>
            <circle class="st25" cx="17.2" cy="234.6" r="1"/>
            <circle class="st25" cx="17.2" cy="229.9" r="1"/>
            <circle class="st25" cx="17.2" cy="225.1" r="1.2"/>
          </g>
          <g class="st39">
            <circle class="st0" cx="20.5" cy="264.2" r=".8"/>
            <circle class="st0" cx="21.3" cy="254.6" r=".7"/>
            <circle class="st0" cx="22.1" cy="268.2" r=".8"/>
            <circle class="st0" cx="22.8" cy="257.8" r=".8"/>
            <circle class="st0" cx="23.7" cy="263.4" r=".7"/>
            <circle class="st0" cx="24.5" cy="257" r=".8"/>
          </g>
          <g class="st39">
            <circle class="st42" cx="25.4" cy="261" r=".8"/>
            <circle class="st42" cx="26.2" cy="266.6" r=".7"/>
            <path class="st42" d="M27,255.4c.4,0,.8.4.8.8s-.4.8-.8.8-.8-.4-.8-.8.4-.8.8-.8Z"/>
            <circle class="st42" cx="27.8" cy="262.6" r=".8"/>
            <circle class="st42" cx="28.6" cy="253" r=".7"/>
            <circle class="st42" cx="29.4" cy="265" r=".8"/>
          </g>
          <g class="st39">
            <circle class="st0" cx="30.4" cy="268.2" r=".7"/>
            <circle class="st0" cx="31.2" cy="261.8" r=".8"/>
            <path class="st0" d="M32,255.4c.4,0,.8.4.8.8s-.4.8-.8.8-.8-.4-.8-.8.4-.8.8-.8Z"/>
            <circle class="st0" cx="32.7" cy="264.2" r=".7"/>
            <circle class="st0" cx="33.6" cy="254.6" r=".8"/>
            <circle class="st0" cx="34.4" cy="261" r=".7"/>
          </g>
          <g class="st39">
            <circle class="st42" cx="35.3" cy="262.6" r=".8"/>
            <circle class="st42" cx="36.1" cy="266.6" r=".7"/>
            <circle class="st42" cx="36.9" cy="259.4" r=".8"/>
            <path class="st42" d="M37.7,254.6c.4,0,.8.4.8.8s-.4.8-.8.8-.8-.4-.8-.8.4-.8.8-.8Z"/>
            <circle class="st42" cx="38.6" cy="264.2" r=".7"/>
            <circle class="st42" cx="39.3" cy="257.8" r=".8"/>
          </g>
          <g class="st39">
            <circle class="st0" cx="40.3" cy="265.8" r=".7"/>
            <circle class="st0" cx="41.1" cy="257" r=".8"/>
            <circle class="st0" cx="41.9" cy="263.4" r=".7"/>
            <circle class="st0" cx="43.5" cy="267.4" r=".8"/>
            <circle class="st0" cx="44.3" cy="258.6" r=".7"/>
            <circle class="st0" cx="42.6" cy="253" r=".8"/>
            <circle class="st0" cx="42.6" cy="248.2" r=".8"/>
            <circle class="st0" cx="42.6" cy="243.4" r=".9"/>
            <circle class="st0" cx="42.6" cy="238.7" r=".9"/>
            <circle class="st23" cx="42.6" cy="233.8" r="1"/>
            <circle class="st23" cx="42.6" cy="229" r="1"/>
            <circle class="st23" cx="42.6" cy="224.3" r="1.1"/>
            <circle class="st23" cx="42.6" cy="219.4" r="1.3"/>
          </g>
          <g class="st39">
            <circle class="st42" cx="45.3" cy="264.2" r=".8"/>
            <circle class="st42" cx="46" cy="259.4" r=".7"/>
            <circle class="st42" cx="46.8" cy="268.2" r=".8"/>
            <path class="st42" d="M47.6,255.4c.4,0,.8.4.8.8s-.4.8-.8.8-.8-.4-.8-.8.4-.8.8-.8Z"/>
            <circle class="st42" cx="48.4" cy="262.6" r=".7"/>
            <circle class="st42" cx="49.2" cy="257.8" r=".8"/>
          </g>
          <g class="st39">
            <circle class="st0" cx="50.2" cy="261.8" r=".7"/>
            <circle class="st0" cx="51" cy="265.8" r=".8"/>
            <circle class="st0" cx="51.8" cy="258.6" r=".7"/>
            <circle class="st0" cx="52.6" cy="263.4" r=".8"/>
            <circle class="st0" cx="53.4" cy="254.6" r=".8"/>
            <circle class="st0" cx="54.2" cy="267.4" r=".7"/>
          </g>
          <g class="st39">
            <circle class="st42" cx="55.3" cy="265" r=".8"/>
            <circle class="st42" cx="56.6" cy="260.2" r=".8"/>
          </g>
          <g class="st39">
            <circle class="st0" cx="58.5" cy="267.4" r=".8"/>
            <path class="st0" d="M60.1,255.4c.4,0,.8.4.8.8s-.4.8-.8.8-.8-.4-.8-.8.4-.8.8-.8Z"/>
          </g>
          <g class="st39">
            <circle class="st42" cx="62.3" cy="263.4" r=".8"/>
            <circle class="st42" cx="63.9" cy="258.6" r=".8" transform="translate(-196.7 313.8) rotate(-88.1)"/>
            <circle class="st42" cx="63.9" cy="253.8" r=".8"/>
            <circle class="st42" cx="63.9" cy="249.8" r=".9"/>
          </g>
          <g class="st39">
            <circle class="st0" cx="66.2" cy="266.6" r=".8"/>
            <circle class="st0" cx="68" cy="254.6" r=".8"/>
          </g>
          <g class="st39">
            <circle class="st42" cx="70.7" cy="264.2" r=".8"/>
            <circle class="st42" cx="72.2" cy="259.4" r=".8"/>
          </g>
          <g class="st39">
            <circle class="st0" cx="74.7" cy="267.4" r=".8"/>
            <circle class="st0" cx="76.4" cy="257" r=".8"/>
          </g>
          <g class="st39">
            <circle class="st42" cx="78.9" cy="262.6" r=".8"/>
            <circle class="st42" cx="80.6" cy="257.8" r=".8"/>
          </g>
          <g class="st39">
            <circle class="st0" cx="83.1" cy="265.8" r=".8"/>
            <path class="st0" d="M84.7,254.6c.4,0,.8.4.8.8s-.4.8-.8.8-.8-.4-.8-.8.4-.8.8-.8Z"/>
          </g>
          <g class="st39">
            <circle class="st42" cx="87.3" cy="265" r=".8"/>
            <circle class="st42" cx="88.8" cy="260.2" r=".8"/>
          </g>
          <g class="st39">
            <circle class="st0" cx="91.4" cy="268.2" r=".8"/>
            <path class="st0" d="M93,255.4c.4,0,.8.4.8.8s-.4.8-.8.8-.8-.4-.8-.8.4-.8.8-.8Z"/>
          </g>
          <g class="st39">
            <circle class="st42" cx="95.2" cy="264.2" r=".8"/>
            <circle class="st42" cx="96.2" cy="259.4" r=".7"/>
            <circle class="st42" cx="97.2" cy="266.6" r=".8"/>
            <path class="st42" d="M98.1,254.6c.4,0,.8.4.8.8s-.4.8-.8.8-.8-.4-.8-.8.4-.8.8-.8Z"/>
            <circle class="st42" cx="100" cy="262.6" r=".7"/>
            <circle class="st42" cx="101" cy="257.8" r=".8"/>
            <circle class="st42" cx="99" cy="250.6" r=".8"/>
            <circle class="st42" cx="99" cy="245.8" r=".8"/>
            <circle class="st42" cx="99" cy="241" r=".8"/>
            <circle class="st42" cx="99" cy="236.3" r=".9"/>
            <circle class="st20" cx="99" cy="231.4" r="1"/>
            <circle class="st20" cx="99" cy="226.7" r="1"/>
            <circle class="st20" cx="99" cy="221.9" r="1"/>
            <circle class="st20" cx="99" cy="217.1" r="1.1"/>
            <circle class="st20" cx="99" cy="212.3" r="1.2"/>
            <circle class="st20" cx="99" cy="207.5" r="1.3"/>
          </g>
          <g class="st39">
            <circle class="st0" cx="102.2" cy="265.8" r=".8"/>
            <circle class="st0" cx="103.3" cy="261" r=".7"/>
            <circle class="st0" cx="104.5" cy="257" r=".8"/>
            <circle class="st0" cx="105.6" cy="264.2" r=".8"/>
          </g>
          <g class="st39">
            <circle class="st42" cx="107.2" cy="267.4" r=".8"/>
            <circle class="st42" cx="108.3" cy="262.6" r=".7"/>
            <path class="st42" d="M109.5,254.6c.4,0,.8.4.8.8s-.4.8-.8.8-.8-.4-.8-.8.4-.8.8-.8Z"/>
            <circle class="st42" cx="110.6" cy="265" r=".8"/>
          </g>
          <g class="st39">
            <circle class="st0" cx="112.1" cy="266.6" r=".8"/>
            <circle class="st0" cx="113.3" cy="260.2" r=".7"/>
            <circle class="st0" cx="114.4" cy="263.4" r=".8"/>
            <path class="st0" d="M115.5,255.4c.4,0,.8.4.8.8s-.4.8-.8.8-.8-.4-.8-.8.4-.8.8-.8Z"/>
            <circle class="st0" cx="116.5" cy="268.2" r=".7"/>
          </g>
          <line class="st12" x1="15" y1="205.1" x2="15" y2="269"/>
          <line class="st12" x1="15" y1="269" x2="118.8" y2="269"/>
        </g>
      </g>
      <circle class="st5" cx="66.8" cy="227.2" r="66"/>
    </g>
    <path class="st40" d="M226.2,216.2" marker-end="url(#arrowhead)"/>
    <g class="st26">
      <g class="st26">
        <g class="st26">
          <text class="st27" transform="translate(221.4 67.8)"><tspan x="0" y="0">GENETIC SIGNALS</tspan></text>
        </g>
      </g>
      <g class="st26">
        <g class="st26">
          <text class="st27" transform="translate(264.6 84.3)"><tspan x="0" y="0">&amp; LOCI</tspan></text>
        </g>
      </g>
    </g>
    <g class="st26">
      <g class="st26">
        <g class="st26">
          <text class="st29" transform="translate(229.7 116.2)"><tspan x="0" y="0">Identify genome-wide</tspan></text>
        </g>
      </g>
      <g class="st26">
        <g class="st26">
          <text class="st29" transform="translate(225.3 132.7)"><tspan x="0" y="0">significant associations</tspan></text>
        </g>
      </g>
      <g class="st26">
        <g class="st26">
          <text class="st29" transform="translate(268 149.1)"><tspan x="0" y="0">and loci</tspan></text>
        </g>
      </g>
    </g>
    <g>
      <circle class="st1" cx="288.9" cy="227.2" r="66"/>
      <g class="st30">
        <g>
          <line class="st6" x1="224" y1="213.2" x2="224" y2="259.3"/>
          <line class="st6" x1="224" y1="259.3" x2="353.6" y2="259.3"/>
          <line class="st13" x1="353.6" y1="213.2" x2="353.6" y2="259.3"/>
          <line class="st6" x1="223.1" y1="214.3" x2="224" y2="214.3"/>
          <line class="st6" x1="223.1" y1="223.4" x2="224" y2="223.4"/>
          <line class="st6" x1="223.1" y1="232.7" x2="224" y2="232.7"/>
          <line class="st6" x1="223.1" y1="241.9" x2="224" y2="241.9"/>
          <line class="st6" x1="223.1" y1="251.1" x2="224" y2="251.1"/>
          <line class="st13" x1="353.6" y1="214.3" x2="354.6" y2="214.3"/>
          <line class="st13" x1="353.6" y1="236.1" x2="354.6" y2="236.1"/>
          <line class="st3" x1="224" y1="225.6" x2="353.6" y2="225.6"/>
          <polyline class="st13" points="225 258.7 234.8 257.4 244.4 255 251.8 250.2 256.5 242.4 260.3 232.7 262.6 223.4 264.3 216.6 265.8 213.8 267.3 216.6 268.7 223.4 271.1 232.7 274.1 241.9 277.9 248.2 282.8 252.1 287.7 249.7 290.5 244.8 292.5 239 293.9 234.1 294.9 229.8 295.6 225.9 296.4 229.8 297.3 235.1 298.8 241.9 301.7 248.2 307.5 252.1 314.8 254.5 324.5 256.5 336.6 257.9 348.8 258.7 353.6 258.9"/>
          <circle class="st24" cx="227" cy="255.9" r="1.2"/>
          <circle class="st24" cx="230.8" cy="254.5" r="1.2"/>
          <circle class="st24" cx="234.8" cy="253.1" r="1.2"/>
          <circle class="st24" cx="238.6" cy="251.1" r="1.2"/>
          <circle class="st24" cx="242.5" cy="252.6" r="1.2"/>
          <circle class="st17" cx="246.4" cy="248.7" r="1.2"/>
          <circle class="st17" cx="249.8" cy="245.3" r="1.2"/>
          <circle class="st36" cx="252.7" cy="240.9" r="1.3"/>
          <circle class="st36" cx="255.4" cy="235.6" r="1.3" transform="translate(-18.1 450) rotate(-80.8)"/>
          <circle class="st34" cx="258" cy="230.2" r="1.5"/>
          <circle class="st34" cx="260.5" cy="224.4" r="1.5"/>
          <circle class="st37" cx="262.6" cy="219.1" r="1.5"/>
          <circle class="st18" cx="264.8" cy="212.8" r="2.1"/>
          <circle class="st37" cx="267.3" cy="218.6" r="1.5"/>
          <circle class="st34" cx="269.7" cy="223.9" r="1.5"/>
          <circle class="st34" cx="272.4" cy="230.2" r="1.5"/>
          <circle class="st36" cx="275.2" cy="236.1" r="1.3"/>
          <circle class="st36" cx="278.4" cy="241.4" r="1.3"/>
          <circle class="st17" cx="281.8" cy="245.8" r="1.2"/>
          <circle class="st17" cx="285.4" cy="248.2" r="1.2"/>
          <circle class="st17" cx="288.6" cy="246.8" r="1.2"/>
          <circle class="st36" cx="291.3" cy="242.4" r="1.3"/>
          <circle class="st34" cx="293.7" cy="236.6" r="1.5"/>
          <circle class="st37" cx="295.6" cy="230.2" r="1.5"/>
          <circle class="st34" cx="297.6" cy="236.6" r="1.5"/>
          <circle class="st36" cx="299.8" cy="242.9" r="1.3"/>
          <circle class="st17" cx="302.4" cy="247.7" r="1.2"/>
          <circle class="st24" cx="306" cy="250.2" r="1.2"/>
          <circle class="st24" cx="310.9" cy="252.1" r="1.2"/>
          <circle class="st24" cx="316.8" cy="253.6" r="1.2"/>
          <circle class="st24" cx="323.6" cy="254.5" r="1.2"/>
          <circle class="st24" cx="331.3" cy="255.5" r="1.2"/>
          <circle class="st24" cx="340" cy="255.9" r="1.2"/>
          <circle class="st24" cx="349.3" cy="256.5" r="1.2"/>
        </g>
      </g>
      <circle class="st4" cx="288.9" cy="227.2" r="66"/>
    </g>
    <path class="st40" d="M274.3,216.2" marker-end="url(#arrowhead)"/>
    <path class="st40" d="M409.4,216.2" marker-end="url(#arrowhead)"/>
    <g class="st26">
      <g class="st26">
        <g class="st26">
          <text class="st27" transform="translate(435.2 67.8)"><tspan x="0" y="0">KNOWN AD GENES</tspan></text>
        </g>
      </g>
      <g class="st26">
        <g class="st26">
          <text class="st27" transform="translate(445.7 84.3)"><tspan x="0" y="0">&amp; ANNOTATIONS</tspan></text>
        </g>
      </g>
    </g>
    <g class="st26">
      <g class="st26">
        <g class="st26">
          <text class="st29" transform="translate(445.8 116.2)"><tspan x="0" y="0">Link signals to genes</tspan></text>
        </g>
      </g>
      <g class="st26">
        <g class="st26">
          <text class="st29" transform="translate(464.6 132.7)"><tspan x="0" y="0">and functional</tspan></text>
        </g>
      </g>
      <g class="st26">
        <g class="st26">
          <text class="st29" transform="translate(472.6 149.1)"><tspan x="0" y="0">annotations</tspan></text>
        </g>
      </g>
    </g>
    <g>
      <circle class="st1" cx="504" cy="227.2" r="66"/>
      <g class="st32">
        <g>
          <line class="st8" x1="430.2" y1="216.3" x2="488" y2="216.3"/>
          <path class="st1" d="M448.2,215.6l1.5.8-1.5.8"/>
          <path class="st1" d="M449.7,216.3" marker-end="url(#arr)"/>
          <path class="st1" d="M471,215.6l1.5.8-1.5.8"/>
          <path class="st1" d="M472.6,216.3" marker-end="url(#arr)"/>
          <path class="st38" d="M430.9,214.3h4.7c.4,0,.7.3.7.7v2.6c0,.4-.3.7-.7.7h-4.7c-.4,0-.7-.3-.7-.7v-2.6c0-.4.3-.7.7-.7Z"/>
          <rect class="st19" x="436.2" y="212.6" width="8.1" height="7.4" rx="1" ry="1"/>
          <rect class="st19" x="451.1" y="212.6" width="12.8" height="7.4" rx="1" ry="1"/>
          <rect class="st19" x="473.9" y="212.6" width="9.4" height="7.4" rx="1" ry="1"/>
          <path class="st38" d="M484,214.3h3.3c.4,0,.7.3.7.7v2.6c0,.4-.3.7-.7.7h-3.3c-.4,0-.7-.3-.7-.7v-2.6c0-.4.3-.7.7-.7Z"/>
          <line class="st8" x1="458.8" y1="236.5" x2="556.3" y2="236.5"/>
          <path class="st1" d="M475.7,237.3l-1.5-.8,1.5-.8"/>
          <path class="st1" d="M474.3,236.5" marker-end="url(#arr)"/>
          <path class="st1" d="M498.6,237.3l-1.5-.8,1.5-.8"/>
          <path class="st1" d="M497.1,236.5" marker-end="url(#arr)"/>
          <path class="st1" d="M522.2,237.3l-1.5-.8,1.5-.8"/>
          <path class="st1" d="M520.6,236.5" marker-end="url(#arr)"/>
          <path class="st1" d="M545.8,237.3l-1.5-.8,1.5-.8"/>
          <path class="st1" d="M544.2,236.5" marker-end="url(#arr)"/>
          <path class="st35" d="M459.5,234.5h3.3c.4,0,.7.3.7.7v2.6c0,.4-.3.7-.7.7h-3.3c-.4,0-.7-.3-.7-.7v-2.6c0-.4.3-.7.7-.7Z"/>
          <rect class="st33" x="463.5" y="232.8" width="7.4" height="7.4" rx="1" ry="1"/>
          <rect class="st33" x="482.3" y="232.8" width="11.4" height="7.4" rx="1" ry="1"/>
          <rect class="st33" x="505.2" y="232.8" width="14.1" height="7.4" rx="1" ry="1"/>
          <rect class="st33" x="528.7" y="232.8" width="10.1" height="7.4" rx="1" ry="1"/>
          <rect class="st33" x="545.5" y="232.8" width="6.7" height="7.4" rx="1" ry="1"/>
          <path class="st35" d="M553,234.5h2.6c.4,0,.7.3.7.7v2.6c0,.4-.3.7-.7.7h-2.6c-.4,0-.7-.3-.7-.7v-2.6c0-.4.3-.7.7-.7Z"/>
          <line class="st8" x1="499.2" y1="256.7" x2="590" y2="256.7"/>
          <path class="st1" d="M516.5,256l1.5.8-1.5.8"/>
          <path class="st1" d="M518,256.7" marker-end="url(#arr)"/>
          <path class="st1" d="M537.3,256l1.5.8-1.5.8"/>
          <path class="st1" d="M538.8,256.7" marker-end="url(#arr)"/>
          <path class="st1" d="M561.6,256l1.5.8-1.5.8"/>
          <path class="st1" d="M563,256.7" marker-end="url(#arr)"/>
          <path class="st15" d="M499.8,254.7h4c.4,0,.7.3.7.7v2.6c0,.4-.3.7-.7.7h-4c-.4,0-.7-.3-.7-.7v-2.6c0-.4.3-.7.7-.7Z"/>
          <rect class="st16" x="504.5" y="253" width="8.8" height="7.4" rx="1" ry="1"/>
          <rect class="st16" x="520.6" y="253" width="12.1" height="7.4" rx="1" ry="1"/>
          <rect class="st16" x="541.5" y="253" width="15.5" height="7.4" rx="1" ry="1"/>
          <rect class="st16" x="565.7" y="253" width="10.1" height="7.4" rx="1" ry="1"/>
          <path class="st15" d="M576.5,254.7h4c.4,0,.7.3.7.7v2.6c0,.4-.3.7-.7.7h-4c-.4,0-.7-.3-.7-.7v-2.6c0-.4.3-.7.7-.7Z"/>
        </g>
      </g>
      <circle class="st2" cx="504" cy="227.2" r="66"/>
    </g>
    <path class="st40" d="M623.8,216.2" marker-end="url(#arrowhead)"/>
    <g class="st26">
      <g class="st26">
        <g class="st26">
          <text class="st27" transform="translate(673.7 67.8)"><tspan x="0" y="0">BIOLOGICAL</tspan></text>
        </g>
      </g>
      <g class="st26">
        <g class="st26">
          <text class="st27" transform="translate(691.5 84.3)"><tspan x="0" y="0">INSIGHT</tspan></text>
        </g>
      </g>
    </g>
    <g class="st26">
      <g class="st26">
        <g class="st26">
          <text class="st29" transform="translate(665.4 116.2)"><tspan x="0" y="0">Prioritize genes and</tspan></text>
        </g>
      </g>
      <g class="st26">
        <g class="st26">
          <text class="st29" transform="translate(676.2 132.7)"><tspan x="0" y="0">mechanisms for</tspan></text>
        </g>
      </g>
      <g class="st26">
        <g class="st26">
          <text class="st29" transform="translate(666.6 149.2)"><tspan x="0" y="0">Alzheimer’s disease</tspan></text>
        </g>
      </g>
    </g>
    <g>
      <g class="st31">
        <g id="Light_bulb_icon">
          <path class="st21" d="M734.7,235c2-2.9,4-5.9,4-11.9,0-9.7-7.9-17.7-17.6-17.8-4.8,0-9.4,1.9-12.8,5.4-3.4,3.5-5.3,8.4-5.1,13.4.2,5.4,2.1,8.2,4,11,2,3,4.1,6,4.3,12.8,0,1.5,1.3,2.7,2.8,2.7h13.3c1.5,0,2.7-1.2,2.8-2.7.3-6.8,2.3-9.9,4.3-12.8h0ZM728.2,247.7c0,.3-.3.6-.6.6h-13.3c-.3,0-.6-.3-.6-.6-.3-7.4-2.6-10.9-4.7-14-1.8-2.7-3.4-5-3.6-9.8-.2-4.4,1.5-8.7,4.5-11.8,3-3,6.9-4.7,11.1-4.7h0c8.5,0,15.5,7.1,15.5,15.6s-1.7,7.9-3.6,10.7c-2.1,3.1-4.4,6.5-4.7,14h-.1Z"/>
          <path class="st21" d="M723.3,211.4c-.6-.1-1.2.3-1.3.8,0,.6.3,1.2.8,1.3,3.8.8,6.8,3.7,7.6,7.6,0,.5.6.9,1.1.9s0,0,.2,0c.6-.1,1-.7.8-1.3-1-4.7-4.6-8.3-9.2-9.2h0Z"/>
          <path class="st21" d="M724.4,262.7c0-.6-.5-1.1-1.1-1.1h-4.7c-.6,0-1.1.5-1.1,1.1s.5,1.1,1.1,1.1h4.7c.6,0,1.1-.5,1.1-1.1Z"/>
          <path class="st21" d="M729.9,253.1c0-.6-.6-1-1.2-1l-15.8,1.4c-.6,0-1,.6-1,1.2s.5,1,1.1,1,0,0,0,0l15.8-1.4c.6,0,1-.6,1-1.2h.1Z"/>
          <path class="st21" d="M729.4,257.6c0-.6-.6-1-1.2-1l-14.8,1.3c-.6,0-1,.6-1,1.2s.5,1,1.1,1,0,0,0,0l14.8-1.3c.6,0,1-.6,1-1.2h.1Z"/>
          <path class="st21" d="M719.9,191.8v8.6c0,.6.5,1.1,1.1,1.1s1.1-.5,1.1-1.1v-8.6c0-.6-.5-1.1-1.1-1.1s-1.1.5-1.1,1.1Z"/>
          <path class="st21" d="M740.2,198.4l-5.5,6.6c-.4.5-.3,1.1,0,1.5.2.2.4.3.7.3s.6-.1.8-.4l5.5-6.6c.4-.5.3-1.1,0-1.5-.5-.4-1.1-.3-1.5.1h0Z"/>
          <path class="st21" d="M751.5,216.6l-8.5,1.5c-.6.1-1,.7-.9,1.2,0,.5.5.9,1.1.9s0,0,.2,0l8.5-1.5c.6-.1,1-.7.9-1.2,0-.6-.7-1-1.2-.9h0Z"/>
          <path class="st21" d="M748,239.7c.4,0,.7-.2.9-.5.3-.5,0-1.2-.4-1.5l-7.5-4.3c-.5-.3-1.2-.1-1.5.4s0,1.2.4,1.5l7.5,4.3c.2,0,.4.1.5.1h0Z"/>
          <path class="st21" d="M700.2,198.3c-.5.4-.5,1.1,0,1.5l5.5,6.6c.2.3.5.4.8.4s.5,0,.7-.3c.5-.4.5-1.1,0-1.5l-5.5-6.6c-.4-.5-1.1-.5-1.5-.1h0Z"/>
          <path class="st21" d="M689.1,217.4c0,.6.3,1.1.9,1.2l8.5,1.5h.2c.5,0,1-.4,1.1-.9,0-.6-.3-1.1-.9-1.2l-8.5-1.5c-.6-.1-1.1.3-1.2.9h0Z"/>
          <path class="st21" d="M693.9,239.7c.2,0,.4,0,.5-.1l7.5-4.3c.5-.3.7-1,.4-1.5s-1-.7-1.5-.4l-7.5,4.3c-.5.3-.7,1-.4,1.5.2.3.6.5.9.5h0Z"/>
        </g>
      </g>
      <circle class="st14" cx="720.6" cy="227.2" r="66"/>
    </g>
    <g>
      <path class="st22" d="M630.4,218.6l13.2,6.6-13.2,6.6v-13.2h0Z"/>
      <g>
        <line class="st9" x1="578.8" y1="225.2" x2="580.5" y2="225.2"/>
        <line class="st7" x1="583.7" y1="225.2" x2="627.7" y2="225.2"/>
        <line class="st9" x1="629.3" y1="225.2" x2="631" y2="225.2"/>
      </g>
    </g>
    <g>
      <line class="st9" x1="192.3" y1="225.7" x2="168.3" y2="225.7"/>
      <line class="st9" x1="180.3" y1="237.7" x2="180.3" y2="213.7"/>
    </g>
    <g>
      <line class="st9" x1="409.4" y1="225.7" x2="385.4" y2="225.7"/>
      <line class="st9" x1="397.4" y1="237.7" x2="397.4" y2="213.7"/>
    </g>
  </g>
</svg>