<svg xmlns="http://www.w3.org/2000/svg" id="Layer_1" viewBox="0 0 1000 571"><defs><style>.st0{fill:#636668}.st1{fill:#98c1d9}.st2{fill:#293241}.st3{fill:#ee6d4d}.st4{fill:#fff}.st5{fill:none;stroke:#636668;stroke-miterlimit:10}.st6{fill:#3d5a80}</style></defs><path d="M185.6 213.8c6.4-4.6 9.4-7 9.4-9.5s-1.7-2.7-3.3-2.7-3.6.8-4.7 2l-1.5-1.6c1.4-1.7 3.8-2.5 6.2-2.5s6 1.6 6 4.8-3.2 5.9-7.9 9.3h8v2.1h-12.1v-1.9ZM207.4 199.5c4.8 0 6.7 4.3 6.7 8.3s-2 8.3-6.7 8.3-6.7-4.3-6.7-8.3 2-8.3 6.7-8.3m0 2.1c-3 0-4.1 3-4.1 6.1s1.1 6.1 4.1 6.1 4.1-3 4.1-6.1-1.1-6.1-4.1-6.1M220.1 202.8l-2.8 2.7-1.5-1.5 4.6-4.4h2.3v16h-2.6v-12.9ZM229.7 207.5c-2-.6-3.7-1.8-3.7-3.8s3.1-4.2 6.1-4.2 6.1 1.3 6.1 4.2-1.8 3.3-3.7 3.8c2.1.6 4 2.1 4 4.2s-2.9 4.4-6.3 4.4-6.4-1.6-6.4-4.4 1.9-3.6 4-4.2zm2.4 1c-1.1.1-3.8.9-3.8 2.8s1.7 2.5 3.8 2.5 3.8-1 3.8-2.5-2.7-2.7-3.8-2.8m0-6.9c-2 0-3.5.9-3.5 2.4s2.4 2.3 3.5 2.5c1.1-.2 3.5-.8 3.5-2.5s-1.5-2.4-3.5-2.4" class="st0"/><path d="M171.2 185.7h81.7v43.9h-81.7z" class="st5"/><path d="M267.2 213.8c6.4-4.6 9.4-7 9.4-9.5s-1.7-2.7-3.3-2.7-3.6.8-4.7 2l-1.5-1.6c1.4-1.7 3.8-2.5 6.2-2.5s6 1.6 6 4.8-3.2 5.9-7.9 9.3h8v2.1h-12.1v-1.9zM288.9 199.5c4.8 0 6.7 4.3 6.7 8.3s-2 8.3-6.7 8.3-6.7-4.3-6.7-8.3 2-8.3 6.7-8.3m0 2.1c-3 0-4.1 3-4.1 6.1s1.1 6.1 4.1 6.1 4.1-3 4.1-6.1-1.1-6.1-4.1-6.1M301.6 202.8l-2.8 2.7-1.5-1.5 4.6-4.4h2.3v16h-2.6v-12.9ZM309.4 212.3c.9.9 1.9 1.5 3.6 1.5 3.3 0 4.7-2.9 4.7-5.8v-.6c-.8 1.1-2.7 2.4-4.7 2.4-3.1 0-5.7-1.8-5.7-5.2s2.4-5.3 6.2-5.3 6.9 3.9 6.9 8.3-2.4 8.3-7.3 8.3-3.7-.7-4.8-1.8l1.2-1.8zm4.1-10.7c-2.4 0-3.7 1.7-3.7 3.1 0 2.1 1.7 3.1 3.7 3.1s3.1-.8 4-2.1c-.2-1.8-1.3-4.1-4.1-4.1z" class="st0"/><path d="M252.8 185.7h81.7v43.9h-81.7z" class="st5"/><path d="M345.6 213.8c6.4-4.6 9.4-7 9.4-9.5s-1.7-2.7-3.3-2.7-3.6.8-4.7 2l-1.5-1.6c1.4-1.7 3.8-2.5 6.2-2.5s6 1.6 6 4.8-3.2 5.9-7.9 9.3h8v2.1h-12.1v-1.9zM367.4 199.5c4.8 0 6.7 4.3 6.7 8.3s-2 8.3-6.7 8.3-6.7-4.3-6.7-8.3 2-8.3 6.7-8.3m0 2.1c-3 0-4.1 3-4.1 6.1s1.1 6.1 4.1 6.1 4.1-3 4.1-6.1-1.1-6.1-4.1-6.1M376.6 213.8c6.4-4.6 9.4-7 9.4-9.5s-1.7-2.7-3.3-2.7-3.6.8-4.7 2l-1.5-1.6c1.4-1.7 3.8-2.5 6.2-2.5s6 1.6 6 4.8-3.2 5.9-7.9 9.3h8v2.1h-12.1v-1.9zM398.4 199.5c4.8 0 6.7 4.3 6.7 8.3s-2 8.3-6.7 8.3-6.7-4.3-6.7-8.3 2-8.3 6.7-8.3m0 2.1c-3 0-4.1 3-4.1 6.1s1.1 6.1 4.1 6.1 4.1-3 4.1-6.1-1.1-6.1-4.1-6.1" class="st0"/><path d="M334.5 185.7h81.7v43.9h-81.7z" class="st5"/><path d="M430.5 213.8c6.4-4.6 9.4-7 9.4-9.5s-1.7-2.7-3.3-2.7-3.6.8-4.7 2l-1.5-1.6c1.4-1.7 3.8-2.5 6.2-2.5s6 1.6 6 4.8-3.2 5.9-7.9 9.3h8v2.1h-12.1v-1.9zM452.3 199.5c4.8 0 6.7 4.3 6.7 8.3s-2 8.3-6.7 8.3-6.7-4.3-6.7-8.3 2-8.3 6.7-8.3m0 2.1c-3 0-4.1 3-4.1 6.1s1.1 6.1 4.1 6.1 4.1-3 4.1-6.1-1.1-6.1-4.1-6.1M461.6 213.8c6.4-4.6 9.4-7 9.4-9.5s-1.7-2.7-3.3-2.7-3.6.8-4.7 2l-1.5-1.6c1.4-1.7 3.8-2.5 6.2-2.5s6 1.6 6 4.8-3.2 5.9-7.9 9.3h8v2.1h-12.1v-1.9zM480.2 202.8l-2.8 2.7-1.5-1.5 4.6-4.4h2.3v16h-2.6v-12.9Z" class="st0"/><path d="M416.1 185.7h81.7v43.9h-81.7z" class="st5"/><path d="M509.2 213.8c6.4-4.6 9.4-7 9.4-9.5s-1.7-2.7-3.3-2.7-3.6.8-4.7 2l-1.5-1.6c1.4-1.7 3.8-2.5 6.2-2.5s6 1.6 6 4.8-3.2 5.9-7.9 9.3h8v2.1h-12.1v-1.9zM531 199.5c4.8 0 6.7 4.3 6.7 8.3s-2 8.3-6.7 8.3-6.7-4.3-6.7-8.3 2-8.3 6.7-8.3m0 2.1c-3 0-4.1 3-4.1 6.1s1.1 6.1 4.1 6.1 4.1-3 4.1-6.1-1.1-6.1-4.1-6.1M540.2 213.8c6.4-4.6 9.4-7 9.4-9.5s-1.7-2.7-3.3-2.7-3.6.8-4.7 2l-1.5-1.6c1.4-1.7 3.8-2.5 6.2-2.5s6 1.6 6 4.8-3.2 5.9-7.9 9.3h8v2.1h-12.1v-1.9zM555.4 213.8c6.4-4.6 9.4-7 9.4-9.5s-1.7-2.7-3.3-2.7-3.6.8-4.7 2l-1.5-1.6c1.4-1.7 3.8-2.5 6.2-2.5s6 1.6 6 4.8-3.2 5.9-7.9 9.3h8v2.1h-12.1v-1.9z" class="st0"/><path d="M497.8 185.7h81.7v43.9h-81.7z" class="st5"/><path d="M591.2 213.8c6.4-4.6 9.4-7 9.4-9.5s-1.7-2.7-3.3-2.7-3.6.8-4.7 2l-1.5-1.6c1.4-1.7 3.8-2.5 6.2-2.5s6 1.6 6 4.8-3.2 5.9-7.9 9.3h8v2.1h-12.1v-1.9zM613 199.5c4.8 0 6.7 4.3 6.7 8.3s-2 8.3-6.7 8.3-6.7-4.3-6.7-8.3 2-8.3 6.7-8.3m0 2.1c-3 0-4.1 3-4.1 6.1s1.1 6.1 4.1 6.1 4.1-3 4.1-6.1-1.1-6.1-4.1-6.1M622.2 213.8c6.4-4.6 9.4-7 9.4-9.5s-1.7-2.7-3.3-2.7-3.6.8-4.7 2l-1.5-1.6c1.4-1.7 3.8-2.5 6.2-2.5s6 1.6 6 4.8-3.2 5.9-7.9 9.3h8v2.1h-12.1v-1.9zM638.2 211.8c1.1 1.2 2.9 2 4.8 2s3.8-1.1 3.8-2.7-1.5-2.5-4-2.5h-1.9v-2.2h1.9c2.1 0 3.8-.7 3.8-2.4s-1.6-2.5-3.7-2.5-3.2.6-4.5 1.8l-1.4-1.5c1.3-1.4 3.3-2.5 6.1-2.5s6 1.6 6 4.3-2 3.4-3.7 3.7c1.6.1 4 1.4 4 3.9s-2.4 4.6-6.3 4.6-5.2-1.2-6.3-2.6l1.4-1.6z" class="st0"/><path d="M579.4 185.7h81.7v43.9h-81.7z" class="st5"/><path d="M672.8 213.8c6.4-4.6 9.4-7 9.4-9.5s-1.7-2.7-3.3-2.7-3.6.8-4.7 2l-1.5-1.6c1.4-1.7 3.8-2.5 6.2-2.5s6 1.6 6 4.8-3.2 5.9-7.9 9.3h8v2.1h-12.1v-1.9zM694.6 199.5c4.8 0 6.7 4.3 6.7 8.3s-2 8.3-6.7 8.3-6.7-4.3-6.7-8.3 2-8.3 6.7-8.3m0 2.1c-3 0-4.1 3-4.1 6.1s1.1 6.1 4.1 6.1 4.1-3 4.1-6.1-1.1-6.1-4.1-6.1M703.8 213.8c6.4-4.6 9.4-7 9.4-9.5s-1.7-2.7-3.3-2.7-3.6.8-4.7 2l-1.5-1.6c1.4-1.7 3.8-2.5 6.2-2.5s6 1.6 6 4.8-3.2 5.9-7.9 9.3h8v2.1h-12.1v-1.9zM726.6 211.9h-8.2v-2l7.2-10.2h3.5v10.1h2.4v2.1h-2.4v3.8h-2.6v-3.8Zm-5.6-2.1h5.6v-7.9z" class="st0"/><path d="M661.1 185.7h81.7v43.9h-81.7z" class="st5"/><path d="M754.1 213.8c6.4-4.6 9.4-7 9.4-9.5s-1.7-2.7-3.3-2.7-3.6.8-4.7 2L754 202c1.4-1.7 3.8-2.5 6.2-2.5s6 1.6 6 4.8-3.2 5.9-7.9 9.3h8v2.1h-12.1v-1.9zM775.9 199.5c4.8 0 6.7 4.3 6.7 8.3s-2 8.3-6.7 8.3-6.7-4.3-6.7-8.3 2-8.3 6.7-8.3m0 2.1c-3 0-4.1 3-4.1 6.1s1.1 6.1 4.1 6.1 4.1-3 4.1-6.1-1.1-6.1-4.1-6.1M785.1 213.8c6.4-4.6 9.4-7 9.4-9.5s-1.7-2.7-3.3-2.7-3.6.8-4.7 2L785 202c1.4-1.7 3.8-2.5 6.2-2.5s6 1.6 6 4.8-3.2 5.9-7.9 9.3h8v2.1h-12.1v-1.9zM802.1 211.8c1.1 1.3 2.7 2 4.7 2s3.7-1.4 3.7-3.1-1.5-3.1-3.7-3.1-2.7.4-3.9 1.4l-1.9-.6v-8.8h10.9v2.1h-8.3v5.1c.8-.8 2.3-1.4 3.9-1.4 2.9 0 5.5 1.8 5.5 5.1s-2.7 5.4-6.3 5.4-4.9-1-6.2-2.5l1.5-1.6Z" class="st0"/><path d="M742.7 185.7h81.7v43.9h-81.7z" class="st5"/><path d="M835.8 213.8c6.4-4.6 9.4-7 9.4-9.5s-1.7-2.7-3.3-2.7-3.6.8-4.7 2l-1.5-1.6c1.4-1.7 3.8-2.5 6.2-2.5s6 1.6 6 4.8-3.2 5.9-7.9 9.3h8v2.1h-12.1v-1.9zM857.5 199.5c4.8 0 6.7 4.3 6.7 8.3s-2 8.3-6.7 8.3-6.7-4.3-6.7-8.3 2-8.3 6.7-8.3m0 2.1c-3 0-4.1 3-4.1 6.1s1.1 6.1 4.1 6.1 4.1-3 4.1-6.1-1.1-6.1-4.1-6.1M866.8 213.8c6.4-4.6 9.4-7 9.4-9.5s-1.7-2.7-3.3-2.7-3.6.8-4.7 2l-1.5-1.6c1.4-1.7 3.8-2.5 6.2-2.5s6 1.6 6 4.8-3.2 5.9-7.9 9.3h8v2.1h-12.1v-1.9zM889.1 199.5c2.2 0 3.7.7 4.8 1.8l-1.3 1.8c-.9-.9-1.9-1.5-3.6-1.5-3.1 0-4.7 2.8-4.7 5.8v.5c.7-1.1 2.6-2.4 4.7-2.4 3.1 0 5.7 1.7 5.7 5.1s-2.4 5.3-6.2 5.3-6.8-3.9-6.8-8.3 2.4-8.3 7.3-8.3v.2Zm-.6 8.1c-1.6 0-3.1.9-4 2.1.2 1.9 1.3 4.1 4.1 4.1s3.7-1.7 3.7-3.1c0-2.1-1.7-3.1-3.7-3.1Z" class="st0"/><path d="M824.4 185.7h81.7v43.9h-81.7z" class="st5"/><path d="M918.3 213.8c6.4-4.6 9.4-7 9.4-9.5s-1.7-2.7-3.3-2.7-3.6.8-4.7 2l-1.5-1.6c1.4-1.7 3.8-2.5 6.2-2.5s6 1.6 6 4.8-3.2 5.9-7.9 9.3h8v2.1h-12.1v-1.9zM940.1 199.5c4.8 0 6.7 4.3 6.7 8.3s-2 8.3-6.7 8.3-6.7-4.3-6.7-8.3 2-8.3 6.7-8.3m0 2.1c-3 0-4.1 3-4.1 6.1s1.1 6.1 4.1 6.1 4.1-3 4.1-6.1-1.1-6.1-4.1-6.1M949.4 213.8c6.4-4.6 9.4-7 9.4-9.5s-1.7-2.7-3.3-2.7-3.6.8-4.7 2l-1.5-1.6c1.4-1.7 3.8-2.5 6.2-2.5s6 1.6 6 4.8-3.2 5.9-7.9 9.3h8v2.1h-12.1v-1.9zM973 201.8h-9.1v-2.1h12v1.7l-6.8 14.4h-2.8l6.7-13.9Z" class="st0"/><path d="M906 185.7h81.7v43.9H906z" class="st5"/><path d="M171.2 21.2h89.9v102.2h-89.9z" class="st2"/><path d="M212 50.6h-2.7V56h-2.2V42h6.2c2.8 0 4.7 1.7 4.7 4.3s-1.8 3.9-3.6 4.1l3.7 5.6h-2.5l-3.5-5.4Zm.9-6.8h-3.7v4.9h3.7c1.6 0 2.7-1 2.7-2.5s-1.1-2.5-2.7-2.5ZM223 44.7l-2.4 2.4-1.3-1.3 3.9-3.8h1.9v14h-2.2V44.7zM196.9 77.8H190v-1.7l6.1-8.9h3V76h2v1.8h-2v3.4h-2.2zm-4.7-1.9h4.8V69zM203 83.1c.7-.4 1.4-1.3 1.5-2h-.3c-.7 0-1.2-.5-1.2-1.2s.6-1.3 1.3-1.3 1.5.6 1.5 1.7-.8 2.6-1.9 3.4l-.9-.7ZM213.9 69h-7.7v-1.8h10.2v1.4l-5.8 12.6h-2.4zM221.4 73.9c-1.7-.5-3.1-1.5-3.1-3.3s2.6-3.7 5.2-3.7 5.2 1.1 5.2 3.7-1.5 2.9-3.2 3.3c1.8.5 3.4 1.8 3.4 3.7s-2.5 3.8-5.4 3.8-5.4-1.4-5.4-3.8 1.6-3.1 3.4-3.7Zm2 1c-.9 0-3.2.8-3.2 2.5s1.5 2.2 3.2 2.2 3.2-.8 3.2-2.2-2.3-2.4-3.2-2.5m0-6.1c-1.7 0-3 .8-3 2.1s2.1 2 3 2.2c.9 0 3-.7 3-2.2s-1.3-2.1-3-2.1M232.6 78.2c.7.8 1.6 1.3 3.1 1.3 2.8 0 4-2.6 4-5V74c-.7.9-2.3 2.1-4 2.1-2.6 0-4.9-1.5-4.9-4.5s2-4.6 5.3-4.6 5.8 3.4 5.8 7.2-2 7.2-6.2 7.2-3.2-.7-4.1-1.6l1.1-1.6zm3.5-9.4c-2.1 0-3.1 1.5-3.1 2.7 0 1.9 1.4 2.8 3.2 2.8s2.7-.7 3.4-1.9c-.1-1.6-1.1-3.6-3.5-3.6M183.6 90.5c2.3 0 3.9 1 5 2.4l-1.5.8c-.7-.9-2-1.6-3.4-1.6-2.6 0-4.6 1.9-4.6 4.6s2 4.6 4.6 4.6 2.6-.6 3.2-1.2v-2.2h-4v-1.6h5.9v4.4c-1.2 1.3-2.9 2.1-5 2.1-3.6 0-6.5-2.5-6.5-6.2s2.9-6.2 6.5-6.2h-.2ZM194.9 93.8c2.7 0 4.4 2 4.4 4.7v.4h-7.2c.1 1.5 1.3 2.7 3.1 2.7s2-.4 2.7-1l.8 1.1c-.9.8-2.2 1.3-3.6 1.3-2.7 0-4.7-1.8-4.7-4.6s1.9-4.6 4.5-4.6m-2.7 4h5.5c0-1.2-.8-2.6-2.8-2.6s-2.7 1.4-2.8 2.6zM207.6 97.2c0-1.4-.8-1.9-1.9-1.9s-2 .6-2.5 1.3v6.2h-1.7v-8.7h1.7v1.2c.6-.7 1.8-1.4 3.2-1.4s2.9 1 2.9 2.8v6.1h-1.7zM211.4 98.4c0-2.5 1.8-4.6 4.6-4.6s4.6 2.1 4.6 4.6-1.7 4.6-4.6 4.6-4.6-2.1-4.6-4.6m7.4 0c0-1.6-1-3.1-2.8-3.1s-2.8 1.5-2.8 3.1 1 3.1 2.8 3.1 2.8-1.5 2.8-3.1M233.7 97c0-1-.5-1.7-1.6-1.7s-1.8.6-2.3 1.2v6.2h-1.7v-5.8c0-1-.5-1.7-1.6-1.7s-1.8.6-2.2 1.3v6.2h-1.7V94h1.7v1.2c.4-.5 1.6-1.4 2.9-1.4s2.2.7 2.5 1.6c.5-.8 1.7-1.6 3.1-1.6s2.6.9 2.6 2.6v6.3h-1.7v-5.8ZM242.1 93.8c2.7 0 4.4 2 4.4 4.7v.4h-7.2c.1 1.5 1.3 2.7 3.1 2.7s2-.4 2.7-1l.8 1.1c-.9.8-2.2 1.3-3.6 1.3-2.7 0-4.7-1.8-4.7-4.6s1.9-4.6 4.5-4.6m-2.8 4h5.5c0-1.2-.8-2.6-2.8-2.6s-2.7 1.4-2.8 2.6zM248.6 100.4c.6.6 1.8 1.2 3 1.2s2-.5 2-1.2-1-1.2-2.2-1.4c-1.5-.3-3.3-.7-3.3-2.6s1.2-2.6 3.5-2.6 2.7.5 3.5 1.2l-.8 1.1c-.5-.6-1.5-1.1-2.7-1.1s-1.9.4-1.9 1.1 1 1 2.1 1.3c1.6.3 3.5.8 3.5 2.8s-1.3 2.7-3.7 2.7-2.9-.4-3.8-1.4l.8-1.2Z" class="st4"/><path d="M271.1 21.2H361v102.2h-89.9z" class="st2"/><path d="M309.4 50.6h-2.7V56h-2.2V42h6.2c2.8 0 4.7 1.7 4.7 4.3s-1.8 3.9-3.6 4.1l3.7 5.6H313l-3.5-5.4zm.9-6.8h-3.7v4.9h3.7c1.6 0 2.7-1 2.7-2.5s-1.1-2.5-2.7-2.5ZM317.5 54.3c5.5-4 8-6.1 8-8.3s-1.4-2.4-2.8-2.4-3.1.7-4 1.7l-1.3-1.4c1.2-1.4 3.2-2.2 5.2-2.2s5.1 1.4 5.1 4.2-2.7 5.2-6.7 8.1h6.8v1.8h-10.3v-1.7zM287.9 69.9l-2.4 2.4-1.3-1.3 3.9-3.8h1.9v14h-2.2V69.9zM294.5 78.2c.7.8 1.6 1.3 3.1 1.3 2.8 0 4-2.6 4-5V74c-.7.9-2.3 2.1-4 2.1-2.6 0-4.9-1.5-4.9-4.5s2-4.6 5.3-4.6 5.8 3.4 5.8 7.2-2 7.2-6.2 7.2-3.2-.7-4.1-1.6l1.1-1.6Zm3.5-9.4c-2.1 0-3.1 1.5-3.1 2.7 0 1.9 1.4 2.8 3.2 2.8s2.7-.7 3.4-1.9c-.1-1.6-1.1-3.6-3.5-3.6M305.4 83.1c.7-.4 1.4-1.3 1.5-2h-.3c-.7 0-1.2-.5-1.2-1.2s.6-1.3 1.3-1.3 1.5.6 1.5 1.7-.8 2.6-1.9 3.4l-.9-.7ZM312.2 78.2c.7.8 1.6 1.3 3.1 1.3 2.8 0 4-2.6 4-5V74c-.7.9-2.3 2.1-4 2.1-2.6 0-4.9-1.5-4.9-4.5s2-4.6 5.3-4.6 5.8 3.4 5.8 7.2-2 7.2-6.2 7.2-3.2-.7-4.1-1.6l1.1-1.6Zm3.5-9.4c-2.1 0-3.1 1.5-3.1 2.7 0 1.9 1.4 2.8 3.2 2.8s2.7-.7 3.4-1.9c-.1-1.6-1.1-3.6-3.5-3.6M323.6 79.5c5.5-4 8-6.1 8-8.3s-1.4-2.4-2.8-2.4-3.1.7-4 1.7l-1.3-1.4c1.2-1.4 3.2-2.2 5.2-2.2s5.1 1.4 5.1 4.2-2.7 5.2-6.7 8.1h6.8V81h-10.3v-1.7zM336.5 79.5c5.5-4 8-6.1 8-8.3s-1.4-2.4-2.8-2.4-3.1.7-4 1.7l-1.3-1.4c1.2-1.4 3.2-2.2 5.2-2.2s5.1 1.4 5.1 4.2-2.7 5.2-6.7 8.1h6.8V81h-10.3v-1.7zM285 90.7h8.4v1.6h-6.5v3.5h6.4v1.6h-6.4v3.7h6.5v1.6H285zM299 99.4l-2.6 3.4h-1.9l3.4-4.5-3.2-4.2h1.9l2.3 3.1 2.3-3.1h1.9l-3.2 4.2 3.4 4.5h-1.9l-2.5-3.4zM303.9 98.4c0-2.5 1.8-4.6 4.6-4.6s4.6 2.1 4.6 4.6-1.7 4.6-4.6 4.6-4.6-2.1-4.6-4.6m7.4 0c0-1.6-1-3.1-2.8-3.1s-2.8 1.5-2.8 3.1 1 3.1 2.8 3.1 2.8-1.5 2.8-3.1M326.2 97c0-1-.5-1.7-1.6-1.7s-1.8.6-2.3 1.2v6.2h-1.7v-5.8c0-1-.5-1.7-1.6-1.7s-1.8.6-2.2 1.3v6.2h-1.7V94h1.7v1.2c.4-.5 1.6-1.4 2.9-1.4s2.2.7 2.5 1.6c.5-.8 1.7-1.6 3.1-1.6s2.6.9 2.6 2.6v6.3h-1.7v-5.8ZM334.5 93.8c2.7 0 4.4 2 4.4 4.7v.4h-7.2c.1 1.5 1.3 2.7 3.1 2.7s2-.4 2.7-1l.8 1.1c-.9.8-2.2 1.3-3.6 1.3-2.7 0-4.7-1.8-4.7-4.6s1.9-4.6 4.5-4.6m-2.7 4h5.5c0-1.2-.8-2.6-2.8-2.6s-2.7 1.4-2.8 2.6ZM341.1 100.4c.6.6 1.8 1.2 3 1.2s2-.5 2-1.2-1-1.2-2.2-1.4c-1.5-.3-3.3-.7-3.3-2.6s1.2-2.6 3.5-2.6 2.7.5 3.5 1.2l-.8 1.1c-.5-.6-1.5-1.1-2.7-1.1s-1.9.4-1.9 1.1 1 1 2.1 1.3c1.6.3 3.5.8 3.5 2.8s-1.3 2.7-3.7 2.7-2.9-.4-3.8-1.4l.8-1.2Z" class="st4"/><path d="M371.1 21.2H461v102.2h-89.9z" class="st2"/><path d="M409.6 50.6h-2.7V56h-2.2V42h6.2c2.8 0 4.7 1.7 4.7 4.3s-1.8 3.9-3.6 4.1l3.7 5.6h-2.5l-3.5-5.4zm1-6.8h-3.7v4.9h3.7c1.6 0 2.7-1 2.7-2.5s-1.1-2.5-2.7-2.5ZM418.4 52.5c.9 1.1 2.4 1.8 4.1 1.8s3.2-.9 3.2-2.4-1.3-2.2-3.4-2.2h-1.6v-1.9h1.6c1.8 0 3.2-.6 3.2-2.1s-1.4-2.2-3.1-2.2-2.7.6-3.8 1.6l-1.2-1.3c1.1-1.2 2.8-2.2 5.2-2.2s5.1 1.4 5.1 3.8-1.7 3-3.2 3.2c1.4 0 3.4 1.2 3.4 3.4s-2 4.1-5.3 4.1-4.4-1-5.4-2.3l1.2-1.4ZM387.3 69.9l-2.4 2.4-1.3-1.3 3.9-3.8h1.9v14h-2.2V69.9zM398.3 66.9c1.8 0 3.2.7 4.1 1.6l-1.1 1.6c-.7-.8-1.6-1.3-3-1.3-2.6 0-4 2.5-4 5.1v.5c.6-.9 2.2-2.1 4-2.1 2.6 0 4.8 1.5 4.8 4.5s-2 4.6-5.3 4.6-5.8-3.4-5.8-7.2 2-7.2 6.2-7.2Zm-.5 7.2c-1.4 0-2.7.8-3.4 1.9.2 1.6 1.1 3.6 3.5 3.6s3.2-1.5 3.2-2.7c0-1.9-1.4-2.8-3.2-2.8zM405.4 83.1c.7-.4 1.4-1.3 1.5-2h-.3c-.7 0-1.2-.5-1.2-1.2s.6-1.3 1.3-1.3 1.5.6 1.5 1.7-.8 2.6-1.9 3.4l-.9-.7ZM412.1 78.2c.7.8 1.6 1.3 3.1 1.3 2.8 0 4-2.6 4-5V74c-.7.9-2.3 2.1-4 2.1-2.6 0-4.9-1.5-4.9-4.5s2-4.6 5.3-4.6 5.8 3.4 5.8 7.2-2 7.2-6.2 7.2-3.2-.7-4.1-1.6l1.1-1.6Zm3.6-9.4c-2.1 0-3.1 1.5-3.1 2.7 0 1.9 1.4 2.8 3.2 2.8s2.7-.7 3.4-1.9c-.1-1.6-1.1-3.6-3.5-3.6M429.1 66.9c4.1 0 5.7 3.8 5.7 7.2s-1.7 7.2-5.7 7.2-5.7-3.8-5.7-7.2 1.7-7.2 5.7-7.2m0 1.9c-2.6 0-3.5 2.6-3.5 5.4s.9 5.4 3.5 5.4 3.5-2.6 3.5-5.4-.9-5.4-3.5-5.4M438.5 77.8c1 1.1 2.3 1.8 4 1.8s3.2-1.2 3.2-2.7-1.2-2.8-3.1-2.8-2.3.4-3.3 1.3l-1.6-.5v-7.7h9.2V69h-7.1v4.5c.7-.7 1.9-1.2 3.4-1.2 2.5 0 4.7 1.6 4.7 4.5s-2.3 4.7-5.4 4.7-4.2-.8-5.3-2.2l1.3-1.4ZM383.5 90.5c2.3 0 3.9 1 5 2.4l-1.5.8c-.7-.9-2-1.6-3.4-1.6-2.6 0-4.6 1.9-4.6 4.6s2 4.6 4.6 4.6 2.6-.6 3.2-1.2v-2.2h-4v-1.6h5.9v4.4c-1.2 1.3-2.9 2.1-5 2.1-3.6 0-6.5-2.5-6.5-6.2s2.9-6.2 6.5-6.2h-.2ZM394.9 93.8c2.7 0 4.4 2 4.4 4.7v.4h-7.2c.1 1.5 1.3 2.7 3.1 2.7s2-.4 2.7-1l.8 1.1c-.9.8-2.2 1.3-3.6 1.3-2.7 0-4.7-1.8-4.7-4.6s1.9-4.6 4.5-4.6m-2.8 4h5.5c0-1.2-.8-2.6-2.8-2.6s-2.7 1.4-2.8 2.6ZM407.5 97.2c0-1.4-.8-1.9-1.9-1.9s-2 .6-2.5 1.3v6.2h-1.7v-8.7h1.7v1.2c.6-.7 1.8-1.4 3.2-1.4s2.9 1 2.9 2.8v6.1h-1.7zM411.3 98.4c0-2.5 1.8-4.6 4.6-4.6s4.6 2.1 4.6 4.6-1.7 4.6-4.6 4.6-4.6-2.1-4.6-4.6m7.4 0c0-1.6-1-3.1-2.8-3.1s-2.8 1.5-2.8 3.1 1 3.1 2.8 3.1 2.8-1.5 2.8-3.1M433.7 97c0-1-.5-1.7-1.6-1.7s-1.8.6-2.3 1.2v6.2h-1.7v-5.8c0-1-.5-1.7-1.6-1.7s-1.8.6-2.2 1.3v6.2h-1.7V94h1.7v1.2c.4-.5 1.6-1.4 2.9-1.4s2.2.7 2.5 1.6c.5-.8 1.7-1.6 3.1-1.6s2.6.9 2.6 2.6v6.3h-1.7v-5.8ZM442 93.8c2.7 0 4.4 2 4.4 4.7v.4h-7.2c.1 1.5 1.3 2.7 3.1 2.7s2-.4 2.7-1l.8 1.1c-.9.8-2.2 1.3-3.6 1.3-2.7 0-4.7-1.8-4.7-4.6s1.9-4.6 4.5-4.6m-2.8 4h5.5c0-1.2-.8-2.6-2.8-2.6s-2.7 1.4-2.8 2.6ZM448.6 100.4c.6.6 1.8 1.2 3 1.2s2-.5 2-1.2-1-1.2-2.2-1.4c-1.5-.3-3.3-.7-3.3-2.6s1.2-2.6 3.5-2.6 2.7.5 3.5 1.2l-.8 1.1c-.5-.6-1.5-1.1-2.7-1.1s-1.9.4-1.9 1.1 1 1 2.1 1.3c1.6.3 3.5.8 3.5 2.8s-1.3 2.7-3.7 2.7-2.9-.4-3.8-1.4l.8-1.2Z" class="st4"/><path d="M471.1 21.2H561v102.2h-89.9zM571 21.2h89.9v102.2H571zM768.8 21.2h218.8v102.2H768.8z" class="st2"/><path d="M839.5 54.5h9.8v1.8h-7.6v4.1h7.5v1.8h-7.5v6.2h-2.2v-14ZM851.7 54.5h2.2V63c0 2.4 1.4 3.9 3.9 3.9s3.9-1.5 3.9-3.9v-8.5h2.2V63c0 3.5-2 5.8-6.1 5.8s-6.2-2.3-6.2-5.7v-8.5ZM867.5 65c1 1 2.6 2 4.6 2s3.2-1.2 3.2-2.2c0-1.5-1.7-1.9-3.5-2.4-2.3-.6-5.1-1.2-5.1-4.1s2.1-4 5.2-4 4 .7 5.3 2l-1.3 1.6c-1.1-1.1-2.6-1.6-4.2-1.6s-2.7.8-2.7 2 1.6 1.7 3.4 2.1c2.4.6 5.2 1.3 5.2 4.3s-1.6 4.2-5.5 4.2-4.5-.9-5.8-2.2l1.2-1.6ZM885.2 66.9c5.5-4 8-6.1 8-8.3s-1.4-2.4-2.8-2.4-3.1.7-4 1.7l-1.3-1.4c1.2-1.4 3.2-2.2 5.2-2.2s5.1 1.4 5.1 4.2-2.7 5.2-6.7 8.1h6.8v1.8h-10.3v-1.7zM899.7 66.2c.7 0 1.4.6 1.4 1.3s-.6 1.3-1.4 1.3-1.4-.6-1.4-1.3.6-1.3 1.4-1.3M909 54.3c4.1 0 5.7 3.8 5.7 7.2s-1.7 7.2-5.7 7.2-5.7-3.8-5.7-7.2 1.7-7.2 5.7-7.2m0 1.9c-2.6 0-3.5 2.6-3.5 5.4s.9 5.4 3.5 5.4 3.5-2.6 3.5-5.4-.9-5.4-3.5-5.4M808.8 87.7h-6.1l-1 2.5h-2.1l5-12h2.3l5 12h-2.1zm-5.6-1.6h5l-2.5-6.4zM819.8 88.9c-.7.9-1.8 1.5-3 1.5-2.4 0-4.1-1.7-4.1-4.6s1.7-4.6 4.1-4.6 2.2.5 3 1.5v-4.6h1.7v12h-1.7zm0-4.9c-.5-.7-1.5-1.3-2.5-1.3-1.7 0-2.7 1.3-2.7 3.1s1.1 3.1 2.7 3.1 2-.6 2.5-1.3v-3.7ZM830.5 88.9c-.7.9-1.8 1.5-3 1.5-2.4 0-4.1-1.7-4.1-4.6s1.7-4.6 4.1-4.6 2.2.5 3 1.5v-4.6h1.7v12h-1.7zm0-4.9c-.5-.7-1.5-1.3-2.5-1.3-1.7 0-2.7 1.3-2.7 3.1s1.1 3.1 2.7 3.1 2-.6 2.5-1.3v-3.7ZM834.8 79c0-.6.5-1 1.1-1s1.1.5 1.1 1-.5 1-1.1 1-1.1-.5-1.1-1m.2 2.5h1.7v8.7H835zM839.7 88.2v-5.3h-1.5v-1.4h1.5v-2.4h1.7v2.4h1.8v1.4h-1.8v5c0 .6.3 1.1.9 1.1s.8-.2.9-.3l.4 1.2c-.4.3-.9.6-1.8.6-1.4 0-2.2-.8-2.2-2.1v-.2ZM844.9 79c0-.6.5-1 1.1-1s1.1.5 1.1 1-.5 1-1.1 1-1.1-.5-1.1-1m.1 2.5h1.7v8.7H845zM848.9 85.8c0-2.5 1.8-4.6 4.6-4.6s4.6 2.1 4.6 4.6-1.7 4.6-4.6 4.6-4.6-2.1-4.6-4.6m7.3 0c0-1.6-1-3.1-2.8-3.1s-2.8 1.5-2.8 3.1 1 3.1 2.8 3.1 2.8-1.5 2.8-3.1M866.4 84.6c0-1.4-.8-1.9-1.9-1.9s-2 .6-2.5 1.3v6.2h-1.7v-8.7h1.7v1.2c.6-.7 1.8-1.4 3.2-1.4s2.9 1 2.9 2.8v6.1h-1.7zM876.2 89.2q-1.05 1.2-3 1.2c-1.95 0-3.2-1-3.2-2.9s1.6-2.8 3.2-2.8 2.3.4 3 1.2v-1.4c0-1.1-.9-1.7-2.2-1.7s-1.9.4-2.7 1.2l-.7-1.1c1-1 2.3-1.4 3.7-1.4s3.6.8 3.6 3v5.9h-1.7zm0-2.4c-.5-.6-1.4-1-2.3-1s-2.1.7-2.1 1.7.9 1.7 2.1 1.7 1.8-.3 2.3-1v-1.5ZM880.7 78.1h1.7v12h-1.7zM889.4 84.2c0-3.7 2.9-6.2 6.4-6.2s4 1.1 5 2.5l-1.6.8c-.7-1-1.9-1.7-3.4-1.7-2.5 0-4.5 1.9-4.5 4.6s2 4.6 4.5 4.6 2.7-.7 3.4-1.7l1.6.8c-1 1.4-2.5 2.5-5 2.5-3.6 0-6.4-2.5-6.4-6.2M902 85.8c0-2.5 1.8-4.6 4.6-4.6s4.6 2.1 4.6 4.6-1.7 4.6-4.6 4.6-4.6-2.1-4.6-4.6m7.5 0c0-1.6-1-3.1-2.8-3.1s-2.8 1.5-2.8 3.1 1 3.1 2.8 3.1 2.8-1.5 2.8-3.1M919.5 84.6c0-1.4-.8-1.9-1.9-1.9s-2 .6-2.5 1.3v6.2h-1.7v-12h1.7v4.5c.6-.7 1.8-1.4 3.2-1.4s2.9.9 2.9 2.8v6.1h-1.7zM923.4 85.8c0-2.5 1.8-4.6 4.6-4.6s4.6 2.1 4.6 4.6-1.7 4.6-4.6 4.6-4.6-2.1-4.6-4.6m7.4 0c0-1.6-1-3.1-2.8-3.1s-2.8 1.5-2.8 3.1 1 3.1 2.8 3.1 2.8-1.5 2.8-3.1M934.7 81.5h1.7v1.3c.7-.9 1.8-1.5 3-1.5v1.6h-.6c-.8 0-2 .6-2.4 1.3v6h-1.7zM941.2 88.2v-5.3h-1.5v-1.4h1.5v-2.4h1.7v2.4h1.8v1.4h-1.8v5c0 .6.3 1.1.9 1.1s.8-.2.9-.3l.4 1.2c-.4.3-.9.6-1.8.6-1.4 0-2.2-.8-2.2-2.1v-.2ZM946.8 87.8c.6.6 1.8 1.2 3 1.2s2-.5 2-1.2-1-1.2-2.2-1.4c-1.5-.3-3.3-.7-3.3-2.6s1.2-2.6 3.5-2.6 2.7.5 3.5 1.2l-.8 1.1c-.5-.6-1.5-1.1-2.7-1.1s-1.9.4-1.9 1.1 1 1 2.1 1.3c1.6.3 3.5.8 3.5 2.8s-1.3 2.7-3.7 2.7-2.9-.5-3.8-1.4l.8-1.2Z" class="st4"/><path d="m224.6 165.4-3.6 15.5-9.5-12.7 4.3-.3-7.2-34.5 4.8-1 7.2 34.5zM349.2 159.6l2.9 15.6-13.8-7.8 3.8-2-20.5-28.7 4-2.9 20.5 28.7 3.1-3ZM448.4 162.4l1 15.9-12.7-9.5 4-1.5-16.8-31 4.3-2.3 16.8 31 3.5-2.6ZM533.6 165.5l-4 15.4-9.2-12.9 4.3-.2-6.5-34.7 4.8-.9 6.5 34.7zM15.7 36.8l-2.9 10.8h-2.2l-4-14H9l2.9 11.2L15 33.6h1.7l3 11.2 2.9-11.2H25l-4 14h-2.2l-2.9-10.8zM33.4 41.1c0-1.7-.9-2.2-2.2-2.2s-2.2.7-2.8 1.5v7.2h-1.9v-14h1.9v5.3c.7-.8 2-1.7 3.6-1.7s3.3 1.1 3.3 3.2v7.2h-1.9zM37.7 42.5c0-2.9 2-5.3 5.1-5.3s5.1 2.4 5.1 5.3-2 5.3-5.1 5.3-5.1-2.4-5.1-5.3m8.3 0c0-1.9-1.1-3.6-3.1-3.6s-3.1 1.7-3.1 3.6 1.1 3.7 3.1 3.7 3.1-1.7 3.1-3.7M50.4 33.6h1.9v14h-1.9zM59.7 37.2c3 0 4.9 2.4 4.9 5.5v.5h-8c0 1.7 1.4 3.1 3.4 3.1s2.2-.4 3-1.2l.9 1.2c-1 1-2.4 1.5-4.1 1.5-3 0-5.2-2.1-5.2-5.3s2.1-5.3 5.1-5.3m-3.1 4.6h6.2c0-1.3-.9-3-3.1-3s-3 1.6-3.1 3M79.2 33.4c2.6 0 4.4 1.2 5.5 2.8l-1.7 1c-.8-1.1-2.2-1.9-3.8-1.9-2.9 0-5.1 2.2-5.1 5.4s2.2 5.4 5.1 5.4 2.9-.8 3.5-1.4v-2.5h-4.5v-1.8h6.6v5.1C83.5 47 81.5 48 79.2 48c-4 0-7.3-2.9-7.3-7.3s3.3-7.2 7.3-7.2ZM91.9 37.2c3 0 4.9 2.4 4.9 5.5v.5h-8c0 1.7 1.4 3.1 3.4 3.1s2.2-.4 3-1.2l.9 1.2c-1 1-2.4 1.5-4.1 1.5-3 0-5.2-2.1-5.2-5.3s2.1-5.3 5.1-5.3m-3.1 4.6H95c0-1.3-.9-3-3.1-3s-3 1.6-3.1 3M106.1 41.1c0-1.7-.9-2.2-2.2-2.2s-2.2.7-2.8 1.5v7.2h-1.9V37.5h1.9v1.4c.7-.8 2-1.7 3.6-1.7s3.3 1.1 3.3 3.3v7.1h-1.9zM110.3 42.5c0-2.9 2-5.3 5.1-5.3s5.1 2.4 5.1 5.3-2 5.3-5.1 5.3-5.1-2.4-5.1-5.3m8.3 0c0-1.9-1.1-3.6-3.1-3.6s-3.1 1.7-3.1 3.6 1.1 3.7 3.1 3.7 3.1-1.7 3.1-3.7M135.3 40.8c0-1.2-.5-2-1.8-2s-2 .7-2.5 1.4v7.3h-1.9v-6.8c0-1.2-.5-2-1.8-2s-2 .7-2.5 1.5v7.2h-1.9V37.3h1.9v1.4c.4-.6 1.8-1.7 3.3-1.7s2.4.8 2.8 1.9c.6-.9 1.9-1.9 3.4-1.9s2.9 1 2.9 3.1v7.3h-1.9v-6.8zM144.6 37.2c3 0 4.9 2.4 4.9 5.5v.5h-8c.1 1.7 1.4 3.1 3.4 3.1s2.2-.4 3-1.2l.9 1.2c-1 1-2.4 1.5-4.1 1.5-3 0-5.2-2.1-5.2-5.3s2.1-5.3 5.1-5.3m-3.1 4.6h6.2c0-1.3-.9-3-3.1-3s-3 1.6-3.1 3M15.7 59.8l-2.9 10.8h-2.2l-4-14H9l2.9 11.2L15 56.6h1.7l3 11.2 2.9-11.2H25l-4 14h-2.2l-2.9-10.8zM33.4 64.1c0-1.7-.9-2.2-2.2-2.2s-2.2.7-2.8 1.5v7.2h-1.9v-14h1.9v5.3c.7-.8 2-1.7 3.6-1.7s3.3 1.1 3.3 3.2v7.2h-1.9zM37.7 65.5c0-2.9 2-5.3 5.1-5.3s5.1 2.4 5.1 5.3-2 5.3-5.1 5.3-5.1-2.4-5.1-5.3m8.3 0c0-1.9-1.1-3.6-3.1-3.6s-3.1 1.7-3.1 3.6 1.1 3.7 3.1 3.7 3.1-1.7 3.1-3.7M50.4 56.6h1.9v14h-1.9zM59.7 60.2c3 0 4.9 2.4 4.9 5.5v.5h-8c0 1.7 1.4 3.1 3.4 3.1s2.2-.4 3-1.2l.9 1.2c-1 1-2.4 1.5-4.1 1.5-3 0-5.2-2.1-5.2-5.3s2.1-5.3 5.1-5.3m-3.1 4.6h6.2c0-1.3-.9-3-3.1-3s-3 1.6-3.1 3M72.5 56.6h9.4v1.8h-7.3v4.1h7.2v1.8h-7.2v4.4h7.3v1.8h-9.4v-14ZM88.1 66.7l-2.9 3.9h-2.1l3.8-5.2-3.6-4.9h2.1l2.6 3.7 2.6-3.7h2.1l-3.6 4.9 3.8 5.2h-2.1L88 66.7ZM93.6 65.5c0-2.9 2-5.3 5.1-5.3s5.1 2.4 5.1 5.3-2 5.3-5.1 5.3-5.1-2.4-5.1-5.3m8.2 0c0-1.9-1.1-3.6-3.1-3.6s-3.1 1.7-3.1 3.6 1.1 3.7 3.1 3.7 3.1-1.7 3.1-3.7M118.5 63.8c0-1.2-.5-2-1.8-2s-2 .7-2.5 1.4v7.3h-1.9v-6.8c0-1.2-.5-2-1.8-2s-2 .7-2.5 1.5v7.2h-1.9V60.3h1.9v1.4c.4-.6 1.8-1.7 3.3-1.7s2.4.8 2.8 1.9c.6-.9 1.9-1.9 3.4-1.9s2.9 1 2.9 3.1v7.3h-1.9v-6.8zM127.9 60.2c3 0 4.9 2.4 4.9 5.5v.5h-8c0 1.7 1.4 3.1 3.4 3.1s2.2-.4 3-1.2l.9 1.2c-1 1-2.4 1.5-4.1 1.5-3 0-5.2-2.1-5.2-5.3s2.1-5.3 5.1-5.3m-3.1 4.6h6.2c0-1.3-.9-3-3.1-3s-3 1.6-3.1 3M7.9 79.6h5c4.4 0 7.3 3 7.3 7s-2.9 7-7.3 7h-5zm5 12.2c3.2 0 5.1-2.3 5.1-5.1s-1.8-5.2-5.1-5.2H10v10.3zM24.8 82.9v10.8h-2.1v-14h2.2l7.6 10.5V79.7h2.1v14h-2l-7.7-10.8ZM46.5 90.7h-6.9l-1.1 2.9h-2.3l5.6-14h2.6l5.6 14h-2.3l-1.1-2.9Zm-6.2-1.9h5.6l-2.8-7.4zM50.7 87.7h5v1.6h-5zM58.3 90c.9 1 2.5 2 4.4 2s3.1-1.2 3.1-2.2c0-1.5-1.6-1.9-3.4-2.4-2.2-.6-4.9-1.2-4.9-4.1s2-4 5-4 3.9.7 5.1 2l-1.2 1.6c-1.1-1.1-2.5-1.6-4.1-1.6s-2.6.8-2.6 2 1.5 1.7 3.3 2.1c2.3.6 5 1.3 5 4.3s-1.5 4.2-5.3 4.2-4.3-.9-5.5-2.2l1.2-1.6h-.1ZM74.8 83.2c3 0 4.9 2.4 4.9 5.5v.5h-8c0 1.7 1.4 3.1 3.4 3.1s2.2-.4 3-1.2l.9 1.2c-1 1-2.4 1.5-4.1 1.5-3 0-5.2-2.1-5.2-5.3s2.1-5.3 5.1-5.3m-3.1 4.6h6.2c0-1.3-.9-3-3.1-3s-3 1.6-3.1 3M89.3 97.5v-5.3c-.8 1.1-2 1.7-3.3 1.7-2.6 0-4.5-2-4.5-5.3s1.9-5.3 4.5-5.3 2.6.7 3.3 1.7v-1.4h1.9v14h-1.9Zm0-11.1c-.5-.8-1.7-1.5-2.8-1.5-1.9 0-3.1 1.5-3.1 3.6s1.2 3.7 3.1 3.7 2.3-.7 2.8-1.5zM7.9 270.5h5.9c2.9 0 4.5 2 4.5 4.3s-1.6 4.3-4.5 4.3H10v5.4H7.9zm5.6 1.8H10v4.9h3.5c1.5 0 2.6-1 2.6-2.5s-1.1-2.5-2.6-2.5ZM27.2 277.9c0-1.7-.9-2.2-2.2-2.2s-2.2.7-2.8 1.5v7.2h-1.9v-14h1.9v5.3c.7-.8 2-1.7 3.6-1.7s3.3 1.1 3.3 3.2v7.2h-1.9zM36.6 274.1c3 0 4.9 2.4 4.9 5.5v.5h-8c0 1.7 1.4 3.1 3.4 3.1s2.2-.4 3-1.2l.9 1.2c-1 1-2.4 1.5-4.1 1.5-3 0-5.2-2.1-5.2-5.3s2.1-5.3 5.1-5.3m-3.1 4.6h6.2c0-1.3-.9-3-3.1-3s-3 1.6-3.1 3M50.7 278c0-1.7-.9-2.2-2.2-2.2s-2.2.7-2.8 1.5v7.2h-1.9v-10.1h1.9v1.4c.7-.8 2-1.7 3.6-1.7s3.3 1.1 3.3 3.3v7.1h-1.9zM55 279.4c0-2.9 2-5.3 5.1-5.3s5.1 2.4 5.1 5.3-2 5.3-5.1 5.3-5.1-2.4-5.1-5.3m8.3 0c0-1.9-1.1-3.6-3.1-3.6s-3.1 1.7-3.1 3.6 1.1 3.7 3.1 3.7 3.1-1.7 3.1-3.7M68 282.2V276h-1.7v-1.7H68v-2.8h1.9v2.8H72v1.7h-2.1v5.8c0 .7.3 1.2 1 1.2s.8-.2 1-.4l.5 1.4c-.4.4-1 .7-2 .7-1.6 0-2.4-.9-2.4-2.5M74.7 286.9c.7 0 1.2-.2 1.5-1l.6-1.3-4.2-10.2h2l3.2 8 3.2-8h2l-5 12.1c-.7 1.6-1.8 2.2-3.2 2.2s-.9 0-1.2-.1l.3-1.7c.2.1.6.2.8.2zM84.5 288.3v-14h1.9v1.4c.7-1 2-1.7 3.3-1.7 2.6 0 4.5 2 4.5 5.3s-1.9 5.3-4.5 5.3-2.5-.6-3.3-1.7v5.3h-1.9Zm4.7-12.5c-1.2 0-2.3.7-2.8 1.5v4.3c.5.8 1.7 1.5 2.8 1.5 1.9 0 3-1.5 3-3.7s-1.2-3.6-3-3.6M101.1 274.1c3 0 4.9 2.4 4.9 5.5v.5h-8c0 1.7 1.4 3.1 3.4 3.1s2.2-.4 3-1.2l.9 1.2c-1 1-2.4 1.5-4.1 1.5-3 0-5.2-2.1-5.2-5.3s2.1-5.3 5.1-5.3m-3.1 4.6h6.2c0-1.3-.9-3-3.1-3s-3 1.6-3.1 3M14.7 300.9c0-1.7-.9-2.2-2.2-2.2s-2.2.7-2.8 1.5v7.2H7.8v-14h1.9v5.3c.7-.8 2-1.7 3.6-1.7s3.3 1.1 3.3 3.2v7.2h-1.9zM25.9 306.4c-.8.9-2 1.4-3.3 1.4s-3.5-1.1-3.5-3.4 1.8-3.3 3.5-3.3 2.5.4 3.3 1.3v-1.7c0-1.3-1-2-2.5-2s-2.1.4-3 1.3l-.8-1.3c1.1-1.1 2.5-1.7 4.2-1.7s4.1 1 4.1 3.5v6.8H26v-1.1.2Zm0-2.9c-.6-.8-1.6-1.2-2.6-1.2s-2.3.8-2.3 2 1 2 2.3 2 2-.4 2.6-1.2v-1.7ZM30.8 297.3h1.9v1.6c.8-1 2-1.8 3.3-1.8v1.9h-.7c-.9 0-2.2.7-2.7 1.5v7.1h-1.9v-10.3ZM50.2 300.7c0-1.2-.5-2-1.8-2s-2 .7-2.5 1.4v7.3H44v-6.8c0-1.2-.5-2-1.8-2s-2 .7-2.5 1.5v7.2h-1.9v-10.1h1.9v1.4c.4-.6 1.8-1.7 3.3-1.7s2.4.8 2.8 1.9c.6-.9 1.9-1.9 3.4-1.9s2.9 1 2.9 3.1v7.3h-1.9v-6.8zM54.5 302.4c0-2.9 2-5.3 5.1-5.3s5.1 2.4 5.1 5.3-2 5.3-5.1 5.3-5.1-2.4-5.1-5.3m8.2 0c0-1.9-1.1-3.6-3.1-3.6s-3.1 1.7-3.1 3.6 1.1 3.7 3.1 3.7 3.1-1.7 3.1-3.7M73.9 301c0-1.7-.9-2.2-2.2-2.2s-2.2.7-2.8 1.5v7.2H67v-10.1h1.9v1.4c.7-.8 2-1.7 3.6-1.7s3.3 1.1 3.3 3.3v7.1h-1.9zM78.5 294.4c0-.7.6-1.2 1.2-1.2s1.2.5 1.2 1.2-.5 1.2-1.2 1.2-1.2-.5-1.2-1.2m.3 2.9h1.9v10.1h-1.9zM83.2 306l5.3-7h-5.3v-1.7H91v1.4l-5.3 7.1h5.4v1.6h-7.9zM99.9 306.4c-.8.9-2 1.4-3.3 1.4s-3.5-1.1-3.5-3.4 1.8-3.3 3.5-3.3 2.5.4 3.3 1.3v-1.7c0-1.3-1-2-2.5-2s-2.1.4-3 1.3l-.8-1.3c1.1-1.1 2.5-1.7 4.2-1.7s4.1 1 4.1 3.5v6.8H100v-1.1.2Zm0-2.9c-.6-.8-1.6-1.2-2.6-1.2s-2.3.8-2.3 2 1 2 2.3 2 2-.4 2.6-1.2v-1.7ZM105.2 305.2V299h-1.7v-1.7h1.7v-2.8h1.9v2.8h2.1v1.7h-2.1v5.8c0 .7.3 1.2 1 1.2s.8-.2 1-.4l.5 1.4c-.4.4-1 .7-2 .7-1.6 0-2.4-.9-2.4-2.5M111 294.4c0-.7.6-1.2 1.2-1.2s1.2.5 1.2 1.2-.5 1.2-1.2 1.2-1.2-.5-1.2-1.2m.3 2.9h1.9v10.1h-1.9zM115.5 302.4c0-2.9 2-5.3 5.1-5.3s5.1 2.4 5.1 5.3-2 5.3-5.1 5.3-5.1-2.4-5.1-5.3m8.3 0c0-1.9-1.1-3.6-3.1-3.6s-3.1 1.7-3.1 3.6 1.1 3.7 3.1 3.7 3.1-1.7 3.1-3.7M135 301c0-1.7-.9-2.2-2.2-2.2s-2.2.7-2.8 1.5v7.2h-1.9v-10.1h1.9v1.4c.7-.8 2-1.7 3.6-1.7s3.3 1.1 3.3 3.3v7.1H135zM7.9 463h9.4v1.8H10v4.1h7.2v1.8H10v6.2H7.9v-14ZM26.4 475.7c-.8.8-2.1 1.6-3.6 1.6s-3.2-1.1-3.2-3.2v-7.2h1.9v6.5c0 1.7.8 2.2 2.1 2.2s2.2-.7 2.8-1.4v-7.3h1.9V477h-1.9v-1.4ZM38.1 470.5c0-1.7-.9-2.2-2.2-2.2s-2.2.7-2.8 1.5v7.2h-1.9v-10.1h1.9v1.4c.7-.8 2-1.7 3.6-1.7s3.3 1.1 3.3 3.3v7.1h-1.9zM47.5 466.6c1.9 0 3.1.8 3.8 1.8l-1.3 1.2c-.6-.9-1.4-1.3-2.5-1.3-2 0-3.3 1.5-3.3 3.6s1.3 3.7 3.3 3.7 1.8-.4 2.5-1.3l1.3 1.2c-.7 1-1.9 1.8-3.8 1.8-3.1 0-5.2-2.3-5.2-5.3s2.1-5.3 5.2-5.3ZM53.8 474.8v-6.2h-1.7v-1.7h1.7v-2.8h1.9v2.8h2.1v1.7h-2.1v5.8c0 .7.3 1.2 1 1.2s.8-.2 1-.4l.5 1.4c-.4.4-1 .7-2 .7-1.6 0-2.4-.9-2.4-2.5M59.5 464c0-.7.6-1.2 1.2-1.2s1.2.5 1.2 1.2-.5 1.2-1.2 1.2-1.2-.5-1.2-1.2m.3 2.9h1.9V477h-1.9zM64.1 472c0-2.9 2-5.3 5.1-5.3s5.1 2.4 5.1 5.3-2 5.3-5.1 5.3-5.1-2.4-5.1-5.3m8.3 0c0-1.9-1.1-3.6-3.1-3.6s-3.1 1.7-3.1 3.6 1.1 3.7 3.1 3.7 3.1-1.7 3.1-3.7M83.6 470.5c0-1.7-.9-2.2-2.2-2.2s-2.2.7-2.8 1.5v7.2h-1.9v-10.1h1.9v1.4c.7-.8 2-1.7 3.6-1.7s3.3 1.1 3.3 3.3v7.1h-1.9zM94.7 475.9c-.8.9-2 1.4-3.3 1.4s-3.5-1.1-3.5-3.4 1.8-3.3 3.5-3.3 2.5.4 3.3 1.3v-1.7c0-1.3-1-2-2.5-2s-2.1.4-3 1.3l-.8-1.3c1.1-1.1 2.5-1.7 4.2-1.7s4.1 1 4.1 3.5v6.8h-1.9v-1.1.2Zm0-2.8c-.6-.8-1.6-1.2-2.6-1.2s-2.3.8-2.3 2 1 2 2.3 2 2-.4 2.6-1.2V473ZM99.6 463h1.9v14h-1.9zM14.6 485.8c2.6 0 4.4 1.2 5.5 2.8l-1.7 1c-.8-1.1-2.2-1.9-3.8-1.9-2.9 0-5.1 2.2-5.1 5.4s2.2 5.4 5.1 5.4 2.9-.8 3.5-1.4v-2.5h-4.5v-1.8h6.6v5.1c-1.3 1.5-3.3 2.5-5.6 2.5-4 0-7.3-2.9-7.3-7.3s3.3-7.2 7.3-7.2ZM27.3 489.6c3 0 4.9 2.4 4.9 5.5v.5h-8c.1 1.7 1.4 3.1 3.4 3.1s2.2-.4 3-1.2l.9 1.2c-1 1-2.4 1.5-4.1 1.5-3 0-5.2-2.1-5.2-5.3s2.1-5.3 5.1-5.3m-3.1 4.6h6.2c0-1.3-.9-3-3.1-3s-3 1.6-3.1 3M41.5 493.5c0-1.7-.9-2.2-2.2-2.2s-2.2.7-2.8 1.5v7.2h-1.9v-10.1h1.9v1.4c.7-.8 2-1.7 3.6-1.7s3.3 1.1 3.3 3.3v7.1h-1.9zM45.7 495c0-2.9 2-5.3 5.1-5.3s5.1 2.4 5.1 5.3-2 5.3-5.1 5.3-5.1-2.4-5.1-5.3m8.3 0c0-1.9-1.1-3.6-3.1-3.6s-3.1 1.7-3.1 3.6 1.1 3.7 3.1 3.7S54 497 54 495M70.7 493.3c0-1.2-.5-2-1.8-2s-2 .7-2.5 1.4v7.3h-1.9v-6.8c0-1.2-.5-2-1.8-2s-2 .7-2.5 1.5v7.2h-1.9v-10.1h1.9v1.4c.4-.6 1.8-1.7 3.3-1.7s2.4.8 2.8 1.9c.6-.9 1.9-1.9 3.4-1.9s2.9 1 2.9 3.1v7.3h-1.9v-6.8zM75.3 487c0-.7.6-1.2 1.2-1.2s1.2.5 1.2 1.2-.5 1.2-1.2 1.2-1.2-.5-1.2-1.2m.3 2.9h1.9V500h-1.9zM85 489.6c1.9 0 3.1.8 3.8 1.8l-1.3 1.2c-.6-.9-1.4-1.3-2.5-1.3-2 0-3.3 1.5-3.3 3.6s1.3 3.7 3.3 3.7 1.8-.4 2.5-1.3l1.3 1.2c-.7 1-1.9 1.8-3.8 1.8-3.1 0-5.2-2.3-5.2-5.3s2.1-5.3 5.2-5.3ZM90.9 497.3c.7.8 2 1.4 3.4 1.4s2.2-.6 2.2-1.4-1.2-1.3-2.5-1.6c-1.7-.4-3.7-.9-3.7-3s1.4-3 3.9-3 3 .6 3.9 1.4l-.8 1.3c-.6-.7-1.7-1.2-3-1.2s-2.1.5-2.1 1.3 1.1 1.2 2.4 1.5c1.8.4 3.9.9 3.9 3.2s-1.4 3.1-4.1 3.1-3.2-.5-4.2-1.6l.9-1.4z" class="st0"/><path d="M416.1 272h165.6v26.9H416.1z" class="st6"/><path d="M416.1 449.3h571.6v26.9H416.1z" class="st1"/><path d="M446.4 466.7h-6.5l-1.1 2.8h-2.2l5.3-13.3h2.5l5.3 13.3h-2.2zm-5.9-1.8h5.4l-2.7-7.1zM451.3 456.1h4.8c4.2 0 6.9 2.8 6.9 6.7s-2.8 6.7-6.9 6.7h-4.8v-13.3Zm4.8 11.6c3.1 0 4.9-2.2 4.9-4.9s-1.7-4.9-4.9-4.9h-2.8v9.8zM465.7 466c.9 1 2.3 1.9 4.2 1.9s2.9-1.1 2.9-2.1-1.5-1.8-3.2-2.2c-2.1-.6-4.6-1.2-4.6-3.9s1.9-3.8 4.7-3.8 3.7.7 4.9 1.9l-1.2 1.5c-1-1.1-2.4-1.6-3.9-1.6s-2.5.8-2.5 1.9 1.4 1.6 3.1 2c2.2.6 4.7 1.3 4.7 4.1s-1.4 4-5 4-4.1-.9-5.3-2.1l1.1-1.5ZM477.2 456.1h5.6c2.7 0 4.3 1.9 4.3 4.1s-1.5 4.1-4.3 4.1h-3.6v5.1h-2zm5.4 1.8h-3.4v4.7h3.4c1.4 0 2.5-.9 2.5-2.3s-1-2.3-2.5-2.3ZM494.3 456.1h9v1.8h-7v3.9h6.8v1.8h-6.8v5.9h-2v-13.3ZM511.9 468.1c-.7.8-2 1.6-3.4 1.6s-3.1-1-3.1-3.1v-6.8h1.8v6.2c0 1.6.8 2.1 2 2.1s2.1-.6 2.7-1.4v-6.9h1.8v9.7h-1.8v-1.3ZM523.1 463.3c0-1.6-.8-2.1-2.1-2.1s-2.1.7-2.7 1.4v6.9h-1.8v-9.7h1.8v1.4c.6-.8 1.9-1.6 3.4-1.6s3.1 1.1 3.1 3.1v6.8H523v-6.2ZM532.1 459.5c1.8 0 2.9.8 3.6 1.7l-1.2 1.1c-.6-.8-1.4-1.2-2.3-1.2-1.9 0-3.1 1.5-3.1 3.5s1.2 3.5 3.1 3.5 1.8-.4 2.3-1.2l1.2 1.1c-.7.9-1.8 1.7-3.6 1.7-2.9 0-4.9-2.2-4.9-5.1s2-5.1 4.9-5.1M538 467.3v-5.9h-1.6v-1.6h1.6v-2.6h1.8v2.6h2v1.6h-2v5.5c0 .7.3 1.2.9 1.2s.8-.2 1-.4l.5 1.4c-.4.4-.9.6-1.9.6-1.5 0-2.3-.9-2.3-2.4M543.5 457c0-.6.5-1.2 1.2-1.2s1.2.5 1.2 1.2-.5 1.1-1.2 1.1-1.2-.5-1.2-1.1m.3 2.8h1.8v9.7h-1.8zM547.8 464.6c0-2.8 1.9-5.1 4.9-5.1s4.9 2.3 4.9 5.1-1.9 5.1-4.9 5.1-4.9-2.3-4.9-5.1m7.9 0c0-1.8-1.1-3.5-3-3.5s-3 1.6-3 3.5 1.1 3.5 3 3.5 3-1.6 3-3.5M566.4 463.3c0-1.6-.8-2.1-2.1-2.1s-2.1.7-2.7 1.4v6.9h-1.8v-9.7h1.8v1.4c.6-.8 1.9-1.6 3.4-1.6s3.1 1.1 3.1 3.1v6.8h-1.8v-6.2ZM577 468.4c-.8.8-1.9 1.3-3.2 1.3s-3.4-1.1-3.4-3.2 1.7-3.2 3.4-3.2 2.4.4 3.2 1.3V463c0-1.2-1-1.9-2.4-1.9s-2 .4-2.9 1.3l-.8-1.2c1.1-1.1 2.4-1.6 4-1.6s3.9.9 3.9 3.4v6.5H577zm0-2.7c-.5-.7-1.5-1.1-2.5-1.1s-2.2.8-2.2 1.9.9 1.9 2.2 1.9 1.9-.4 2.5-1.1zM581.7 456.1h1.8v13.3h-1.8zM597.9 455.9c2.5 0 4.2 1.1 5.3 2.6l-1.6.9c-.8-1-2.1-1.8-3.7-1.8-2.8 0-4.9 2.1-4.9 5.1s2.1 5.1 4.9 5.1 2.7-.7 3.4-1.3v-2.4H597v-1.8h6.3v4.9c-1.3 1.4-3.1 2.4-5.4 2.4-3.8 0-6.9-2.8-6.9-6.9s3.1-6.9 6.9-6.9ZM610.1 459.5c2.9 0 4.7 2.3 4.7 5.2v.4h-7.6c0 1.6 1.3 3 3.3 3s2.1-.4 2.9-1.1l.8 1.2c-1 .9-2.3 1.4-3.9 1.4-2.9 0-5-2-5-5.1s2-5.1 4.8-5.1Zm-3 4.4h5.9c0-1.3-.9-2.9-2.9-2.9s-2.9 1.6-3 2.9M623.5 463.3c0-1.6-.8-2.1-2.1-2.1s-2.1.7-2.7 1.4v6.9h-1.8v-9.7h1.8v1.4c.6-.8 1.9-1.6 3.4-1.6s3.1 1.1 3.1 3.1v6.8h-1.8v-6.2ZM627.6 464.6c0-2.8 1.9-5.1 4.9-5.1s4.9 2.3 4.9 5.1-1.9 5.1-4.9 5.1-4.9-2.3-4.9-5.1m7.9 0c0-1.8-1.1-3.5-3-3.5s-3 1.6-3 3.5 1.1 3.5 3 3.5 3-1.6 3-3.5M651.4 463c0-1.1-.5-1.9-1.7-1.9s-1.9.7-2.4 1.4v6.9h-1.8V463c0-1.1-.5-1.9-1.7-1.9s-1.9.7-2.4 1.4v6.9h-1.8v-9.7h1.8v1.4c.4-.6 1.7-1.6 3.1-1.6s2.3.8 2.6 1.8c.6-.9 1.8-1.8 3.3-1.8s2.7 1 2.7 2.9v7h-1.8V463zM655.8 457c0-.6.5-1.2 1.2-1.2s1.2.5 1.2 1.2-.5 1.1-1.2 1.1-1.2-.5-1.2-1.1m.2 2.8h1.8v9.7H656zM665 459.5c1.8 0 2.9.8 3.6 1.7l-1.2 1.1c-.6-.8-1.4-1.2-2.3-1.2-1.9 0-3.1 1.5-3.1 3.5s1.2 3.5 3.1 3.5 1.8-.4 2.3-1.2l1.2 1.1c-.7.9-1.8 1.7-3.6 1.7-2.9 0-4.9-2.2-4.9-5.1s2-5.1 4.9-5.1M670.6 466.9c.7.7 1.9 1.4 3.2 1.4s2.1-.6 2.1-1.4-1.1-1.3-2.3-1.6c-1.6-.4-3.6-.8-3.6-2.9s1.3-2.9 3.7-2.9 2.9.6 3.7 1.4l-.8 1.3c-.6-.7-1.6-1.2-2.9-1.2s-2 .5-2 1.3 1 1.1 2.2 1.4c1.7.4 3.7.8 3.7 3.1s-1.4 3-3.9 3-3-.5-4-1.5l.9-1.3ZM692.6 459.1l-2.8 10.3h-2.1l-3.8-13.3h2.2l2.8 10.7 2.9-10.7h1.6l2.9 10.7 2.8-10.7h2.2l-3.8 13.3h-2.1zM701.6 464.6c0-2.8 1.9-5.1 4.9-5.1s4.9 2.3 4.9 5.1-1.9 5.1-4.9 5.1-4.9-2.3-4.9-5.1m7.9 0c0-1.8-1.1-3.5-3-3.5s-3 1.6-3 3.5 1.1 3.5 3 3.5 3-1.6 3-3.5M713.6 459.8h1.8v1.5c.7-1 1.9-1.7 3.2-1.7v1.8h-.6c-.9 0-2.1.7-2.5 1.4v6.7h-1.8v-9.7zM723.7 465.3l-1.5 1.5v2.7h-1.8v-13.3h1.8v8.6l4.7-4.9h2.3l-4.2 4.4 4.2 5.3h-2.3l-3.2-4.2ZM731.1 470.6c.8.9 1.8 1.3 3.1 1.3s3-.7 3-2.8v-1.3c-.7 1-1.9 1.7-3.2 1.7-2.5 0-4.3-1.8-4.3-5s1.8-5 4.3-5 2.4.6 3.2 1.6v-1.4h1.8v9.3c0 3.3-2.4 4.3-4.8 4.3s-2.8-.3-4-1.4zm6.1-8c-.5-.8-1.6-1.4-2.7-1.4-1.8 0-2.9 1.4-2.9 3.4s1.1 3.4 2.9 3.4 2.2-.7 2.7-1.4v-3.9ZM741.9 459.8h1.8v1.5c.7-1 1.9-1.7 3.2-1.7v1.8h-.6c-.9 0-2.1.7-2.5 1.4v6.7H742v-9.7zM748 464.6c0-2.8 1.9-5.1 4.9-5.1s4.9 2.3 4.9 5.1-1.9 5.1-4.9 5.1-4.9-2.3-4.9-5.1m7.9 0c0-1.8-1.1-3.5-3-3.5s-3 1.6-3 3.5 1.1 3.5 3 3.5 3-1.6 3-3.5M766.6 468.1c-.7.8-2 1.6-3.4 1.6s-3.1-1-3.1-3.1v-6.8h1.8v6.2c0 1.6.8 2.1 2 2.1s2.1-.6 2.7-1.4v-6.9h1.8v9.7h-1.8v-1.3ZM771.2 473.1v-13.3h1.8v1.4c.7-1 1.9-1.6 3.2-1.6 2.5 0 4.3 1.9 4.3 5.1s-1.8 5.1-4.3 5.1-2.4-.6-3.2-1.6v5.1h-1.8zm4.5-12c-1.1 0-2.2.6-2.7 1.4v4.1c.5.8 1.6 1.4 2.7 1.4 1.8 0 2.9-1.5 2.9-3.5s-1.1-3.5-2.9-3.5ZM788 456.1h9v1.8h-7v3.9h6.8v1.8H790v5.9h-2v-13.3ZM798.5 464.6c0-2.8 1.9-5.1 4.9-5.1s4.9 2.3 4.9 5.1-1.9 5.1-4.9 5.1-4.9-2.3-4.9-5.1m7.8 0c0-1.8-1.1-3.5-3-3.5s-3 1.6-3 3.5 1.1 3.5 3 3.5 3-1.6 3-3.5M810.5 459.8h1.8v1.5c.7-1 1.9-1.7 3.2-1.7v1.8h-.6c-.9 0-2.1.7-2.5 1.4v6.7h-1.8v-9.7zM829 463c0-1.1-.5-1.9-1.7-1.9s-1.9.7-2.4 1.4v6.9h-1.8V463c0-1.1-.5-1.9-1.7-1.9s-1.9.7-2.4 1.4v6.9h-1.8v-9.7h1.8v1.4c.4-.6 1.7-1.6 3.1-1.6s2.3.8 2.6 1.8c.6-.9 1.8-1.8 3.3-1.8s2.7 1 2.7 2.9v7h-1.8V463zM837.9 459.5c2.9 0 4.7 2.3 4.7 5.2v.4H835c0 1.6 1.3 3 3.3 3s2.1-.4 2.9-1.1l.8 1.2c-1 .9-2.3 1.4-3.9 1.4-2.9 0-5-2-5-5.1s2-5.1 4.8-5.1Zm-3 4.4h5.9c0-1.3-.9-2.9-2.9-2.9s-2.9 1.6-3 2.9M851.7 468.1c-.7 1-1.9 1.6-3.2 1.6-2.5 0-4.3-1.9-4.3-5.1s1.8-5.1 4.3-5.1 2.4.6 3.2 1.6V456h1.8v13.3h-1.8v-1.4zm0-5.5c-.5-.8-1.6-1.4-2.7-1.4-1.8 0-2.9 1.5-2.9 3.5s1.1 3.5 2.9 3.5 2.2-.6 2.7-1.4v-4.1Z" class="st2"/><path d="M416.1 486.4h571.6v26.9H416.1z" class="st1"/><path d="M438 493.2h5.6c2.7 0 4.3 1.9 4.3 4.1s-1.5 4.1-4.3 4.1H440v5.1h-2zm5.3 1.8h-3.4v4.7h3.4c1.4 0 2.5-.9 2.5-2.3s-1-2.3-2.5-2.3ZM449.6 494.1c0-.6.5-1.2 1.2-1.2s1.2.5 1.2 1.2-.5 1.1-1.2 1.1-1.2-.5-1.2-1.1m.3 2.8h1.8v9.7h-1.8zM454.5 493.2h1.8v13.3h-1.8zM458.6 501.7c0-2.8 1.9-5.1 4.9-5.1s4.9 2.3 4.9 5.1-1.9 5.1-4.9 5.1-4.9-2.3-4.9-5.1m7.9 0c0-1.8-1.1-3.5-3-3.5s-3 1.6-3 3.5 1.1 3.5 3 3.5 3-1.6 3-3.5M471 504.4v-5.9h-1.6v-1.6h1.6v-2.6h1.8v2.6h2v1.6h-2v5.5c0 .7.3 1.2.9 1.2s.8-.2 1-.4l.5 1.4c-.4.4-.9.6-1.9.6-1.5 0-2.3-.9-2.3-2.4M485.4 502.8l-2.7 3.8h-2l3.6-5-3.4-4.7h2l2.5 3.5 2.5-3.5h2l-3.4 4.7 3.6 5h-2zM502.9 504.8l1.2 1.3-1.4 1.2-1.2-1.3c-1 .6-2.2.9-3.5.9-4 0-6.7-2.9-6.7-6.9s2.7-6.9 6.7-6.9 6.7 2.9 6.7 6.9-.7 3.6-1.8 4.9Zm-2.7-.3-1.8-2 1.4-1.2 1.8 2c.7-.9 1.1-2.1 1.1-3.4 0-2.9-1.8-5.1-4.7-5.1s-4.7 2.2-4.7 5.1 1.8 5.1 4.7 5.1 1.6-.2 2.2-.5M509.8 495h-4.1v-1.8H516v1.8h-4.1v11.6h-2V495zM518 493.2h2v11.6h6.1v1.8H518v-13.3ZM533.4 510.2v-13.3h1.8v1.4c.7-1 1.9-1.6 3.2-1.6 2.5 0 4.3 1.9 4.3 5.1s-1.8 5.1-4.3 5.1-2.4-.6-3.2-1.6v5.1h-1.8zm4.5-11.9c-1.1 0-2.2.6-2.7 1.4v4.1c.5.8 1.6 1.4 2.7 1.4 1.8 0 2.9-1.5 2.9-3.5s-1.1-3.5-2.9-3.5ZM544.9 496.9h1.8v1.5c.7-1 1.9-1.7 3.2-1.7v1.8h-.6c-.9 0-2.1.7-2.5 1.4v6.7H545v-9.7zM551.1 501.7c0-2.8 1.9-5.1 4.9-5.1s4.9 2.3 4.9 5.1-1.9 5.1-4.9 5.1-4.9-2.3-4.9-5.1m7.9 0c0-1.8-1.1-3.5-3-3.5s-3 1.6-3 3.5 1.1 3.5 3 3.5 3-1.6 3-3.5M564.9 507.3c0 2-1.1 3.2-3 3.2s-.8 0-1.1-.1l.2-1.5h.7c.8 0 1.4-.5 1.4-1.6v-10.4h1.8zm-2-13.2c0-.6.5-1.2 1.2-1.2s1.2.5 1.2 1.2-.5 1.1-1.2 1.1-1.2-.5-1.2-1.1M572 496.7c2.9 0 4.7 2.3 4.7 5.2v.4h-7.6c0 1.6 1.3 3 3.3 3s2.1-.4 2.9-1.1l.8 1.2c-1 .9-2.3 1.4-3.9 1.4-2.9 0-5-2-5-5.1s2-5.1 4.8-5.1Zm-2.9 4.3h5.9c0-1.3-.9-2.9-2.9-2.9s-2.9 1.6-3 2.9M583.3 496.7c1.8 0 2.9.8 3.6 1.7l-1.2 1.1c-.6-.8-1.4-1.2-2.3-1.2-1.9 0-3.1 1.5-3.1 3.5s1.2 3.5 3.1 3.5 1.8-.4 2.3-1.2l1.2 1.1c-.7.9-1.8 1.7-3.6 1.7-2.9 0-4.9-2.2-4.9-5.1s2-5.1 4.9-5.1M589.3 504.4v-5.9h-1.6v-1.6h1.6v-2.6h1.8v2.6h2v1.6h-2v5.5c0 .7.3 1.2.9 1.2s.8-.2 1-.4l.5 1.4c-.4.4-.9.6-1.9.6-1.5 0-2.3-.9-2.3-2.4M596 496.8c.7 0 1.3.6 1.3 1.3s-.6 1.2-1.3 1.2-1.2-.6-1.2-1.2.6-1.3 1.2-1.3m0 7.5c.7 0 1.3.6 1.3 1.2s-.6 1.3-1.3 1.3-1.2-.6-1.2-1.3.6-1.2 1.2-1.2M610.3 498.2c-1.5 0-1.9-1.2-2.2-2.3-.3-.8-.5-1.5-1.1-1.5-.9 0-1.3 1.7-1.5 3.7l-1.3-.2c.2-2.4.8-4.8 2.8-4.8s1.9 1.2 2.2 2.3c.3.8.5 1.5 1.1 1.5.9 0 1.3-1.6 1.5-3.8l1.3.2c-.2 2.4-.8 4.8-2.8 4.8ZM620.6 503.4h-6.3v-1.6l5.6-8.5h2.7v8.4h1.8v1.8h-1.8v3.2h-2v-3.2Zm-4.4-1.8h4.4V495zM626.1 508.5c.6-.4 1.3-1.2 1.4-1.9h-.3c-.6 0-1.1-.5-1.1-1.1s.5-1.2 1.2-1.2 1.4.6 1.4 1.7-.7 2.5-1.8 3.2zM631.4 503.3c.8 1 2.2 1.7 3.7 1.7s2.9-.9 2.9-2.3-1.2-2.1-3.1-2.1h-1.4v-1.8h1.4c1.6 0 2.9-.6 2.9-2s-1.3-2.1-2.9-2.1-2.5.5-3.5 1.5l-1.1-1.2c1-1.2 2.6-2.1 4.7-2.1s4.7 1.3 4.7 3.6-1.6 2.8-2.9 3.1c1.3.1 3.1 1.2 3.1 3.3s-1.9 3.9-4.9 3.9-4-1-4.9-2.2l1.1-1.3zM647.2 493c3.7 0 5.2 3.6 5.2 6.9s-1.5 6.9-5.2 6.9-5.2-3.6-5.2-6.9 1.5-6.9 5.2-6.9m0 1.8c-2.4 0-3.2 2.5-3.2 5.1s.8 5.1 3.2 5.1 3.2-2.5 3.2-5.1-.8-5.1-3.2-5.1M659.5 493c3.7 0 5.2 3.6 5.2 6.9s-1.5 6.9-5.2 6.9-5.2-3.6-5.2-6.9 1.5-6.9 5.2-6.9m0 1.8c-2.4 0-3.2 2.5-3.2 5.1s.8 5.1 3.2 5.1 3.2-2.5 3.2-5.1-.8-5.1-3.2-5.1M672.2 493.2h1.8v5.1c.8-1 1.9-1.6 3.2-1.6 2.5 0 4.3 2 4.3 5.1s-1.8 5.1-4.3 5.1-2.4-.7-3.2-1.6v1.4h-1.8zm4.5 12c1.8 0 2.9-1.4 2.9-3.5s-1.1-3.5-2.9-3.5-2.2.7-2.7 1.4v4.1c.5.8 1.6 1.4 2.7 1.4ZM690.3 505.2c-.7.8-2 1.6-3.4 1.6s-3.1-1-3.1-3.1v-6.8h1.8v6.2c0 1.6.8 2.1 2 2.1s2.1-.6 2.7-1.4v-6.9h1.8v9.7h-1.8v-1.3ZM695 493.2h1.8v13.3H695zM702.9 502.4l-1.5 1.5v2.7h-1.8v-13.3h1.8v8.6l4.7-4.9h2.3l-4.2 4.4 4.2 5.3h-2.3l-3.2-4.2ZM719.7 501.4h-2.5v5.1h-2v-13.3h5.6c2.5 0 4.3 1.6 4.3 4.1s-1.6 3.7-3.3 3.9l3.4 5.3h-2.3zm.9-6.4h-3.4v4.7h3.4c1.4 0 2.5-.9 2.5-2.3s-1-2.3-2.5-2.3ZM729.6 496.3v10.2h-2v-13.3h2.1l7.3 10v-10h2v13.3h-1.9l-7.4-10.2ZM750.3 503.8h-6.5l-1.1 2.8h-2.2l5.3-13.3h2.5l5.3 13.3h-2.2zm-6-1.8h5.4l-2.7-7.1zM754.3 500.9h4.8v1.6h-4.8zM761.2 504c.7.7 1.9 1.4 3.2 1.4s2.1-.6 2.1-1.4-1.1-1.3-2.3-1.6c-1.6-.4-3.6-.8-3.6-2.9s1.3-2.9 3.7-2.9 2.9.6 3.7 1.4l-.8 1.3c-.6-.7-1.6-1.2-2.9-1.2s-2 .5-2 1.3 1 1.1 2.2 1.4c1.7.4 3.7.8 3.7 3.1s-1.4 3-3.9 3-3-.5-4-1.5l.9-1.3ZM774.7 496.7c2.9 0 4.7 2.3 4.7 5.2v.4h-7.6c0 1.6 1.3 3 3.3 3s2.1-.4 2.9-1.1l.8 1.2c-1 .9-2.3 1.4-3.9 1.4-2.9 0-5-2-5-5.1s2-5.1 4.8-5.1Zm-2.9 4.3h5.9c0-1.3-.9-2.9-2.9-2.9s-2.9 1.6-3 2.9M788.6 510.2v-5.1c-.8 1.1-1.9 1.6-3.2 1.6-2.5 0-4.3-1.9-4.3-5.1s1.8-5.1 4.3-5.1 2.5.7 3.2 1.6v-1.4h1.8V510h-1.8zm0-10.5c-.5-.8-1.6-1.4-2.7-1.4-1.8 0-2.9 1.5-2.9 3.5s1.1 3.5 2.9 3.5 2.2-.7 2.7-1.4v-4.1ZM798.4 504c.7.7 1.9 1.4 3.2 1.4s2.1-.6 2.1-1.4-1.1-1.3-2.3-1.6c-1.6-.4-3.6-.8-3.6-2.9s1.3-2.9 3.7-2.9 2.9.6 3.7 1.4l-.8 1.3c-.6-.7-1.6-1.2-2.9-1.2s-2 .5-2 1.3 1 1.1 2.2 1.4c1.7.4 3.7.8 3.7 3.1s-1.4 3-3.9 3-3-.5-4-1.5l.9-1.3ZM813.7 505.5c-.8.8-1.9 1.3-3.2 1.3s-3.4-1.1-3.4-3.2 1.7-3.2 3.4-3.2 2.4.4 3.2 1.3v-1.6c0-1.2-1-1.9-2.4-1.9s-2 .4-2.9 1.3l-.8-1.2c1.1-1.1 2.4-1.6 4-1.6s3.9.9 3.9 3.4v6.5h-1.8zm0-2.7c-.5-.7-1.5-1.1-2.5-1.1s-2.2.8-2.2 1.9.9 1.9 2.2 1.9 1.9-.4 2.5-1.1zM830.1 500.1c0-1.1-.5-1.9-1.7-1.9s-1.9.7-2.4 1.4v6.9h-1.8v-6.4c0-1.1-.5-1.9-1.7-1.9s-1.9.7-2.4 1.4v6.9h-1.8v-9.7h1.8v1.4c.4-.6 1.7-1.6 3.1-1.6s2.3.8 2.6 1.8c.6-.9 1.8-1.8 3.3-1.8s2.7 1 2.7 2.9v7H830v-6.4zM834.8 510.2v-13.3h1.8v1.4c.7-1 1.9-1.6 3.2-1.6 2.5 0 4.3 1.9 4.3 5.1s-1.8 5.1-4.3 5.1-2.4-.6-3.2-1.6v5.1h-1.8zm4.5-11.9c-1.1 0-2.2.6-2.7 1.4v4.1c.5.8 1.6 1.4 2.7 1.4 1.8 0 2.9-1.5 2.9-3.5s-1.1-3.5-2.9-3.5ZM846.3 493.2h1.8v13.3h-1.8zM855.2 496.7c2.9 0 4.7 2.3 4.7 5.2v.4h-7.6c0 1.6 1.3 3 3.3 3s2.1-.4 2.9-1.1l.8 1.2c-1 .9-2.3 1.4-3.9 1.4-2.9 0-5-2-5-5.1s2-5.1 4.8-5.1Zm-2.9 4.3h5.9c0-1.3-.9-2.9-2.9-2.9s-2.9 1.6-3 2.9M862.2 504c.7.7 1.9 1.4 3.2 1.4s2.1-.6 2.1-1.4-1.1-1.3-2.3-1.6c-1.6-.4-3.6-.8-3.6-2.9s1.3-2.9 3.7-2.9 2.9.6 3.7 1.4l-.8 1.3c-.6-.7-1.6-1.2-2.9-1.2s-2 .5-2 1.3 1 1.1 2.2 1.4c1.7.4 3.7.8 3.7 3.1s-1.4 3-3.9 3-3-.5-4-1.5l.9-1.3Z" class="st2"/><path d="M475.5 523.5h512.2v26.9H475.5z" class="st1"/><path d="M501.5 530.3h9v1.8h-7v3.9h6.8v1.8h-6.8v5.9h-2v-13.3ZM519.1 542.4c-.7.8-2 1.6-3.4 1.6s-3.1-1-3.1-3.1v-6.8h1.8v6.2c0 1.6.8 2.1 2 2.1s2.1-.6 2.7-1.4v-6.9h1.8v9.7h-1.8v-1.3ZM530.3 537.5c0-1.6-.8-2.1-2.1-2.1s-2.1.7-2.7 1.4v6.9h-1.8V534h1.8v1.4c.6-.8 1.9-1.6 3.4-1.6s3.1 1.1 3.1 3.1v6.8h-1.8v-6.2ZM539.2 533.8c1.8 0 2.9.8 3.6 1.7l-1.2 1.1c-.6-.8-1.4-1.2-2.3-1.2-1.9 0-3.1 1.5-3.1 3.5s1.2 3.5 3.1 3.5 1.8-.4 2.3-1.2l1.2 1.1c-.7.9-1.8 1.7-3.6 1.7-2.9 0-4.9-2.2-4.9-5.1s2-5.1 4.9-5.1M545.2 541.5v-5.9h-1.6V534h1.6v-2.6h1.8v2.6h2v1.6h-2v5.5c0 .7.3 1.2.9 1.2s.8-.2 1-.4l.5 1.4c-.4.4-.9.6-1.9.6-1.5 0-2.3-.9-2.3-2.4M550.7 531.3c0-.6.5-1.2 1.2-1.2s1.2.5 1.2 1.2-.5 1.1-1.2 1.1-1.2-.5-1.2-1.1m.3 2.7h1.8v9.7H551zM555 538.8c0-2.8 1.9-5.1 4.9-5.1s4.9 2.3 4.9 5.1-1.9 5.1-4.9 5.1-4.9-2.3-4.9-5.1m7.9 0c0-1.8-1.1-3.5-3-3.5s-3 1.6-3 3.5 1.1 3.5 3 3.5 3-1.6 3-3.5M573.6 537.5c0-1.6-.8-2.1-2.1-2.1s-2.1.7-2.7 1.4v6.9H567V534h1.8v1.4c.6-.8 1.9-1.6 3.4-1.6s3.1 1.1 3.1 3.1v6.8h-1.8v-6.2ZM584.2 542.6c-.8.8-1.9 1.3-3.2 1.3s-3.4-1.1-3.4-3.2 1.7-3.2 3.4-3.2 2.4.4 3.2 1.3v-1.6c0-1.2-1-1.9-2.4-1.9s-2 .4-2.9 1.3l-.8-1.2c1.1-1.1 2.4-1.6 4-1.6s3.9.9 3.9 3.4v6.5h-1.8zm0-2.7c-.5-.7-1.5-1.1-2.5-1.1s-2.2.8-2.2 1.9.9 1.9 2.2 1.9 1.9-.4 2.5-1.1zM588.9 530.3h1.8v13.3h-1.8zM605.1 530.1c2.5 0 4.2 1.1 5.3 2.6l-1.6.9c-.8-1-2.1-1.8-3.7-1.8-2.8 0-4.9 2.1-4.9 5.1s2.1 5.1 4.9 5.1 2.7-.7 3.4-1.3v-2.4h-4.3v-1.8h6.3v4.9c-1.3 1.4-3.1 2.4-5.4 2.4-3.8 0-6.9-2.8-6.9-6.9s3.1-6.9 6.9-6.9ZM617.2 533.8c2.9 0 4.7 2.3 4.7 5.2v.4h-7.6c0 1.6 1.3 3 3.3 3s2.1-.4 2.9-1.1l.8 1.2c-1 .9-2.3 1.4-3.9 1.4-2.9 0-5-2-5-5.1s2-5.1 4.8-5.1Zm-2.9 4.3h5.9c0-1.3-.9-2.9-2.9-2.9s-2.9 1.6-3 2.9M630.7 537.5c0-1.6-.8-2.1-2.1-2.1s-2.1.7-2.7 1.4v6.9h-1.8V534h1.8v1.4c.6-.8 1.9-1.6 3.4-1.6s3.1 1.1 3.1 3.1v6.8h-1.8v-6.2ZM634.8 538.8c0-2.8 1.9-5.1 4.9-5.1s4.9 2.3 4.9 5.1-1.9 5.1-4.9 5.1-4.9-2.3-4.9-5.1m7.9 0c0-1.8-1.1-3.5-3-3.5s-3 1.6-3 3.5 1.1 3.5 3 3.5 3-1.6 3-3.5M658.6 537.2c0-1.1-.5-1.9-1.7-1.9s-1.9.7-2.4 1.4v6.9h-1.8v-6.4c0-1.1-.5-1.9-1.7-1.9s-1.9.7-2.4 1.4v6.9h-1.8v-9.7h1.8v1.4c.4-.6 1.7-1.6 3.1-1.6s2.3.8 2.6 1.8c.6-.9 1.8-1.8 3.3-1.8s2.7 1 2.7 2.9v7h-1.8v-6.4zM662.9 531.3c0-.6.5-1.2 1.2-1.2s1.2.5 1.2 1.2-.5 1.1-1.2 1.1-1.2-.5-1.2-1.1m.3 2.7h1.8v9.7h-1.8zM672.2 533.8c1.8 0 2.9.8 3.6 1.7l-1.2 1.1c-.6-.8-1.4-1.2-2.3-1.2-1.9 0-3.1 1.5-3.1 3.5s1.2 3.5 3.1 3.5 1.8-.4 2.3-1.2l1.2 1.1c-.7.9-1.8 1.7-3.6 1.7-2.9 0-4.9-2.2-4.9-5.1s2-5.1 4.9-5.1M677.8 541.1c.7.7 1.9 1.4 3.2 1.4s2.1-.6 2.1-1.4-1.1-1.3-2.3-1.6c-1.6-.4-3.6-.8-3.6-2.9s1.3-2.9 3.7-2.9 2.9.6 3.7 1.4l-.8 1.3c-.6-.7-1.6-1.2-2.9-1.2s-2 .5-2 1.3 1 1.1 2.2 1.4c1.7.4 3.7.8 3.7 3.1s-1.4 3-3.9 3-3-.5-4-1.5l.9-1.3ZM691.8 537c0-4.1 3-6.9 6.8-6.9s4.3 1.3 5.3 2.8l-1.7.9c-.7-1.1-2-1.9-3.6-1.9-2.7 0-4.8 2.1-4.8 5.1s2.1 5.1 4.8 5.1 2.9-.8 3.6-1.9l1.7.9c-1.1 1.6-2.7 2.8-5.3 2.8-3.8 0-6.8-2.8-6.8-6.9M705.3 538.8c0-2.8 1.9-5.1 4.9-5.1s4.9 2.3 4.9 5.1-1.9 5.1-4.9 5.1-4.9-2.3-4.9-5.1m7.9 0c0-1.8-1.1-3.5-3-3.5s-3 1.6-3 3.5 1.1 3.5 3 3.5 3-1.6 3-3.5M723.9 537.5c0-1.6-.8-2.1-2.1-2.1s-2.1.7-2.7 1.4v6.9h-1.8V534h1.8v1.4c.6-.8 1.9-1.6 3.4-1.6s3.1 1.1 3.1 3.1v6.8h-1.8v-6.2ZM728.5 541.1c.7.7 1.9 1.4 3.2 1.4s2.1-.6 2.1-1.4-1.1-1.3-2.3-1.6c-1.6-.4-3.6-.8-3.6-2.9s1.3-2.9 3.7-2.9 2.9.6 3.7 1.4l-.8 1.3c-.6-.7-1.6-1.2-2.9-1.2s-2 .5-2 1.3 1 1.1 2.2 1.4c1.7.4 3.7.8 3.7 3.1s-1.4 3-3.9 3-3-.5-4-1.5l.9-1.3ZM737.3 538.8c0-2.8 1.9-5.1 4.9-5.1s4.9 2.3 4.9 5.1-1.9 5.1-4.9 5.1-4.9-2.3-4.9-5.1m7.9 0c0-1.8-1.1-3.5-3-3.5s-3 1.6-3 3.5 1.1 3.5 3 3.5 3-1.6 3-3.5M749.3 534h1.8v1.5c.7-1 1.9-1.7 3.2-1.7v1.8h-.6c-.9 0-2.1.7-2.5 1.4v6.7h-1.8V534zM756.4 541.5v-5.9h-1.6V534h1.6v-2.6h1.8v2.6h2v1.6h-2v5.5c0 .7.3 1.2.9 1.2s.8-.2 1-.4l.5 1.4c-.4.4-.9.6-1.9.6-1.5 0-2.3-.9-2.3-2.4M761.9 531.3c0-.6.5-1.2 1.2-1.2s1.2.5 1.2 1.2-.5 1.1-1.2 1.1-1.2-.5-1.2-1.1m.3 2.7h1.8v9.7h-1.8zM773.4 542.4c-.7.8-2 1.6-3.4 1.6s-3.1-1-3.1-3.1v-6.8h1.8v6.2c0 1.6.8 2.1 2 2.1s2.1-.6 2.7-1.4v-6.9h1.8v9.7h-1.8v-1.3ZM789.8 537.2c0-1.1-.5-1.9-1.7-1.9s-1.9.7-2.4 1.4v6.9h-1.8v-6.4c0-1.1-.5-1.9-1.7-1.9s-1.9.7-2.4 1.4v6.9H778v-9.7h1.8v1.4c.4-.6 1.7-1.6 3.1-1.6s2.3.8 2.6 1.8c.6-.9 1.8-1.8 3.3-1.8s2.7 1 2.7 2.9v7h-1.8v-6.4zM806 530.1c2.5 0 4.2 1.1 5.3 2.6l-1.6.9c-.8-1-2.1-1.8-3.7-1.8-2.8 0-4.9 2.1-4.9 5.1s2.1 5.1 4.9 5.1 2.7-.7 3.4-1.3v-2.4h-4.3v-1.8h6.3v4.9c-1.3 1.4-3.1 2.4-5.4 2.4-3.8 0-6.9-2.8-6.9-6.9s3.1-6.9 6.9-6.9ZM813.9 534h1.8v1.5c.7-1 1.9-1.7 3.2-1.7v1.8h-.6c-.9 0-2.1.7-2.5 1.4v6.7H814V534zM826.6 542.6c-.8.8-1.9 1.3-3.2 1.3s-3.4-1.1-3.4-3.2 1.7-3.2 3.4-3.2 2.4.4 3.2 1.3v-1.6c0-1.2-1-1.9-2.4-1.9s-2 .4-2.9 1.3l-.8-1.2c1.1-1.1 2.4-1.6 4-1.6s3.9.9 3.9 3.4v6.5h-1.8zm0-2.7c-.5-.7-1.5-1.1-2.5-1.1s-2.2.8-2.2 1.9.9 1.9 2.2 1.9 1.9-.4 2.5-1.1zM837.8 537.5c0-1.6-.8-2.1-2.1-2.1s-2.1.7-2.7 1.4v6.9h-1.8V534h1.8v1.4c.6-.8 1.9-1.6 3.4-1.6s3.1 1.1 3.1 3.1v6.8h-1.8v-6.2ZM842.8 541.5v-5.9h-1.6V534h1.6v-2.6h1.8v2.6h2v1.6h-2v5.5c0 .7.3 1.2.9 1.2s.8-.2 1-.4l.5 1.4c-.4.4-.9.6-1.9.6-1.5 0-2.3-.9-2.3-2.4M848.6 541.1c.7.7 1.9 1.4 3.2 1.4s2.1-.6 2.1-1.4-1.1-1.3-2.3-1.6c-1.6-.4-3.6-.8-3.6-2.9s1.3-2.9 3.7-2.9 2.9.6 3.7 1.4l-.8 1.3c-.6-.7-1.6-1.2-2.9-1.2s-2 .5-2 1.3 1 1.1 2.2 1.4c1.7.4 3.7.8 3.7 3.1s-1.4 3-3.9 3-3-.5-4-1.5l.9-1.3Z" class="st2"/><path d="M618.3 272.6h4.5c2.2 0 3.4 1.5 3.4 3.3s-1.2 3.3-3.4 3.3h-2.9v4.1h-1.6zm4.3 1.4h-2.7v3.7h2.7c1.2 0 2-.8 2-1.9s-.8-1.9-2-1.9ZM633.1 278.3c0-1.3-.7-1.7-1.6-1.7s-1.7.5-2.1 1.1v5.5H628v-10.7h1.4v4c.5-.6 1.6-1.3 2.7-1.3s2.5.8 2.5 2.5v5.5h-1.4v-5h-.1ZM641.6 282.4c-.6.7-1.5 1-2.5 1s-2.7-.9-2.7-2.6 1.4-2.5 2.7-2.5 1.9.3 2.5 1V278c0-1-.8-1.5-1.9-1.5s-1.6.3-2.3 1l-.6-1c.9-.8 1.9-1.3 3.2-1.3s3.1.7 3.1 2.7v5.2h-1.4v-.8Zm0-2.1c-.4-.6-1.2-.9-2-.9s-1.8.6-1.8 1.5.7 1.5 1.8 1.5 1.6-.3 2-.9v-1.3ZM645.3 281.2c.5.6 1.6 1.1 2.6 1.1s1.7-.4 1.7-1.1-.9-1-1.9-1.2c-1.3-.3-2.8-.7-2.8-2.3s1.1-2.3 2.9-2.3 2.3.5 2.9 1.1l-.6 1c-.4-.5-1.3-.9-2.3-.9s-1.6.4-1.6 1 .8.9 1.8 1.1c1.3.3 2.9.7 2.9 2.4s-1.1 2.4-3.1 2.4-2.4-.4-3.2-1.2zM656.2 275.4c2.3 0 3.8 1.8 3.8 4.2v.4h-6.1c0 1.3 1.1 2.4 2.6 2.4s1.7-.3 2.3-.9l.7.9c-.8.8-1.9 1.2-3.1 1.2-2.3 0-4-1.6-4-4.1s1.6-4 3.9-4h-.1Zm-2.4 3.4h4.7c0-1-.7-2.3-2.4-2.3s-2.3 1.2-2.4 2.3zM615.7 296.2h-2v4.1h-1.6v-10.7h4.5c2 0 3.4 1.3 3.4 3.3s-1.3 2.9-2.7 3.1l2.7 4.3h-1.9l-2.5-4.1Zm.7-5.2h-2.7v3.7h2.7c1.2 0 2-.8 2-1.9s-.8-1.9-2-1.9ZM624.8 292.4c2.3 0 3.8 1.8 3.8 4.2v.4h-6.1c0 1.3 1.1 2.4 2.6 2.4s1.7-.3 2.3-.9l.7.9c-.8.8-1.9 1.2-3.1 1.2-2.3 0-4-1.6-4-4.1s1.6-4 3.9-4h-.1Zm-2.3 3.4h4.7c0-1-.7-2.3-2.4-2.3s-2.3 1.2-2.4 2.3zM630.4 289.6h1.4v10.7h-1.4zM637.5 292.4c2.3 0 3.8 1.8 3.8 4.2v.4h-6.1c0 1.3 1.1 2.4 2.6 2.4s1.7-.3 2.3-.9l.7.9c-.8.8-1.9 1.2-3.1 1.2-2.3 0-4-1.6-4-4.1s1.6-4 3.9-4h-.1Zm-2.3 3.4h4.7c0-1-.7-2.3-2.4-2.3s-2.3 1.2-2.4 2.3zM647.9 299.4c-.6.7-1.5 1-2.5 1s-2.7-.9-2.7-2.6 1.4-2.5 2.7-2.5 1.9.3 2.5 1V295c0-1-.8-1.5-1.9-1.5s-1.6.3-2.3 1l-.6-1c.9-.8 1.9-1.3 3.2-1.3s3.1.7 3.1 2.7v5.2H648v-.8Zm0-2.1c-.4-.6-1.2-.9-2-.9s-1.8.6-1.8 1.5.7 1.5 1.8 1.5 1.6-.3 2-.9v-1.3ZM651.6 298.2c.5.6 1.6 1.1 2.6 1.1s1.7-.4 1.7-1.1-.9-1-1.9-1.2c-1.3-.3-2.8-.7-2.8-2.3s1.1-2.3 2.9-2.3 2.3.5 2.9 1.1l-.6 1c-.4-.5-1.3-.9-2.3-.9s-1.6.4-1.6 1 .8.9 1.8 1.1c1.3.3 2.9.7 2.9 2.4s-1.1 2.4-3.1 2.4-2.4-.4-3.2-1.2zM662.5 292.4c2.3 0 3.8 1.8 3.8 4.2v.4h-6.1c0 1.3 1.1 2.4 2.6 2.4s1.7-.3 2.3-.9l.7.9c-.8.8-1.9 1.2-3.1 1.2-2.3 0-4-1.6-4-4.1s1.6-4 3.9-4h-.1Zm-2.4 3.4h4.7c0-1-.7-2.3-2.4-2.3s-2.3 1.2-2.4 2.3z" class="st0"/><path d="M570.5 275.3H585v20.3h-14.5z" class="st3"/><path d="m596.1 289.6-8.5-4 8.5-4-.4 2.5h11.9v2.9h-11.9l.4 2.5ZM700.7 162.9l7.7 13.9-15.6-3 3-3.1-51.4-34.8 2.9-4 51.4 34.8zM828.3 163.4l10 12.4-15.9-.3 2.4-3.6-76.7-34.5 2.2-4.4 76.7 34.5z" class="st0"/><path d="M609.1 51.3h-2.7v5.4h-2.2v-14h6.2c2.8 0 4.7 1.7 4.7 4.3s-1.8 3.9-3.6 4.1l3.7 5.6h-2.5l-3.5-5.4Zm1-6.8h-3.7v4.9h3.7c1.6 0 2.7-1 2.7-2.5s-1.1-2.5-2.7-2.5ZM618.7 53.3c1 1.1 2.3 1.8 4 1.8s3.2-1.2 3.2-2.7-1.2-2.8-3.1-2.8-2.3.4-3.3 1.3l-1.6-.5v-7.7h9.2v1.8H620V49c.7-.7 1.9-1.2 3.3-1.2 2.5 0 4.7 1.6 4.7 4.5s-2.3 4.7-5.4 4.7-4.2-.8-5.3-2.2l1.3-1.4ZM584 78.5c1 1.1 2.3 1.8 4 1.8s3.2-1.2 3.2-2.7-1.2-2.8-3.1-2.8-2.3.4-3.3 1.3l-1.6-.5v-7.7h9.2v1.8h-7.1v4.5c.7-.7 1.9-1.2 3.3-1.2 2.5 0 4.7 1.6 4.7 4.5s-2.3 4.7-5.4 4.7-4.2-.8-5.3-2.2l1.3-1.4ZM598.8 74.7c-1.7-.5-3.1-1.5-3.1-3.3s2.7-3.7 5.2-3.7 5.2 1.1 5.2 3.7-1.5 2.9-3.2 3.3c1.8.5 3.4 1.8 3.4 3.7s-2.5 3.8-5.4 3.8-5.4-1.4-5.4-3.8 1.6-3.1 3.4-3.7Zm2 .9c-.9.1-3.2.8-3.2 2.5s1.5 2.2 3.2 2.2 3.2-.8 3.2-2.2-2.3-2.4-3.2-2.5m0-6c-1.7 0-3 .8-3 2.1s2.1 2 3 2.2c.9-.1 3-.7 3-2.2s-1.3-2.1-3-2.1M608.5 83.9c.7-.4 1.4-1.3 1.5-2h-.3c-.7 0-1.2-.5-1.2-1.2s.6-1.3 1.3-1.3 1.5.6 1.5 1.7-.8 2.6-1.9 3.4l-.9-.7ZM615.1 78.5c1 1.1 2.3 1.8 4 1.8s3.2-1.2 3.2-2.7-1.2-2.8-3.1-2.8-2.3.4-3.3 1.3l-1.6-.5v-7.7h9.2v1.8h-7.1v4.5c.7-.7 1.9-1.2 3.3-1.2 2.5 0 4.7 1.6 4.7 4.5s-2.3 4.7-5.4 4.7-4.2-.8-5.3-2.2l1.3-1.4ZM632.2 67.7c4.1 0 5.7 3.8 5.7 7.2s-1.7 7.2-5.7 7.2-5.7-3.8-5.7-7.2 1.7-7.2 5.7-7.2m0 1.9c-2.6 0-3.5 2.6-3.5 5.4s.9 5.4 3.5 5.4 3.5-2.6 3.5-5.4-.9-5.4-3.5-5.4M647.3 69.7h-7.7v-1.8h10.2v1.4L644 81.9h-2.4zM583.3 91.3c2.3 0 3.9 1 5 2.4l-1.5.8c-.7-.9-2-1.6-3.4-1.6-2.6 0-4.6 1.9-4.6 4.6s2 4.6 4.6 4.6 2.6-.6 3.2-1.2v-2.2h-4v-1.6h5.9v4.4c-1.2 1.3-2.9 2.1-5 2.1-3.6 0-6.5-2.5-6.5-6.2s2.9-6.2 6.5-6.2ZM594.7 94.6c2.7 0 4.4 2 4.4 4.7v.4h-7.2c.1 1.5 1.3 2.7 3.1 2.7s2-.4 2.7-1l.8 1.1c-.9.8-2.2 1.3-3.6 1.3-2.7 0-4.7-1.8-4.7-4.6s1.9-4.6 4.5-4.6m-2.8 3.9h5.5c0-1.2-.8-2.6-2.8-2.6s-2.7 1.4-2.8 2.6ZM607.3 97.9c0-1.4-.8-1.9-1.9-1.9s-2 .6-2.5 1.3v6.2h-1.7v-8.7h1.7V96c.6-.7 1.8-1.4 3.2-1.4s2.9 1 2.9 2.8v6.1h-1.7zM611.1 99.1c0-2.5 1.8-4.6 4.6-4.6s4.6 2.1 4.6 4.6-1.7 4.6-4.6 4.6-4.6-2.1-4.6-4.6m7.4 0c0-1.6-1-3.1-2.8-3.1s-2.8 1.5-2.8 3.1 1 3.1 2.8 3.1 2.8-1.5 2.8-3.1M633.5 97.7c0-1-.5-1.7-1.6-1.7s-1.8.6-2.3 1.2v6.2h-1.7v-5.8c0-1-.5-1.7-1.6-1.7s-1.8.6-2.2 1.3v6.2h-1.7v-8.7h1.7v1.2c.4-.5 1.6-1.4 2.9-1.4s2.2.7 2.5 1.6c.5-.8 1.7-1.6 3.1-1.6s2.6.9 2.6 2.6v6.3h-1.7v-5.8ZM641.8 94.6c2.7 0 4.4 2 4.4 4.7v.4H639c.1 1.5 1.3 2.7 3.1 2.7s2-.4 2.7-1l.8 1.1c-.9.8-2.2 1.3-3.6 1.3-2.7 0-4.7-1.8-4.7-4.6s1.9-4.6 4.5-4.6m-2.8 3.9h5.5c0-1.2-.8-2.6-2.8-2.6s-2.7 1.4-2.8 2.6ZM648.4 101.2c.6.6 1.8 1.2 3 1.2s2-.5 2-1.2-1-1.2-2.2-1.4c-1.5-.3-3.3-.7-3.3-2.6s1.2-2.6 3.5-2.6 2.7.5 3.5 1.2l-.8 1.1c-.5-.6-1.5-1.1-2.7-1.1s-1.9.4-1.9 1.1 1 1 2.1 1.3c1.6.3 3.5.8 3.5 2.8s-1.3 2.7-3.7 2.7-2.9-.4-3.8-1.4l.8-1.2Z" class="st4"/><path d="M670.2 21.2h89.9v102.2h-89.9z" class="st2"/><path d="M708.3 51.3h-2.7v5.4h-2.2v-14h6.2c2.8 0 4.7 1.7 4.7 4.3s-1.8 3.9-3.6 4.1l3.7 5.6h-2.5l-3.5-5.4Zm.9-6.8h-3.7v4.9h3.7c1.6 0 2.7-1 2.7-2.5s-1.1-2.5-2.7-2.5ZM722.4 42.5c1.8 0 3.2.7 4.1 1.6l-1.1 1.6c-.7-.8-1.6-1.3-3-1.3-2.6 0-4 2.5-4 5.1v.5c.6-.9 2.2-2.1 4-2.1 2.6 0 4.8 1.5 4.8 4.5s-2 4.6-5.3 4.6-5.8-3.4-5.8-7.2 2-7.2 6.2-7.2Zm-.5 7.1c-1.4 0-2.7.8-3.4 1.9.2 1.6 1.1 3.6 3.5 3.6s3.2-1.5 3.2-2.7c0-1.9-1.4-2.8-3.2-2.8ZM681.8 73.1c-1.6 0-2.1-1.3-2.5-2.4-.3-.8-.6-1.5-1.2-1.5-1 0-1.5 1.7-1.7 3.9l-1.4-.2c.3-2.5.9-5 3.1-5s2 1.3 2.5 2.4c.3.8.6 1.6 1.2 1.6 1 0 1.5-1.7 1.7-3.9l1.4.2c-.2 2.5-.8 5-3.1 5ZM693.9 69.7h-7.7v-1.8h10.2v1.4l-5.8 12.6h-2.4zM699.6 78.5c1 1.1 2.3 1.8 4 1.8s3.2-1.2 3.2-2.7-1.2-2.8-3.1-2.8-2.3.4-3.3 1.3l-1.6-.5v-7.7h9.2v1.8h-7.1v4.5c.7-.7 1.9-1.2 3.3-1.2 2.5 0 4.7 1.6 4.7 4.5s-2.3 4.7-5.4 4.7-4.2-.8-5.3-2.2l1.3-1.4ZM711.2 83.9c.7-.4 1.4-1.3 1.5-2h-.3c-.7 0-1.2-.5-1.2-1.2s.6-1.3 1.3-1.3 1.5.6 1.5 1.7-.8 2.6-1.9 3.4l-.9-.7ZM721.9 67.7c4.1 0 5.7 3.8 5.7 7.2s-1.7 7.2-5.7 7.2-5.7-3.8-5.7-7.2 1.7-7.2 5.7-7.2m0 1.9c-2.6 0-3.5 2.6-3.5 5.4s.9 5.4 3.5 5.4 3.5-2.6 3.5-5.4-.9-5.4-3.5-5.4M735.4 67.7c4.1 0 5.7 3.8 5.7 7.2s-1.7 7.2-5.7 7.2-5.7-3.8-5.7-7.2 1.7-7.2 5.7-7.2m0 1.9c-2.6 0-3.5 2.6-3.5 5.4s.9 5.4 3.5 5.4 3.5-2.6 3.5-5.4-.9-5.4-3.5-5.4M748.8 67.7c4.1 0 5.7 3.8 5.7 7.2s-1.7 7.2-5.7 7.2-5.7-3.8-5.7-7.2 1.7-7.2 5.7-7.2m0 1.9c-2.6 0-3.5 2.6-3.5 5.4s.9 5.4 3.5 5.4 3.5-2.6 3.5-5.4-.9-5.4-3.5-5.4M682.4 91.3c2.3 0 3.9 1 5 2.4l-1.5.8c-.7-.9-2-1.6-3.4-1.6-2.6 0-4.6 1.9-4.6 4.6s2 4.6 4.6 4.6 2.6-.6 3.2-1.2v-2.2h-4v-1.6h5.9v4.4c-1.2 1.3-2.9 2.1-5 2.1-3.6 0-6.5-2.5-6.5-6.2s2.9-6.2 6.5-6.2ZM693.8 94.6c2.7 0 4.4 2 4.4 4.7v.4H691c.1 1.5 1.3 2.7 3.1 2.7s2-.4 2.7-1l.8 1.1c-.9.8-2.2 1.3-3.6 1.3-2.7 0-4.7-1.8-4.7-4.6s1.9-4.6 4.5-4.6m-2.7 3.9h5.5c0-1.2-.8-2.6-2.8-2.6s-2.7 1.4-2.8 2.6ZM706.5 97.9c0-1.4-.8-1.9-1.9-1.9s-2 .6-2.5 1.3v6.2h-1.7v-8.7h1.7V96c.6-.7 1.8-1.4 3.2-1.4s2.9 1 2.9 2.8v6.1h-1.7zM710.3 99.1c0-2.5 1.8-4.6 4.6-4.6s4.6 2.1 4.6 4.6-1.7 4.6-4.6 4.6-4.6-2.1-4.6-4.6m7.4 0c0-1.6-1-3.1-2.8-3.1s-2.8 1.5-2.8 3.1 1 3.1 2.8 3.1 2.8-1.5 2.8-3.1M732.6 97.7c0-1-.5-1.7-1.6-1.7s-1.8.6-2.3 1.2v6.2H727v-5.8c0-1-.5-1.7-1.6-1.7s-1.8.6-2.2 1.3v6.2h-1.7v-8.7h1.7v1.2c.4-.5 1.6-1.4 2.9-1.4s2.2.7 2.5 1.6c.5-.8 1.7-1.6 3.1-1.6s2.6.9 2.6 2.6v6.3h-1.7v-5.8ZM741 94.6c2.7 0 4.4 2 4.4 4.7v.4h-7.2c.1 1.5 1.3 2.7 3.1 2.7s2-.4 2.7-1l.8 1.1c-.9.8-2.2 1.3-3.6 1.3-2.7 0-4.7-1.8-4.7-4.6s1.9-4.6 4.5-4.6m-2.8 3.9h5.5c0-1.2-.8-2.6-2.8-2.6s-2.7 1.4-2.8 2.6ZM747.5 101.2c.6.6 1.8 1.2 3 1.2s2-.5 2-1.2-1-1.2-2.2-1.4c-1.5-.3-3.3-.7-3.3-2.6s1.2-2.6 3.5-2.6 2.7.5 3.5 1.2l-.8 1.1c-.5-.6-1.5-1.1-2.7-1.1s-1.9.4-1.9 1.1 1 1 2.1 1.3c1.6.3 3.5.8 3.5 2.8s-1.3 2.7-3.7 2.7-2.9-.4-3.8-1.4l.8-1.2ZM509.3 50.4h-2.7v5.4h-2.2v-14h6.2c2.8 0 4.7 1.7 4.7 4.3s-1.8 3.9-3.6 4.1l3.7 5.6h-2.5l-3.5-5.4Zm.9-6.7h-3.7v4.9h3.7c1.6 0 2.7-1 2.7-2.5s-1.1-2.5-2.7-2.5ZM523.8 52.5h-6.9v-1.7l6.1-8.9h3v8.8h2v1.8h-2v3.4h-2.2zm-4.7-1.9h4.8v-6.9zM485.5 77.6c.9 1.1 2.4 1.8 4.1 1.8s3.2-.9 3.2-2.4-1.3-2.2-3.4-2.2h-1.6v-1.9h1.6c1.8 0 3.2-.6 3.2-2.1s-1.4-2.2-3.1-2.2-2.7.6-3.8 1.6l-1.2-1.3c1.1-1.2 2.8-2.2 5.2-2.2s5.1 1.4 5.1 3.8-1.7 3-3.2 3.2c1.4.1 3.4 1.2 3.4 3.4s-2 4.1-5.3 4.1-4.4-1-5.4-2.3l1.2-1.4ZM503.3 66.8c1.8 0 3.2.7 4.1 1.6l-1.1 1.6c-.7-.8-1.6-1.3-3-1.3-2.6 0-4 2.5-4 5.1v.5c.6-.9 2.2-2.1 4-2.1 2.6 0 4.8 1.5 4.8 4.5s-2 4.6-5.3 4.6-5.8-3.4-5.8-7.2 2-7.2 6.2-7.2Zm-.5 7.1c-1.4 0-2.7.8-3.4 1.9.2 1.6 1.1 3.6 3.5 3.6s3.2-1.5 3.2-2.7c0-1.9-1.4-2.8-3.2-2.8ZM510.4 83c.7-.4 1.4-1.3 1.5-2h-.3c-.7 0-1.2-.5-1.2-1.2s.6-1.3 1.3-1.3 1.5.6 1.5 1.7-.8 2.6-1.9 3.4l-.9-.7ZM516.2 77.6c.9 1.1 2.4 1.8 4.1 1.8s3.2-.9 3.2-2.4-1.3-2.2-3.4-2.2h-1.6v-1.9h1.6c1.8 0 3.2-.6 3.2-2.1s-1.4-2.2-3.1-2.2-2.7.6-3.8 1.6l-1.2-1.3c1.1-1.2 2.8-2.2 5.2-2.2s5.1 1.4 5.1 3.8-1.7 3-3.2 3.2c1.4.1 3.4 1.2 3.4 3.4s-2 4.1-5.3 4.1-4.4-1-5.4-2.3l1.2-1.4ZM534 66.8c1.8 0 3.2.7 4.1 1.6L537 70c-.7-.8-1.6-1.3-3-1.3-2.6 0-4 2.5-4 5.1v.5c.6-.9 2.2-2.1 4-2.1 2.6 0 4.8 1.5 4.8 4.5s-2 4.6-5.3 4.6-5.8-3.4-5.8-7.2 2-7.2 6.2-7.2Zm-.6 7.1c-1.4 0-2.7.8-3.4 1.9.2 1.6 1.1 3.6 3.5 3.6s3.2-1.5 3.2-2.7c0-1.9-1.4-2.8-3.2-2.8ZM543.8 69.8l-2.4 2.4-1.3-1.3 3.9-3.8h1.9v14h-2.2V69.8ZM483.1 90.4c2.3 0 3.9 1 5 2.4l-1.5.8c-.7-.9-2-1.6-3.4-1.6-2.6 0-4.6 1.9-4.6 4.6s2 4.6 4.6 4.6 2.6-.6 3.2-1.2v-2.2h-4v-1.6h5.9v4.4c-1.2 1.3-2.9 2.1-5 2.1-3.6 0-6.5-2.5-6.5-6.2s2.9-6.2 6.5-6.2ZM494.5 93.7c2.7 0 4.4 2 4.4 4.7v.4h-7.2c.1 1.5 1.3 2.7 3.1 2.7s2-.4 2.7-1l.8 1.1c-.9.8-2.2 1.3-3.6 1.3-2.7 0-4.7-1.8-4.7-4.6s1.9-4.6 4.5-4.6m-2.7 3.9h5.5c0-1.2-.8-2.6-2.8-2.6s-2.7 1.4-2.8 2.6ZM507.2 97c0-1.4-.8-1.9-1.9-1.9s-2 .6-2.5 1.3v6.2h-1.7v-8.7h1.7v1.2c.6-.7 1.8-1.4 3.2-1.4s2.9 1 2.9 2.8v6.1h-1.7zM511 98.3c0-2.5 1.8-4.6 4.6-4.6s4.6 2.1 4.6 4.6-1.7 4.6-4.6 4.6-4.6-2.1-4.6-4.6m7.4 0c0-1.6-1-3.1-2.8-3.1s-2.8 1.5-2.8 3.1 1 3.1 2.8 3.1 2.8-1.5 2.8-3.1M533.3 96.8c0-1-.5-1.7-1.6-1.7s-1.8.6-2.3 1.2v6.2h-1.7v-5.8c0-1-.5-1.7-1.6-1.7s-1.8.6-2.2 1.3v6.2h-1.7v-8.7h1.7V95c.4-.5 1.6-1.4 2.9-1.4s2.2.7 2.5 1.6c.5-.8 1.7-1.6 3.1-1.6s2.6.9 2.6 2.6v6.3h-1.7v-5.8ZM541.7 93.7c2.7 0 4.4 2 4.4 4.7v.4h-7.2c.1 1.5 1.3 2.7 3.1 2.7s2-.4 2.7-1l.8 1.1c-.9.8-2.2 1.3-3.6 1.3-2.7 0-4.7-1.8-4.7-4.6s1.9-4.6 4.5-4.6m-2.8 3.9h5.5c0-1.2-.8-2.6-2.8-2.6s-2.7 1.4-2.8 2.6ZM548.2 100.3c.6.6 1.8 1.2 3 1.2s2-.5 2-1.2-1-1.2-2.2-1.4c-1.5-.3-3.3-.7-3.3-2.6s1.2-2.6 3.5-2.6 2.7.5 3.5 1.2l-.8 1.1c-.5-.6-1.5-1.1-2.7-1.1s-1.9.4-1.9 1.1 1 1 2.1 1.3c1.6.3 3.5.8 3.5 2.8s-1.3 2.7-3.7 2.7-2.9-.4-3.8-1.4l.8-1.2ZM462.6 286.7h-2.5v5.1h-2v-13.3h5.6c2.5 0 4.3 1.6 4.3 4.1s-1.6 3.7-3.3 3.9l3.4 5.3h-2.3zm.9-6.5h-3.4v4.7h3.4c1.4 0 2.5-.9 2.5-2.3s-1-2.3-2.5-2.3ZM474.1 281.9c2.9 0 4.7 2.3 4.7 5.2v.4h-7.6c.1 1.6 1.3 3 3.3 3s2.1-.4 2.9-1.1l.8 1.2c-1 .9-2.3 1.4-3.9 1.4-2.9 0-5-2-5-5.1s2-5.1 4.8-5.1Zm-3 4.4h5.9c0-1.3-.9-2.9-2.9-2.9s-2.9 1.6-3 2.9M481 278.5h1.8v13.3H481zM489.9 281.9c2.9 0 4.7 2.3 4.7 5.2v.4H487c.1 1.6 1.3 3 3.3 3s2.1-.4 2.9-1.1l.8 1.2c-1 .9-2.3 1.4-3.9 1.4-2.9 0-5-2-5-5.1s2-5.1 4.8-5.1Zm-2.9 4.4h5.9c0-1.3-.9-2.9-2.9-2.9s-2.9 1.6-3 2.9M502.8 290.8c-.8.8-1.9 1.3-3.2 1.3s-3.4-1.1-3.4-3.2 1.7-3.2 3.4-3.2 2.4.4 3.2 1.3v-1.6c0-1.2-1-1.9-2.4-1.9s-2 .4-2.9 1.3l-.8-1.2c1.1-1.1 2.4-1.6 4-1.6s3.9.9 3.9 3.4v6.5h-1.8zm0-2.7c-.5-.7-1.5-1.1-2.5-1.1s-2.2.8-2.2 1.9.9 1.9 2.2 1.9 1.9-.4 2.5-1.1zM507.5 289.2c.7.7 1.9 1.4 3.2 1.4s2.1-.6 2.1-1.4-1.1-1.3-2.3-1.6c-1.6-.4-3.6-.8-3.6-2.9s1.3-2.9 3.7-2.9 2.9.6 3.7 1.4l-.8 1.3c-.6-.7-1.6-1.2-2.9-1.2s-2 .5-2 1.3 1 1.1 2.2 1.4c1.7.4 3.7.8 3.7 3.1s-1.4 3-3.9 3-3-.5-4-1.5l.9-1.3ZM521.1 281.9c2.9 0 4.7 2.3 4.7 5.2v.4h-7.6c.1 1.6 1.3 3 3.3 3s2.1-.4 2.9-1.1l.8 1.2c-1 .9-2.3 1.4-3.9 1.4-2.9 0-5-2-5-5.1s2-5.1 4.8-5.1Zm-2.9 4.4h5.9c0-1.3-.9-2.9-2.9-2.9s-2.9 1.6-3 2.9M535.5 281.1l-2.2 2.3-1.2-1.2 3.6-3.7h1.8v13.3h-2z" class="st4"/><path d="M500.2 312h165.6v26.9H500.2z" class="st6"/><path d="M702.4 312.6h4.5c2.2 0 3.4 1.5 3.4 3.3s-1.2 3.3-3.4 3.3H704v4.1h-1.6zm4.3 1.4H704v3.7h2.7c1.2 0 2-.8 2-1.9s-.8-1.9-2-1.9ZM717.2 318.3c0-1.3-.7-1.7-1.6-1.7s-1.7.5-2.1 1.1v5.5h-1.4v-10.7h1.4v4c.5-.6 1.6-1.3 2.7-1.3s2.5.8 2.5 2.5v5.5h-1.4v-5h-.1ZM725.7 322.4c-.6.7-1.5 1-2.5 1s-2.7-.9-2.7-2.6 1.4-2.5 2.7-2.5 1.9.3 2.5 1V318c0-1-.8-1.5-1.9-1.5s-1.6.3-2.3 1l-.6-1c.9-.8 1.9-1.3 3.2-1.3s3.1.7 3.1 2.7v5.2h-1.4v-.8Zm0-2.1c-.4-.6-1.2-.9-2-.9s-1.8.6-1.8 1.5.7 1.5 1.8 1.5 1.6-.3 2-.9v-1.3ZM729.4 321.2c.5.6 1.6 1.1 2.6 1.1s1.7-.4 1.7-1.1-.9-1-1.9-1.2c-1.3-.3-2.8-.7-2.8-2.3s1.1-2.3 2.9-2.3 2.3.5 2.9 1.1l-.6 1c-.4-.5-1.3-.9-2.3-.9s-1.6.4-1.6 1 .8.9 1.8 1.1c1.3.3 2.9.7 2.9 2.4s-1.1 2.4-3.1 2.4-2.4-.4-3.2-1.2zM740.3 315.4c2.3 0 3.8 1.8 3.8 4.2v.4H738c0 1.3 1.1 2.4 2.6 2.4s1.7-.3 2.3-.9l.7.9c-.8.8-1.9 1.2-3.1 1.2-2.3 0-4-1.6-4-4.1s1.6-4 3.9-4h-.1Zm-2.4 3.4h4.7c0-1-.7-2.3-2.4-2.3s-2.3 1.2-2.4 2.3zM699.8 336.2h-2v4.1h-1.6v-10.7h4.5c2 0 3.4 1.3 3.4 3.3s-1.3 2.9-2.7 3.1l2.7 4.3h-1.9l-2.5-4.1Zm.7-5.2h-2.7v3.7h2.7c1.2 0 2-.8 2-1.9s-.8-1.9-2-1.9ZM708.9 332.4c2.3 0 3.8 1.8 3.8 4.2v.4h-6.1c0 1.3 1.1 2.4 2.6 2.4s1.7-.3 2.3-.9l.7.9c-.8.8-1.9 1.2-3.1 1.2-2.3 0-4-1.6-4-4.1s1.6-4 3.9-4h-.1Zm-2.3 3.4h4.7c0-1-.7-2.3-2.4-2.3s-2.3 1.2-2.4 2.3zM714.5 329.6h1.4v10.7h-1.4zM721.6 332.4c2.3 0 3.8 1.8 3.8 4.2v.4h-6.1c0 1.3 1.1 2.4 2.6 2.4s1.7-.3 2.3-.9l.7.9c-.8.8-1.9 1.2-3.1 1.2-2.3 0-4-1.6-4-4.1s1.6-4 3.9-4h-.1Zm-2.3 3.4h4.7c0-1-.7-2.3-2.4-2.3s-2.3 1.2-2.4 2.3zM732 339.4c-.6.7-1.5 1-2.5 1s-2.7-.9-2.7-2.6 1.4-2.5 2.7-2.5 1.9.3 2.5 1V335c0-1-.8-1.5-1.9-1.5s-1.6.3-2.3 1l-.6-1c.9-.8 1.9-1.3 3.2-1.3s3.1.7 3.1 2.7v5.2h-1.4v-.8Zm0-2.1c-.4-.6-1.2-.9-2-.9s-1.8.6-1.8 1.5.7 1.5 1.8 1.5 1.6-.3 2-.9v-1.3ZM735.7 338.2c.5.6 1.6 1.1 2.6 1.1s1.7-.4 1.7-1.1-.9-1-1.9-1.2c-1.3-.3-2.8-.7-2.8-2.3s1.1-2.3 2.9-2.3 2.3.5 2.9 1.1l-.6 1c-.4-.5-1.3-.9-2.3-.9s-1.6.4-1.6 1 .8.9 1.8 1.1c1.3.3 2.9.7 2.9 2.4s-1.1 2.4-3.1 2.4-2.4-.4-3.2-1.2zM746.6 332.4c2.3 0 3.8 1.8 3.8 4.2v.4h-6.1c0 1.3 1.1 2.4 2.6 2.4s1.7-.3 2.3-.9l.7.9c-.8.8-1.9 1.2-3.1 1.2-2.3 0-4-1.6-4-4.1s1.6-4 3.9-4h-.1Zm-2.4 3.4h4.7c0-1-.7-2.3-2.4-2.3s-2.3 1.2-2.4 2.3z" class="st0"/><path d="M654.6 315.3h14.5v20.3h-14.5z" class="st3"/><path d="m680.2 329.6-8.5-4 8.5-4-.4 2.5h11.9v2.9h-11.9l.4 2.5Z" class="st0"/><path d="M544.4 326.7h-2.5v5.1h-2v-13.3h5.6c2.5 0 4.3 1.6 4.3 4.1s-1.6 3.7-3.3 3.9l3.4 5.3h-2.3zm.8-6.5h-3.4v4.7h3.4c1.4 0 2.5-.9 2.5-2.3s-1-2.3-2.5-2.3ZM555.8 321.9c2.9 0 4.7 2.3 4.7 5.2v.4h-7.6c.1 1.6 1.3 3 3.3 3s2.1-.4 2.9-1.1l.8 1.2c-1 .9-2.3 1.4-3.9 1.4-2.9 0-5-2-5-5.1s2-5.1 4.8-5.1Zm-2.9 4.4h5.9c0-1.3-.9-2.9-2.9-2.9s-2.9 1.6-3 2.9M562.8 318.5h1.8v13.3h-1.8zM571.7 321.9c2.9 0 4.7 2.3 4.7 5.2v.4h-7.6c.1 1.6 1.3 3 3.3 3s2.1-.4 2.9-1.1l.8 1.2c-1 .9-2.3 1.4-3.9 1.4-2.9 0-5-2-5-5.1s2-5.1 4.8-5.1Zm-3 4.4h5.9c0-1.3-.9-2.9-2.9-2.9s-2.9 1.6-3 2.9M584.6 330.8c-.8.8-1.9 1.3-3.2 1.3s-3.4-1.1-3.4-3.2 1.7-3.2 3.4-3.2 2.4.4 3.2 1.3v-1.6c0-1.2-1-1.9-2.4-1.9s-2 .4-2.9 1.3l-.8-1.2c1.1-1.1 2.4-1.6 4-1.6s3.9.9 3.9 3.4v6.5h-1.8zm0-2.7c-.5-.7-1.5-1.1-2.5-1.1s-2.2.8-2.2 1.9.9 1.9 2.2 1.9 1.9-.4 2.5-1.1zM589.3 329.2c.7.7 1.9 1.4 3.2 1.4s2.1-.6 2.1-1.4-1.1-1.3-2.3-1.6c-1.6-.4-3.6-.8-3.6-2.9s1.3-2.9 3.7-2.9 2.9.6 3.7 1.4l-.8 1.3c-.6-.7-1.6-1.2-2.9-1.2s-2 .5-2 1.3 1 1.1 2.2 1.4c1.7.4 3.7.8 3.7 3.1s-1.4 3-3.9 3-3-.5-4-1.5l.9-1.3ZM602.9 321.9c2.9 0 4.7 2.3 4.7 5.2v.4H600c.1 1.6 1.3 3 3.3 3s2.1-.4 2.9-1.1l.8 1.2c-1 .9-2.3 1.4-3.9 1.4-2.9 0-5-2-5-5.1s2-5.1 4.8-5.1Zm-3 4.4h5.9c0-1.3-.9-2.9-2.9-2.9s-2.9 1.6-3 2.9M614.6 330.2c5-3.8 7.3-5.8 7.3-7.9s-1.3-2.2-2.6-2.2-2.8.7-3.6 1.6l-1.2-1.3c1.1-1.4 2.9-2.1 4.8-2.1s4.7 1.4 4.7 4-2.5 4.9-6.2 7.8h6.2v1.8h-9.4v-1.6Z" class="st4"/><path d="M576.8 352.6h165.6v26.9H576.8z" class="st6"/><path d="M779 353.2h4.5c2.2 0 3.4 1.5 3.4 3.3s-1.2 3.3-3.4 3.3h-2.9v4.1H779zm4.3 1.4h-2.7v3.7h2.7c1.2 0 2-.8 2-1.9s-.8-1.9-2-1.9ZM793.8 358.9c0-1.3-.7-1.7-1.6-1.7s-1.7.5-2.1 1.1v5.5h-1.4v-10.7h1.4v4c.5-.6 1.6-1.3 2.7-1.3s2.5.8 2.5 2.5v5.5h-1.4v-5h-.1ZM802.3 363c-.6.7-1.5 1-2.5 1s-2.7-.9-2.7-2.6 1.4-2.5 2.7-2.5 1.9.3 2.5 1v-1.3c0-1-.8-1.5-1.9-1.5s-1.6.3-2.3 1l-.6-1c.9-.8 1.9-1.3 3.2-1.3s3.1.7 3.1 2.7v5.2h-1.4v-.8Zm0-2.1c-.4-.6-1.2-.9-2-.9s-1.8.6-1.8 1.5.7 1.5 1.8 1.5 1.6-.3 2-.9v-1.3ZM806 361.8c.5.6 1.6 1.1 2.6 1.1s1.7-.4 1.7-1.1-.9-1-1.9-1.2c-1.3-.3-2.8-.7-2.8-2.3s1.1-2.3 2.9-2.3 2.3.5 2.9 1.1l-.6 1c-.4-.5-1.3-.9-2.3-.9s-1.6.4-1.6 1 .8.9 1.8 1.1c1.3.3 2.9.7 2.9 2.4s-1.1 2.4-3.1 2.4-2.4-.4-3.2-1.2zM816.9 356c2.3 0 3.8 1.8 3.8 4.2v.4h-6.1c0 1.3 1.1 2.4 2.6 2.4s1.7-.3 2.3-.9l.7.9c-.8.8-1.9 1.2-3.1 1.2-2.3 0-4-1.6-4-4.1s1.6-4 3.9-4h-.1Zm-2.4 3.4h4.7c0-1-.7-2.3-2.4-2.3s-2.3 1.2-2.4 2.3zM776.4 376.8h-2v4.1h-1.6v-10.7h4.5c2 0 3.4 1.3 3.4 3.3s-1.3 2.9-2.7 3.1l2.7 4.3h-1.9l-2.5-4.1Zm.7-5.2h-2.7v3.7h2.7c1.2 0 2-.8 2-1.9s-.8-1.9-2-1.9ZM785.5 373c2.3 0 3.8 1.8 3.8 4.2v.4h-6.1c0 1.3 1.1 2.4 2.6 2.4s1.7-.3 2.3-.9l.7.9c-.8.8-1.9 1.2-3.1 1.2-2.3 0-4-1.6-4-4.1s1.6-4 3.9-4h-.1Zm-2.3 3.4h4.7c0-1-.7-2.3-2.4-2.3s-2.3 1.2-2.4 2.3zM791.1 370.2h1.4v10.7h-1.4zM798.2 373c2.3 0 3.8 1.8 3.8 4.2v.4h-6.1c0 1.3 1.1 2.4 2.6 2.4s1.7-.3 2.3-.9l.7.9c-.8.8-1.9 1.2-3.1 1.2-2.3 0-4-1.6-4-4.1s1.6-4 3.9-4h-.1Zm-2.3 3.4h4.7c0-1-.7-2.3-2.4-2.3s-2.3 1.2-2.4 2.3zM808.6 380c-.6.7-1.5 1-2.5 1s-2.7-.9-2.7-2.6 1.4-2.5 2.7-2.5 1.9.3 2.5 1v-1.3c0-1-.8-1.5-1.9-1.5s-1.6.3-2.3 1l-.6-1c.9-.8 1.9-1.3 3.2-1.3s3.1.7 3.1 2.7v5.2h-1.4v-.8Zm0-2.1c-.4-.6-1.2-.9-2-.9s-1.8.6-1.8 1.5.7 1.5 1.8 1.5 1.6-.3 2-.9v-1.3ZM812.3 378.8c.5.6 1.6 1.1 2.6 1.1s1.7-.4 1.7-1.1-.9-1-1.9-1.2c-1.3-.3-2.8-.7-2.8-2.3s1.1-2.3 2.9-2.3 2.3.5 2.9 1.1l-.6 1c-.4-.5-1.3-.9-2.3-.9s-1.6.4-1.6 1 .8.9 1.8 1.1c1.3.3 2.9.7 2.9 2.4s-1.1 2.4-3.1 2.4-2.4-.4-3.2-1.2zM823.2 373c2.3 0 3.8 1.8 3.8 4.2v.4h-6.1c0 1.3 1.1 2.4 2.6 2.4s1.7-.3 2.3-.9l.7.9c-.8.8-1.9 1.2-3.1 1.2-2.3 0-4-1.6-4-4.1s1.6-4 3.9-4h-.1Zm-2.4 3.4h4.7c0-1-.7-2.3-2.4-2.3s-2.3 1.2-2.4 2.3z" class="st0"/><path d="M731.2 355.9h14.5v20.3h-14.5z" class="st3"/><path d="m756.8 370.2-8.5-4 8.5-4-.4 2.5h11.9v2.9h-11.9l.4 2.5Z" class="st0"/><path d="M621.3 367.3h-2.5v5.1h-2v-13.3h5.6c2.5 0 4.3 1.6 4.3 4.1s-1.6 3.7-3.3 3.9l3.4 5.3h-2.3zm.8-6.4h-3.4v4.7h3.4c1.4 0 2.5-.9 2.5-2.3s-1-2.3-2.5-2.3ZM632.7 362.5c2.9 0 4.7 2.3 4.7 5.2v.4h-7.6c.1 1.6 1.3 3 3.3 3s2.1-.4 2.9-1.1l.8 1.2c-1 .9-2.3 1.4-3.9 1.4-2.9 0-5-2-5-5.1s2-5.1 4.8-5.1Zm-2.9 4.4h5.9c0-1.3-.9-2.9-2.9-2.9s-2.9 1.6-3 2.9M639.7 359.1h1.8v13.3h-1.8zM648.6 362.5c2.9 0 4.7 2.3 4.7 5.2v.4h-7.6c.1 1.6 1.3 3 3.3 3s2.1-.4 2.9-1.1l.8 1.2c-1 .9-2.3 1.4-3.9 1.4-2.9 0-5-2-5-5.1s2-5.1 4.8-5.1Zm-3 4.4h5.9c0-1.3-.9-2.9-2.9-2.9s-2.9 1.6-3 2.9M661.5 371.4c-.8.8-1.9 1.3-3.2 1.3s-3.4-1.1-3.4-3.2 1.7-3.2 3.4-3.2 2.4.4 3.2 1.3V366c0-1.2-1-1.9-2.4-1.9s-2 .4-2.9 1.3l-.8-1.2c1.1-1.1 2.4-1.6 4-1.6s3.9.9 3.9 3.4v6.5h-1.8zm0-2.7c-.5-.7-1.5-1.1-2.5-1.1s-2.2.8-2.2 1.9.9 1.9 2.2 1.9 1.9-.4 2.5-1.1zM666.2 369.9c.7.7 1.9 1.4 3.2 1.4s2.1-.6 2.1-1.4-1.1-1.3-2.3-1.6c-1.6-.4-3.6-.8-3.6-2.9s1.3-2.9 3.7-2.9 2.9.6 3.7 1.4l-.8 1.3c-.6-.7-1.6-1.2-2.9-1.2s-2 .5-2 1.3 1 1.1 2.2 1.4c1.7.4 3.7.8 3.7 3.1s-1.4 3-3.9 3-3-.5-4-1.5l.9-1.3ZM679.8 362.5c2.9 0 4.7 2.3 4.7 5.2v.4h-7.6c.1 1.6 1.3 3 3.3 3s2.1-.4 2.9-1.1l.8 1.2c-1 .9-2.3 1.4-3.9 1.4-2.9 0-5-2-5-5.1s2-5.1 4.8-5.1Zm-3 4.4h5.9c0-1.3-.9-2.9-2.9-2.9s-2.9 1.6-3 2.9M692.1 369.2c.8 1 2.2 1.7 3.7 1.7s2.9-.9 2.9-2.3-1.2-2.1-3.1-2.1h-1.4v-1.8h1.4c1.6 0 2.9-.6 2.9-2s-1.3-2.1-2.9-2.1-2.5.5-3.5 1.5l-1.1-1.2c1-1.2 2.6-2.1 4.7-2.1s4.7 1.3 4.7 3.6-1.6 2.8-2.9 3.1c1.3.1 3.1 1.2 3.1 3.3s-1.9 3.9-4.9 3.9-4-1-4.9-2.2l1.1-1.3Z" class="st4"/><path d="M660.9 392.6h185.2v26.9H660.9z" class="st6"/><path d="M885.1 393.2h4.5c2.2 0 3.4 1.5 3.4 3.3s-1.2 3.3-3.4 3.3h-2.9v4.1h-1.6zm4.3 1.4h-2.7v3.7h2.7c1.2 0 2-.8 2-1.9s-.8-1.9-2-1.9ZM899.9 398.9c0-1.3-.7-1.7-1.6-1.7s-1.7.5-2.1 1.1v5.5h-1.4v-10.7h1.4v4c.5-.6 1.6-1.3 2.7-1.3s2.5.8 2.5 2.5v5.5H900v-5h-.1ZM908.4 403c-.6.7-1.5 1-2.5 1s-2.7-.9-2.7-2.6 1.4-2.5 2.7-2.5 1.9.3 2.5 1v-1.3c0-1-.8-1.5-1.9-1.5s-1.6.3-2.3 1l-.6-1c.9-.8 1.9-1.3 3.2-1.3s3.1.7 3.1 2.7v5.2h-1.4v-.8Zm0-2.1c-.4-.6-1.2-.9-2-.9s-1.8.6-1.8 1.5.7 1.5 1.8 1.5 1.6-.3 2-.9v-1.3ZM912.1 401.8c.5.6 1.6 1.1 2.6 1.1s1.7-.4 1.7-1.1-.9-1-1.9-1.2c-1.3-.3-2.8-.7-2.8-2.3s1.1-2.3 2.9-2.3 2.3.5 2.9 1.1l-.6 1c-.4-.5-1.3-.9-2.3-.9s-1.6.4-1.6 1 .8.9 1.8 1.1c1.3.3 2.9.7 2.9 2.4s-1.1 2.4-3.1 2.4-2.4-.4-3.2-1.2zM923 396c2.3 0 3.8 1.8 3.8 4.2v.4h-6.1c0 1.3 1.1 2.4 2.6 2.4s1.7-.3 2.3-.9l.7.9c-.8.8-1.9 1.2-3.1 1.2-2.3 0-4-1.6-4-4.1s1.6-4 3.9-4h-.1Zm-2.4 3.4h4.7c0-1-.7-2.3-2.4-2.3s-2.3 1.2-2.4 2.3zM882.5 416.8h-2v4.1h-1.6v-10.7h4.5c2 0 3.4 1.3 3.4 3.3s-1.3 2.9-2.7 3.1l2.7 4.3h-1.9l-2.5-4.1Zm.7-5.2h-2.7v3.7h2.7c1.2 0 2-.8 2-1.9s-.8-1.9-2-1.9ZM891.6 413c2.3 0 3.8 1.8 3.8 4.2v.4h-6.1c0 1.3 1.1 2.4 2.6 2.4s1.7-.3 2.3-.9l.7.9c-.8.8-1.9 1.2-3.1 1.2-2.3 0-4-1.6-4-4.1s1.6-4 3.9-4h-.1Zm-2.3 3.4h4.7c0-1-.7-2.3-2.4-2.3s-2.3 1.2-2.4 2.3zM897.2 410.2h1.4v10.7h-1.4zM904.3 413c2.3 0 3.8 1.8 3.8 4.2v.4H902c0 1.3 1.1 2.4 2.6 2.4s1.7-.3 2.3-.9l.7.9c-.8.8-1.9 1.2-3.1 1.2-2.3 0-4-1.6-4-4.1s1.6-4 3.9-4h-.1Zm-2.3 3.4h4.7c0-1-.7-2.3-2.4-2.3s-2.3 1.2-2.4 2.3zM914.7 420c-.6.7-1.5 1-2.5 1s-2.7-.9-2.7-2.6 1.4-2.5 2.7-2.5 1.9.3 2.5 1v-1.3c0-1-.8-1.5-1.9-1.5s-1.6.3-2.3 1l-.6-1c.9-.8 1.9-1.3 3.2-1.3s3.1.7 3.1 2.7v5.2h-1.4v-.8Zm0-2.1c-.4-.6-1.2-.9-2-.9s-1.8.6-1.8 1.5.7 1.5 1.8 1.5 1.6-.3 2-.9v-1.3ZM918.4 418.8c.5.6 1.6 1.1 2.6 1.1s1.7-.4 1.7-1.1-.9-1-1.9-1.2c-1.3-.3-2.8-.7-2.8-2.3s1.1-2.3 2.9-2.3 2.3.5 2.9 1.1l-.6 1c-.4-.5-1.3-.9-2.3-.9s-1.6.4-1.6 1 .8.9 1.8 1.1c1.3.3 2.9.7 2.9 2.4s-1.1 2.4-3.1 2.4-2.4-.4-3.2-1.2zM929.3 413c2.3 0 3.8 1.8 3.8 4.2v.4H927c0 1.3 1.1 2.4 2.6 2.4s1.7-.3 2.3-.9l.7.9c-.8.8-1.9 1.2-3.1 1.2-2.3 0-4-1.6-4-4.1s1.6-4 3.9-4h-.1Zm-2.4 3.4h4.7c0-1-.7-2.3-2.4-2.3s-2.3 1.2-2.4 2.3z" class="st0"/><path d="M834.9 395.9h14.5v20.3h-14.5z" class="st3"/><path d="m862.9 410.2-8.5-4 8.5-4-.4 2.5h11.9v2.9h-11.9l.4 2.5Z" class="st0"/><path d="M716.6 407.2h-2.5v5.1h-2V399h5.6c2.5 0 4.3 1.6 4.3 4.1s-1.6 3.7-3.3 3.9l3.4 5.3h-2.3zm.9-6.5h-3.4v4.7h3.4c1.4 0 2.5-.9 2.5-2.3s-1-2.3-2.5-2.3ZM728.1 402.4c2.9 0 4.7 2.3 4.7 5.2v.4h-7.6c.1 1.6 1.3 3 3.3 3s2.1-.4 2.9-1.1l.8 1.2c-1 .9-2.3 1.4-3.9 1.4-2.9 0-5-2-5-5.1s2-5.1 4.8-5.1Zm-3 4.4h5.9c0-1.3-.9-2.9-2.9-2.9s-2.9 1.6-3 2.9M735 399h1.8v13.3H735zM743.9 402.4c2.9 0 4.7 2.3 4.7 5.2v.4H741c.1 1.6 1.3 3 3.3 3s2.1-.4 2.9-1.1l.8 1.2c-1 .9-2.3 1.4-3.9 1.4-2.9 0-5-2-5-5.1s2-5.1 4.8-5.1Zm-2.9 4.4h5.9c0-1.3-.9-2.9-2.9-2.9s-2.9 1.6-3 2.9M756.8 411.3c-.8.8-1.9 1.3-3.2 1.3s-3.4-1.1-3.4-3.2 1.7-3.2 3.4-3.2 2.4.4 3.2 1.3v-1.6c0-1.2-1-1.9-2.4-1.9s-2 .4-2.9 1.3l-.8-1.2c1.1-1.1 2.4-1.6 4-1.6s3.9.9 3.9 3.4v6.5h-1.8zm0-2.7c-.5-.7-1.5-1.1-2.5-1.1s-2.2.8-2.2 1.9.9 1.9 2.2 1.9 1.9-.4 2.5-1.1zM761.5 409.7c.7.7 1.9 1.4 3.2 1.4s2.1-.6 2.1-1.4-1.1-1.3-2.3-1.6c-1.6-.4-3.6-.8-3.6-2.9s1.3-2.9 3.7-2.9 2.9.6 3.7 1.4l-.8 1.3c-.6-.7-1.6-1.2-2.9-1.2s-2 .5-2 1.3 1 1.1 2.2 1.4c1.7.4 3.7.8 3.7 3.1s-1.4 3-3.9 3-3-.5-4-1.5l.9-1.3ZM775.1 402.4c2.9 0 4.7 2.3 4.7 5.2v.4h-7.6c.1 1.6 1.3 3 3.3 3s2.1-.4 2.9-1.1l.8 1.2c-1 .9-2.3 1.4-3.9 1.4-2.9 0-5-2-5-5.1s2-5.1 4.8-5.1Zm-2.9 4.4h5.9c0-1.3-.9-2.9-2.9-2.9s-2.9 1.6-3 2.9M792.7 409.1h-6.3v-1.6l5.6-8.5h2.7v8.4h1.8v1.8h-1.8v3.2h-2v-3.2Zm-4.3-1.7h4.4v-6.6z" class="st4"/></svg>