<svg version="1.1" id="Layer_1" xmlns="http://www.w3.org/2000/svg" xmlns:xlink="http://www.w3.org/1999/xlink" x="0px" y="0px"
	 viewBox="0 0 371.6 112.2" style="enable-background:new 0 0 371.6 112.2;" xml:space="preserve">
<style type="text/css">
	.niagads-color{fill:#ffffff;}
</style>
<g>
	<g>
		<path class="niagads-color" d="M39.6,33.3c-0.5,0.4-1,0.8-1.5,1.2l-8.6-11.1c0.6-0.3,1.1-0.7,1.5-1.2L39.6,33.3z"/>
		<path class="niagads-color" d="M67.1,14.1L53.9,33.9c-0.5-0.4-1-0.8-1.6-1.1l13.1-19.8C65.9,13.5,66.5,13.8,67.1,14.1z"/>
		<path class="niagads-color" d="M36.9,51.5L19.3,64c-0.3-0.6-0.7-1.1-1.1-1.6l17.6-12.4C36.1,50.5,36.5,51,36.9,51.5z"/>
		<path class="niagads-color" d="M44.3,55.8l-3.1,12.4c-0.6-0.3-1.2-0.5-1.9-0.5l3.1-12.3C43.1,55.6,43.7,55.7,44.3,55.8z"/>
		<path class="niagads-color" d="M64.9,79c-0.7,0.2-1.2,0.4-1.8,0.8L50.9,55.1c0.6-0.2,1.2-0.5,1.7-0.9L64.9,79z"/>
		<path class="niagads-color" d="M100.8,98.9c-0.5,0.4-1,0.8-1.4,1.3L54.2,53.2c0.5-0.4,1-0.8,1.4-1.3L100.8,98.9z"/>
		<path class="niagads-color" d="M58.7,44.4c0-0.2,0-0.5,0-0.7c0-0.4,0-0.8-0.1-1.2l63.9-1.2c0,0.3,0,0.6,0,0.8c0,0.4,0,0.7,0.1,1.1L58.7,44.4
			z"/>
		<path class="niagads-color" d="M128.8,61c-0.3,0.6-0.4,1.2-0.5,1.9L58.1,47.3c0.2-0.6,0.3-1.2,0.4-1.9L128.8,61z"/>
		<path class="niagads-color" d="M34.5,40.4c-0.2,0.6-0.3,1.3-0.3,1.9l-19.5-3.7c0.3-0.6,0.4-1.2,0.4-1.9L34.5,40.4z"/>
		<path class="niagads-color" d="M34.4,46.5l-21.5,3.4c0-0.7-0.2-1.3-0.4-1.9l21.6-3.4C34.1,45.3,34.2,45.9,34.4,46.5z"/>
		<path class="niagads-color" d="M105.9,22.2l-47.7,18c-0.2-0.6-0.4-1.2-0.7-1.8l47.6-18C105.2,21,105.5,21.6,105.9,22.2z"/>
		<path class="niagads-color" d="M114.9,75.5c-0.4,0.5-0.7,1.1-0.8,1.7L57,49.8c0.3-0.6,0.6-1.1,0.8-1.7L114.9,75.5z"/>
	</g>
	<path class="niagads-color" d="M56.8,43.6c0,0.3,0,0.5,0,0.8c0,0.2,0,0.4-0.1,0.6c-0.1,0.7-0.2,1.3-0.4,1.9c0,0.1-0.1,0.3-0.1,0.4
		c-0.2,0.6-0.5,1.2-0.8,1.8c-0.3,0.5-0.7,1-1.1,1.5c-0.4,0.5-0.9,0.9-1.4,1.3c-0.3,0.3-0.7,0.5-1,0.7c-0.5,0.3-1.1,0.6-1.7,0.8
		c-1.1,0.4-2.4,0.7-3.7,0.7c-0.5,0-1.1,0-1.6-0.1c-0.7-0.1-1.3-0.3-1.9-0.5c-1.8-0.6-3.3-1.7-4.5-3.1c-0.4-0.5-0.8-1-1.1-1.6
		c-0.5-0.8-0.8-1.7-1.1-2.6c-0.2-0.6-0.3-1.3-0.3-1.9c0-0.2,0-0.4,0-0.7c0-0.3,0-0.7,0-1c0.1-0.7,0.2-1.3,0.3-1.9
		c0.5-1.8,1.6-3.5,2.9-4.8c0.5-0.4,1-0.8,1.5-1.2c1.6-1,3.6-1.6,5.6-1.6c1.8,0,3.5,0.4,4.9,1.2c0.6,0.3,1.1,0.7,1.6,1.1
		c1.2,1,2.2,2.2,2.8,3.6c0.3,0.6,0.5,1.2,0.7,1.8c0.1,0.5,0.2,1.1,0.3,1.6C56.8,42.8,56.8,43.2,56.8,43.6z"/>
	<path class="niagads-color" d="M31,18.5c0,1-0.3,1.9-0.9,2.6c-0.4,0.5-0.9,0.9-1.5,1.2c-0.5,0.2-1.1,0.4-1.7,0.4c-2.3,0-4.1-1.9-4.1-4.1
		c0-2.3,1.8-4.1,4.1-4.1C29.1,14.4,31,16.2,31,18.5z"/>
	<g>
		<path class="niagads-color" d="M75,8.1c0,2.8-2.4,5.1-5.3,5.1c-0.6,0-1.3-0.1-1.8-0.3c-0.6-0.2-1.2-0.5-1.7-1c-1.1-0.9-1.8-2.3-1.8-3.8
			c0-2.8,2.4-5.1,5.3-5.1C72.6,3,75,5.3,75,8.1z"/>
	</g>
	<g>
		<path class="niagads-color" d="M114.6,19.1c0,2.3-1.8,4.1-4.1,4.1c-1.3,0-2.5-0.6-3.2-1.6c-0.4-0.5-0.7-1.1-0.8-1.8
			c-0.1-0.3-0.1-0.5-0.1-0.8c0-2.3,1.9-4.1,4.1-4.1C112.8,15,114.6,16.8,114.6,19.1z"/>
	</g>
	<g>
		<path class="niagads-color" d="M135.7,42.1c0,3.2-2.6,5.9-5.9,5.9c-2.9,0-5.2-2.1-5.7-4.8c-0.1-0.3-0.1-0.7-0.1-1.1c0-0.3,0-0.6,0.1-0.9
			c0.4-2.8,2.8-5,5.8-5C133,36.2,135.7,38.9,135.7,42.1z"/>
	</g>
	<g>
		<path class="niagads-color" d="M138,63.3c0,2.3-1.8,4.1-4.1,4.1c-2.3,0-4.1-1.8-4.1-4.1c0,0,0-0.1,0-0.1c0-0.7,0.2-1.3,0.5-1.9
			c0.7-1.3,2.1-2.1,3.6-2.1C136.1,59.2,138,61.1,138,63.3z"/>
	</g>
	<g>
		<path class="niagads-color" d="M127.2,79.6c0,3.3-2.7,6-6.1,6c-3.3,0-6-2.7-6-6c0-0.6,0.1-1.2,0.2-1.7c0.2-0.6,0.5-1.2,0.8-1.7
			c1.1-1.6,2.9-2.6,4.9-2.6C124.4,73.5,127.2,76.2,127.2,79.6z"/>
	</g>
	<g>
		<path class="niagads-color" d="M108,103.5c0,2.3-1.8,4.1-4.1,4.1s-4.1-1.8-4.1-4.1c0-0.8,0.2-1.6,0.7-2.2c0.3-0.5,0.8-1,1.4-1.3
			c0.6-0.4,1.3-0.6,2.1-0.6C106.2,99.4,108,101.2,108,103.5z"/>
	</g>
	<g>
		<path class="niagads-color" d="M70.4,84.4c0,2.3-1.8,4.1-4.1,4.1s-4.1-1.8-4.1-4.1c0-1.3,0.7-2.5,1.6-3.3c0.5-0.4,1.1-0.7,1.8-0.8
			c0.2,0,0.5-0.1,0.7-0.1C68.5,80.3,70.4,82.1,70.4,84.4z"/>
	</g>
	<g>
		<path class="niagads-color" d="M42.9,73.2c0,2.3-1.8,4.1-4.1,4.1c-2.3,0-4.1-1.8-4.1-4.1s1.8-4.1,4.1-4.1c0.1,0,0.1,0,0.2,0
			c0.7,0,1.3,0.2,1.9,0.5C42.1,70.3,42.9,71.7,42.9,73.2z"/>
	</g>
	<g>
		<path class="niagads-color" d="M18.6,67c0,2.9-2.4,5.3-5.3,5.3S8,69.9,8,67c0-2.9,2.4-5.3,5.3-5.3c1.4,0,2.7,0.6,3.7,1.5
			c0.5,0.4,0.8,1,1.1,1.6C18.4,65.5,18.6,66.2,18.6,67z"/>
	</g>
	<g>
		<path class="niagads-color" d="M11.5,50.2L11.5,50.2c0,2.3-1.9,4.2-4.1,4.2c-2.3,0-4.1-1.8-4.1-4.1c0-2.3,1.8-4.1,4.1-4.1
			c1.6,0,2.9,0.9,3.6,2.2C11.3,48.8,11.4,49.5,11.5,50.2z"/>
	</g>
	<g>
		<path class="niagads-color" d="M13.6,36.7c0,0.6-0.2,1.2-0.4,1.7c-0.7,1.2-2,2-3.5,2c-2.2,0-3.9-1.7-3.9-3.7c0-2.1,1.8-3.7,3.9-3.7
			c2.1,0,3.8,1.6,3.9,3.6C13.6,36.6,13.6,36.6,13.6,36.7z"/>
	</g>
</g>
<g>
	<path class="niagads-color" d="M165.6,30.8v21.5h-6.8v-32h7l14.8,20.7V20.3h6.8v32h-6.6L165.6,30.8z"/>
	<path class="niagads-color" d="M194.5,20.3h6.8v32h-6.8V20.3z"/>
	<path class="niagads-color" d="M228.8,46.8h-14.3l-2,5.5h-7.5l12.4-32h8.5l12.3,32h-7.4L228.8,46.8z M216.3,40.9h10.6l-5.3-14.7L216.3,40.9z"
		/>
	<path class="niagads-color" d="M255.8,19.8c6.6,0,10.8,3.2,13.2,7l-5.7,3.1c-1.5-2.3-4.2-4-7.6-4c-5.8,0-10,4.5-10,10.5s4.2,10.5,10,10.5
		c2.9,0,5.5-1.2,6.9-2.4v-3.9h-8.5v-5.9h15.3v12.2c-3.3,3.6-7.8,6-13.6,6c-9.4,0-17-6.5-17-16.6C238.7,26.2,246.4,19.8,255.8,19.8z"
		/>
	<path class="niagads-color" d="M295.6,46.8h-14.3l-2,5.5h-7.5l12.4-32h8.5l12.3,32h-7.4L295.6,46.8z M283.1,40.9h10.6l-5.3-14.7L283.1,40.9z"
		/>
	<path class="niagads-color" d="M308.7,20.3h12.6c10,0,17,6.4,17,16s-7,16-17,16h-12.6V20.3z M321.4,46.3c6.3,0,10-4.6,10-10
		c0-5.7-3.5-10-10-10h-5.8v20H321.4z"/>
	<path class="niagads-color" d="M345.5,42.6c2.3,2.4,5.8,4.3,10.2,4.3c3.7,0,5.6-1.8,5.6-3.6c0-2.4-2.8-3.2-6.5-4.1c-5.2-1.2-12-2.6-12-9.8
		c0-5.3,4.6-9.6,12.1-9.6c5.1,0,9.3,1.5,12.5,4.5l-3.8,5c-2.6-2.4-6-3.5-9.2-3.5c-3.1,0-4.7,1.3-4.7,3.3c0,2.2,2.7,2.8,6.4,3.7
		c5.3,1.2,12,2.8,12,9.9c0,5.9-4.2,10.3-12.8,10.3c-6.1,0-10.6-2.1-13.6-5.1L345.5,42.6z"/>
	<path class="niagads-color" d="M170.6,64.6c4.5,0,7.6,2,9.8,4.7l-2.5,1.6c-1.6-2.1-4.3-3.5-7.3-3.5c-5.5,0-9.8,4.3-9.8,10.3
		c0,6,4.2,10.3,9.8,10.3c3,0,5.5-1.5,6.8-2.7v-5.2h-8.7v-2.8h11.9v9.2c-2.4,2.6-5.8,4.4-10,4.4c-7.2,0-13-5.3-13-13.1
		C157.5,69.8,163.4,64.6,170.6,64.6z"/>
	<path class="niagads-color" d="M193.1,71.5c5.5,0,8.8,4.3,8.8,9.8v0.7h-14.9c0.2,3.5,2.7,6.3,6.6,6.3c2.1,0,4.2-0.8,5.7-2.3l1.4,1.9
		c-1.8,1.8-4.3,2.8-7.3,2.8c-5.4,0-9.3-3.9-9.3-9.7C184.1,75.8,187.9,71.5,193.1,71.5z M187.1,80h12c0-2.7-1.9-6.1-6-6.1
		C189.2,73.9,187.3,77.2,187.1,80z"/>
	<path class="niagads-color" d="M218.6,78.3c0-3.2-1.6-4.3-4.1-4.3c-2.2,0-4.4,1.4-5.4,2.8v13.4h-2.8V72h2.8v2.7c1.3-1.5,3.8-3.1,6.5-3.1
		c3.8,0,5.9,1.9,5.9,5.9v12.9h-2.8V78.3z"/>
	<path class="niagads-color" d="M225.7,81.1c0-5.3,3.5-9.6,9.1-9.6s9.1,4.3,9.1,9.6s-3.5,9.7-9.1,9.7S225.7,86.5,225.7,81.1z M240.8,81.1
		c0-3.7-2.2-7.1-6.1-7.1c-3.9,0-6.1,3.3-6.1,7.1c0,3.8,2.2,7.1,6.1,7.1C238.7,88.3,240.8,84.9,240.8,81.1z"/>
	<path class="niagads-color" d="M270.2,77.9c0-2.3-1-3.8-3.4-3.8c-1.9,0-3.9,1.4-4.9,2.8v13.5h-2.8V77.9c0-2.3-1-3.8-3.4-3.8
		c-1.9,0-3.8,1.4-4.8,2.8v13.4h-2.8V72h2.8v2.7c0.8-1.2,3.2-3.1,5.9-3.1c2.8,0,4.4,1.5,4.9,3.4c1-1.7,3.5-3.4,6.2-3.4
		c3.3,0,5.1,1.9,5.1,5.5v13.3h-2.8V77.9z"/>
	<path class="niagads-color" d="M277.9,67c0-1.1,0.9-1.9,1.9-1.9c1.1,0,1.9,0.8,1.9,1.9c0,1.1-0.9,1.9-1.9,1.9C278.8,68.9,277.9,68,277.9,67z
		 M278.4,72h2.8v18.4h-2.8V72z"/>
	<path class="niagads-color" d="M294.7,71.5c3.3,0,5.3,1.4,6.7,3.2l-1.9,1.7c-1.2-1.7-2.8-2.4-4.7-2.4c-3.9,0-6.3,3-6.3,7.1s2.4,7.1,6.3,7.1
		c1.9,0,3.5-0.8,4.7-2.4l1.9,1.7c-1.4,1.8-3.4,3.2-6.7,3.2c-5.5,0-9.2-4.2-9.2-9.7C285.5,75.7,289.2,71.5,294.7,71.5z"/>
	<path class="niagads-color" d="M304.9,85.9c1.2,1.4,3.5,2.6,6,2.6c2.8,0,4.3-1.3,4.3-3c0-2-2.2-2.7-4.7-3.3c-3.1-0.7-6.6-1.6-6.6-5.4
		c0-2.8,2.5-5.3,6.8-5.3c3.1,0,5.3,1.2,6.8,2.7l-1.3,2c-1.1-1.3-3.1-2.3-5.5-2.3c-2.5,0-4.1,1.1-4.1,2.8c0,1.8,2.1,2.4,4.5,2.9
		c3.2,0.7,6.9,1.6,6.9,5.7c0,3.1-2.5,5.5-7.2,5.5c-3,0-5.5-0.9-7.4-2.9L304.9,85.9z"/>
	<path class="niagads-color" d="M322.4,65h8.7c7.9,0,13,5.5,13,12.7c0,7.2-5.1,12.7-13,12.7h-8.7V65z M331.1,87.5c6.2,0,9.7-4.4,9.7-9.8
		c0-5.5-3.5-9.9-9.7-9.9h-5.5v19.7H331.1z"/>
	<path class="niagads-color" d="M348.6,65h11.3c4.4,0,7.1,2.7,7.1,6.5c0,3.2-2.1,5.3-4.4,5.8c2.7,0.4,4.9,3.2,4.9,6.2c0,4.1-2.7,6.8-7.3,6.8
		h-11.5V65z M359.4,76c2.8,0,4.4-1.7,4.4-4.1c0-2.3-1.5-4.1-4.4-4.1h-7.6V76H359.4z M359.5,87.5c3,0,4.7-1.7,4.7-4.4
		c0-2.3-1.6-4.4-4.7-4.4h-7.8v8.7H359.5z"/>
</g>
</svg>
